<?xml version="1.0" encoding="UTF-8"?>
<!DOCTYPE svg PUBLIC "-//W3C//DTD SVG 1.1//EN" "http://www.w3.org/Graphics/SVG/1.1/DTD/svg11.dtd">
<!-- Creator: CorelDRAW 2018 (64-Bit) -->
<svg xmlns="http://www.w3.org/2000/svg" xml:space="preserve" width="200px" height="249px" version="1.1" style="shape-rendering:geometricPrecision; text-rendering:geometricPrecision; image-rendering:optimizeQuality; fill-rule:evenodd; clip-rule:evenodd"
viewBox="0 0 64.47 80.24"
 xmlns:xlink="http://www.w3.org/1999/xlink">
 <defs>
  <style type="text/css">
   <![CDATA[
    .str0 {stroke:#2B2A29;stroke-width:0.29;stroke-miterlimit:22.9256}
    .fil6 {fill:none}
    .fil7 {fill:black}
    .fil0 {fill:#913A00}
    .fil3 {fill:#913A00}
    .fil9 {fill:#B09658}
    .fil2 {fill:#BA4A00}
    .fil5 {fill:#BA4A00}
    .fil4 {fill:#D66D27}
    .fil1 {fill:#FFBB61}
    .fil8 {fill:#FFD461}
   ]]>
  </style>
 </defs>
 <g id="Слой_x0020_1">
  <metadata id="CorelCorpID_0Corel-Layer"/>
  <path class="fil0" d="M32.27 16.76c12.27,0 22.21,9.95 22.21,22.22 0,0.94 -0.06,1.87 -0.17,2.79 -13.81,4.41 -28.46,4.65 -44.08,0 -0.12,-0.92 -0.18,-1.85 -0.18,-2.79 0,-12.27 9.95,-22.22 22.22,-22.22z"/>
  <path class="fil1" d="M13.65 41.77l0.13 -2.11 36.99 0.07 0.05 2.04c-1.16,10.2 -9.04,18.1 -18.58,18.1 -9.55,0 -17.43,-7.9 -18.59,-18.1z"/>
  <path class="fil2" d="M32.24 16.72c12.28,0 22.24,9.97 22.24,22.25 0,0.95 -0.06,1.88 -0.17,2.8 -14.61,-1.59 -29.33,-1.64 -44.15,0 -0.11,-0.92 -0.17,-1.85 -0.17,-2.8 0,-12.28 9.96,-22.25 22.25,-22.25z"/>
  <path class="fil2" d="M28.22 68.05c5.26,0 9.53,4.27 9.53,9.53 0,0.41 -0.03,0.81 -0.07,1.2 -5.93,1.89 -12.22,1.99 -18.92,0 -0.05,-0.39 -0.07,-0.79 -0.07,-1.2 0,-5.26 4.26,-9.53 9.53,-9.53z"/>
  <path class="fil3" d="M37.25 78.42c-4.06,1.27 -8.3,1.66 -12.65,1.59 4.55,0.55 8.9,0.1 13.08,-1.23 0.04,-0.39 0.07,-0.79 0.07,-1.2 0,-1.99 -0.61,-3.85 -1.66,-5.38 0.88,2.06 1.37,4.13 1.16,6.22z"/>
  <path class="fil2" d="M38.43 68.05c5.26,0 9.53,4.27 9.53,9.53 0,0.41 -0.02,0.81 -0.07,1.2 -5.93,1.89 -12.21,1.99 -18.92,0 -0.05,-0.39 -0.07,-0.79 -0.07,-1.2 0,-5.26 4.27,-9.53 9.53,-9.53z"/>
  <path class="fil4" d="M18.76 78.78c1,-7.75 5.27,-11.11 12.49,-10.24 -0.95,-0.32 -1.97,-0.49 -3.03,-0.49 -2.63,0 -5.02,1.07 -6.74,2.79 -0.55,0.55 -1.04,1.17 -1.44,1.84 -0.15,0.26 -0.29,0.52 -0.42,0.78 -0.6,1.25 -0.93,2.65 -0.93,4.12 0,0.41 0.02,0.81 0.07,1.2z"/>
  <path class="fil5" d="M12.17 29.36c1.09,-2.28 2.56,-4.35 4.33,-6.12 -11.88,-0.67 -15.07,-9.63 -10.01,-23.24 -11.16,12.88 -7.05,26.37 5.68,29.36z"/>
  <path class="fil5" d="M52.31 29.36c-1.1,-2.28 -2.57,-4.35 -4.34,-6.12 11.88,-0.67 15.08,-9.63 10.01,-23.24 11.17,12.88 7.05,26.37 -5.67,29.36z"/>
  <line class="fil6 str0" x1="18.31" y1="43.91" x2="29.24" y2= "46.17" />
  <line class="fil6 str0" x1="45.12" y1="43.91" x2="34.19" y2= "46.17" />
  <path class="fil7 str0" d="M26.98 45.7l-3.44 -0.71c-0.25,0.29 -0.39,0.66 -0.39,1.05 0,0.96 0.86,1.74 1.93,1.74 1.07,0 1.94,-0.78 1.94,-1.74 0,-0.12 -0.02,-0.23 -0.04,-0.34z"/>
  <path class="fil7 str0" d="M36.45 45.7l3.45 -0.71c0.24,0.29 0.39,0.66 0.39,1.05 0,0.96 -0.87,1.74 -1.94,1.74 -1.07,0 -1.93,-0.78 -1.93,-1.74 0,-0.12 0.01,-0.23 0.03,-0.34z"/>
  <path class="fil7" d="M39.24 53.46c-3.86,1.09 -7.81,1.27 -11.82,0.7 3.94,-0.23 7.88,-0.47 11.82,-0.7z"/>
  <path class="fil8" d="M22.2 70.59c-2.18,0.76 -5.46,1.85 -6.93,0.07 -2.54,-3.1 -3.95,-7.93 -2.66,-11.72 0.87,-2.54 5.12,-3.79 7.59,-2.73 1.79,0.78 1.76,4.65 -0.47,5.16 3.03,-0.71 4.83,3.54 1.5,4.69 1.96,-0.75 3.82,3.53 0.97,4.53z"/>
  <path class="fil8" d="M43.99 56.93c2.17,-0.76 5.45,-1.85 6.92,-0.07 2.55,3.1 3.96,7.93 2.66,11.72 -0.86,2.54 -5.12,3.79 -7.59,2.73 -1.79,-0.77 -1.76,-4.65 0.47,-5.16 -3.03,0.71 -4.83,-3.54 -1.5,-4.69 -1.96,0.75 -3.82,-3.53 -0.96,-4.53z"/>
  <path class="fil0" d="M13.15 27.54c-7.04,-0.5 -8.88,-3.06 -11.31,-5.39 1.99,3.49 5.55,6.09 10.33,7.21 0.29,-0.62 0.62,-1.23 0.98,-1.82z"/>
  <path class="fil4" d="M59.56 15.87c-1.13,5.89 -4.72,8.62 -9.16,10.25 -0.73,-1.03 -1.54,-1.99 -2.43,-2.88 6.23,-0.35 10.07,-2.98 11.59,-7.37z"/>
  <path class="fil9" d="M22.77 56.36c-0.61,-0.31 -0.19,0.44 -0.07,0.63 2.79,1.83 6.05,2.88 9.54,2.88 9.54,0 17.42,-7.9 18.58,-18.1l-0.98 0c-1.13,4.56 -2.95,8.81 -5.79,12.06 -1.53,1.74 -3.72,2.84 -5.95,3.67 -1.71,0.64 -4.25,-0.41 -6.03,-0.37 -1.79,0.04 -3.36,0.13 -4.59,1.11 -1.63,-0.46 -3.22,-1.14 -4.71,-1.88z"/>
  <path class="fil4" d="M10.16 41.77c2.34,-18.09 12.3,-25.93 29.16,-23.89 -2.22,-0.75 -4.61,-1.16 -7.08,-1.16 -6.15,0 -11.71,2.49 -15.74,6.52 -1.28,1.29 -2.41,2.73 -3.35,4.3 -0.36,0.59 -0.69,1.2 -0.98,1.82 -1.4,2.91 -2.18,6.17 -2.18,9.61 0,0.95 0.06,1.88 0.17,2.8z"/>
  <path class="fil4" d="M28.97 78.78c1.01,-7.75 5.27,-11.11 12.5,-10.24 -0.96,-0.32 -1.98,-0.49 -3.04,-0.49 -2.63,0 -5.02,1.07 -6.74,2.79 -0.55,0.55 -1.04,1.17 -1.44,1.84 -0.15,0.26 -0.29,0.52 -0.42,0.78 -0.6,1.25 -0.93,2.65 -0.93,4.12 0,0.41 0.02,0.81 0.07,1.2z"/>
  <path class="fil3" d="M47.46 78.42c-4.06,1.27 -8.3,1.66 -12.65,1.59 4.55,0.55 8.9,0.1 13.08,-1.23 0.05,-0.39 0.07,-0.79 0.07,-1.2 0,-1.99 -0.61,-3.85 -1.66,-5.38 0.88,2.06 1.37,4.13 1.16,6.22z"/>
  <path class="fil9" d="M22.18 69.68c-1.72,1.32 -3.62,1.67 -5.69,1.78 1.44,0.44 3.4,-0.09 5,-0.63 0.24,-0.08 0.48,-0.16 0.71,-0.24 0.75,-0.26 1.17,-0.76 1.36,-1.32 0.5,-1.57 -0.84,-3.7 -2.26,-3.23 1.27,0.24 1.52,0.96 1.61,1.84 0.09,0.77 -0.2,1.39 -0.73,1.8zm-2.43 -8.31c1.99,-0.48 2.21,-3.65 0.93,-4.84 0.73,1.98 0.51,3.63 -0.95,4.84 3.59,0.08 3.54,3.81 1.57,4.67 3.23,-1.19 1.45,-5.36 -1.55,-4.67z"/>
  <path class="fil9" d="M52.21 69.03c-0.84,1.28 -2.63,1.8 -4.12,2.02 -0.86,0.13 -1.73,0.15 -2.61,-0.08 0.15,0.14 0.32,0.26 0.5,0.34 2.47,1.06 6.73,-0.19 7.59,-2.73 1.3,-3.79 -0.11,-8.62 -2.66,-11.72 2.48,5.13 2.52,10.31 1.3,12.17z"/>
 </g>
</svg>
