<?xml version="1.0" encoding="UTF-8"?>
<!DOCTYPE svg PUBLIC "-//W3C//DTD SVG 1.1//EN" "http://www.w3.org/Graphics/SVG/1.1/DTD/svg11.dtd">
<!-- Creator: CorelDRAW 2018 (64-Bit) -->
<svg xmlns="http://www.w3.org/2000/svg" xml:space="preserve" width="200px" height="249px" version="1.1" style="shape-rendering:geometricPrecision; text-rendering:geometricPrecision; image-rendering:optimizeQuality; fill-rule:evenodd; clip-rule:evenodd"
viewBox="0 0 377.19 469.41"
 xmlns:xlink="http://www.w3.org/1999/xlink">
 <defs>
  <style type="text/css">
   <![CDATA[
    .str0 {stroke:#2B2A29;stroke-width:1.72;stroke-miterlimit:22.9256}
    .fil6 {fill:none}
    .fil7 {fill:black}
    .fil0 {fill:#913A00}
    .fil3 {fill:#913A00}
    .fil9 {fill:#B09658}
    .fil2 {fill:#BA4A00}
    .fil5 {fill:#BA4A00}
    .fil4 {fill:#D66D27}
    .fil1 {fill:#FFBB61}
    .fil8 {fill:#FFD461}
   ]]>
  </style>
 </defs>
 <g id="Слой_x0020_1">
  <metadata id="CorelCorpID_0Corel-Layer"/>
  <path class="fil0" d="M188.41 98.06c-71.78,0 -129.97,58.19 -129.97,129.97 0,5.52 0.35,10.97 1.02,16.31 80.78,25.8 166.49,27.24 257.9,0 0.67,-5.34 1.02,-10.79 1.02,-16.31 0,-71.78 -58.19,-129.97 -129.97,-129.97z"/>
  <path class="fil1" d="M297.31 244.34l-0.73 -12.29 -216.42 0.37 -0.29 11.92c6.77,59.71 52.87,105.9 108.72,105.9 55.86,0 101.96,-46.19 108.72,-105.9z"/>
  <path class="fil2" d="M188.59 97.85c-71.88,0 -130.15,58.27 -130.15,130.15 0,5.54 0.35,10.99 1.02,16.34 85.49,-9.24 171.56,-9.56 258.27,0 0.67,-5.35 1.02,-10.8 1.02,-16.34 0,-71.88 -58.27,-130.15 -130.16,-130.15z"/>
  <path class="fil2" d="M212.1 398.11c-30.8,0 -55.76,24.97 -55.76,55.77 0,2.37 0.15,4.7 0.43,7 34.67,11.07 71.44,11.68 110.66,0 0.29,-2.3 0.43,-4.63 0.43,-7 0,-30.8 -24.96,-55.77 -55.76,-55.77z"/>
  <path class="fil3" d="M159.26 458.76c23.75,7.45 48.59,9.75 74.01,9.31 -26.63,3.22 -52.09,0.6 -76.5,-7.19 -0.28,-2.3 -0.43,-4.63 -0.43,-7 0,-11.68 3.59,-22.52 9.72,-31.47 -5.16,12.05 -8.01,24.15 -6.8,36.35z"/>
  <path class="fil2" d="M152.36 398.11c-30.8,0 -55.77,24.97 -55.77,55.77 0,2.37 0.15,4.7 0.44,7 34.66,11.07 71.44,11.68 110.65,0 0.29,-2.3 0.44,-4.63 0.44,-7 0,-30.8 -24.97,-55.77 -55.76,-55.77z"/>
  <path class="fil4" d="M267.43 460.88c-5.87,-45.34 -30.83,-64.98 -73.09,-59.88 5.58,-1.87 11.55,-2.89 17.76,-2.89 15.4,0 29.34,6.25 39.43,16.34 3.23,3.22 6.06,6.84 8.42,10.77 0.89,1.48 1.71,3.01 2.46,4.57 3.5,7.29 5.45,15.46 5.45,24.09 0,2.37 -0.14,4.7 -0.43,7z"/>
  <path class="fil5" d="M306.01 171.78c-6.4,-13.36 -15.02,-25.45 -25.38,-35.81 69.54,-3.95 88.22,-56.36 58.6,-135.97 65.3,75.34 41.23,154.27 -33.22,171.78z"/>
  <path class="fil5" d="M71.17 171.78c6.41,-13.36 15.03,-25.45 25.39,-35.81 -69.55,-3.95 -88.22,-56.36 -58.6,-135.97 -65.3,75.34 -41.23,154.27 33.21,171.78z"/>
  <line class="fil6 str0" x1="270.04" y1="256.89" x2="206.1" y2= "270.09" />
  <line class="fil6 str0" x1="113.22" y1="256.89" x2="177.16" y2= "270.09" />
  <path class="fil7 str0" d="M219.34 267.36l20.14 -4.16c1.44,1.71 2.29,3.84 2.29,6.15 0,5.64 -5.07,10.21 -11.32,10.21 -6.26,0 -11.33,-4.57 -11.33,-10.21 0,-0.68 0.08,-1.35 0.22,-1.99z"/>
  <path class="fil7 str0" d="M163.93 267.36l-20.14 -4.16c-1.44,1.71 -2.29,3.84 -2.29,6.15 0,5.64 5.07,10.21 11.32,10.21 6.25,0 11.32,-4.57 11.32,-10.21 0,-0.68 -0.07,-1.35 -0.21,-1.99z"/>
  <path class="fil7" d="M147.62 312.76c22.59,6.37 45.68,7.42 69.18,4.09 -23.06,-1.36 -46.12,-2.73 -69.18,-4.09z"/>
  <path class="fil8" d="M247.34 412.97c12.73,4.47 31.92,10.82 40.5,0.4 14.88,-18.1 23.14,-46.37 15.58,-68.55 -5.08,-14.88 -29.96,-22.19 -44.4,-15.96 -10.51,4.52 -10.33,27.21 2.72,30.18 -17.7,-4.17 -28.23,20.7 -8.76,27.45 -11.49,-4.42 -22.35,20.63 -5.64,26.48z"/>
  <path class="fil8" d="M119.84 333.07c-12.73,-4.46 -31.92,-10.81 -40.5,-0.39 -14.88,18.09 -23.14,46.37 -15.58,68.54 5.08,14.89 29.96,22.19 44.4,15.97 10.51,-4.53 10.33,-27.22 -2.73,-30.18 17.71,4.17 28.24,-20.71 8.77,-27.46 11.49,4.43 22.35,-20.63 5.64,-26.48z"/>
  <path class="fil0" d="M300.28 161.12c41.16,-2.95 51.93,-17.92 66.17,-31.52 -11.69,20.41 -32.52,35.62 -60.44,42.18 -1.75,-3.65 -3.66,-7.2 -5.73,-10.66z"/>
  <path class="fil4" d="M28.75 92.84c6.58,34.45 27.59,50.41 53.6,59.96 4.26,-6.01 9.02,-11.64 14.21,-16.83 -36.47,-2.07 -58.95,-17.47 -67.81,-43.13z"/>
  <path class="fil9" d="M243.96 329.7c3.61,-1.81 1.13,2.58 0.41,3.7 -16.34,10.7 -35.41,16.84 -55.78,16.84 -55.85,0 -101.95,-46.19 -108.72,-105.9l5.72 0c6.63,26.71 17.25,51.57 33.9,70.57 8.91,10.17 21.73,16.63 34.77,21.49 10.06,3.75 24.9,-2.38 35.31,-2.15 10.46,0.23 19.64,0.73 26.83,6.48 9.56,-2.69 18.88,-6.68 27.56,-11.03z"/>
  <path class="fil4" d="M317.73 244.34c-13.69,-105.82 -71.95,-151.66 -170.59,-139.75 13.02,-4.38 26.96,-6.74 41.45,-6.74 35.95,0 68.48,14.56 92.04,38.12 7.53,7.53 14.14,15.97 19.65,25.15 2.07,3.46 3.98,7.01 5.73,10.66 8.17,17.02 12.74,36.09 12.74,56.22 0,5.54 -0.35,10.99 -1.02,16.34z"/>
  <path class="fil4" d="M207.68 460.88c-5.86,-45.34 -30.82,-64.98 -73.08,-59.88 5.58,-1.87 11.55,-2.89 17.76,-2.89 15.4,0 29.34,6.25 39.43,16.34 3.22,3.22 6.06,6.84 8.42,10.77 0.88,1.48 1.71,3.01 2.46,4.57 3.49,7.29 5.45,15.46 5.45,24.09 0,2.37 -0.15,4.7 -0.44,7z"/>
  <path class="fil3" d="M99.52 458.76c23.75,7.45 48.58,9.75 74,9.31 -26.62,3.22 -52.08,0.6 -76.49,-7.19 -0.29,-2.3 -0.44,-4.63 -0.44,-7 0,-11.68 3.59,-22.52 9.73,-31.47 -5.16,12.05 -8.02,24.15 -6.8,36.35z"/>
  <path class="fil9" d="M247.44 407.67c10.02,7.69 21.17,9.74 33.26,10.37 -8.39,2.61 -19.86,-0.5 -29.21,-3.63 -1.44,-0.49 -2.83,-0.97 -4.15,-1.44 -4.41,-1.54 -6.9,-4.42 -7.97,-7.74 -2.92,-9.13 4.91,-21.61 13.22,-18.88 -7.44,1.41 -8.9,5.65 -9.45,10.75 -0.49,4.54 1.2,8.18 4.3,10.57zm14.19 -48.66c-11.65,-2.77 -12.93,-21.32 -5.43,-28.29 -4.24,11.61 -2.96,21.25 5.54,28.32 -20.96,0.49 -20.66,22.28 -9.16,27.31 -18.88,-6.94 -8.46,-31.34 9.05,-27.34z"/>
  <path class="fil9" d="M71.74 403.86c4.92,7.48 15.4,10.54 24.12,11.83 5.02,0.74 10.1,0.88 15.24,-0.47 -0.86,0.83 -1.84,1.5 -2.94,1.97 -14.44,6.22 -39.32,-1.08 -44.4,-15.97 -7.56,-22.17 0.7,-50.45 15.58,-68.54 -14.48,29.98 -14.76,60.29 -7.6,71.18z"/>
 </g>
</svg>
