<?xml version="1.0" encoding="UTF-8"?>
<!DOCTYPE svg PUBLIC "-//W3C//DTD SVG 1.1//EN" "http://www.w3.org/Graphics/SVG/1.1/DTD/svg11.dtd">
<!-- Creator: CorelDRAW 2018 (64-Bit) -->
<svg xmlns="http://www.w3.org/2000/svg" xml:space="preserve" width="147px" height="200px" version="1.1" style="shape-rendering:geometricPrecision; text-rendering:geometricPrecision; image-rendering:optimizeQuality; fill-rule:evenodd; clip-rule:evenodd"
viewBox="0 0 49.22 66.77"
 xmlns:xlink="http://www.w3.org/1999/xlink">
 <defs>
  <style type="text/css">
   <![CDATA[
    .str0 {stroke:black;stroke-width:0.33;stroke-miterlimit:22.9256}
    .str1 {stroke:#4D4D4D;stroke-width:0.33;stroke-miterlimit:22.9256}
    .fil4 {fill:none}
    .fil5 {fill:black}
    .fil8 {fill:#333333}
    .fil12 {fill:#333333}
    .fil11 {fill:#4D4D4D}
    .fil2 {fill:#4D4D4D}
    .fil7 {fill:#8C794D}
    .fil9 {fill:#99FFFF}
    .fil6 {fill:#B09658}
    .fil10 {fill:#B3B3B3}
    .fil1 {fill:#B3B3B3}
    .fil3 {fill:#CCCCCC}
    .fil0 {fill:#FFBB61}
   ]]>
  </style>
   <mask id="id0">
  <linearGradient id="id1" gradientUnits="userSpaceOnUse" x1="22.97" y1="49.92" x2="20.17" y2="14.39">
   <stop offset="0" style="stop-opacity:0; stop-color:white"/>
   <stop offset="1" style="stop-opacity:1; stop-color:white"/>
  </linearGradient>
    <rect style="fill:url(#id1)" x="5.36" y="14.22" width="35.69" height="28.54"/>
   </mask>
 </defs>
 <g id="Слой_x0020_1">
  <metadata id="CorelCorpID_0Corel-Layer"/>
  <path class="fil0" d="M3.52 23.42l0.14 -2.37 4.32 -3.97 28.44 -0.31 8.92 4.35 0.06 2.3c-1.3,11.5 -10.18,20.4 -20.94,20.4 -10.76,0 -19.64,-8.9 -20.94,-20.4z"/>
  <path class="fil1" d="M19.93 53.04c5.93,0 10.74,4.81 10.74,10.74 0,0.45 -0.03,0.9 -0.08,1.35 -6.68,2.13 -13.76,2.25 -21.31,0 -0.06,-0.45 -0.09,-0.9 -0.09,-1.35 0,-5.93 4.81,-10.74 10.74,-10.74z"/>
  <path class="fil2" d="M30.11 64.72c-4.57,1.43 -9.36,1.88 -14.25,1.79 5.12,0.62 10.03,0.12 14.73,-1.38 0.05,-0.45 0.08,-0.9 0.08,-1.35 0,-2.25 -0.69,-4.34 -1.87,-6.06 0.99,2.32 1.54,4.65 1.31,7z"/>
  <path class="fil1" d="M31.44 53.04c5.93,0 10.74,4.81 10.74,10.74 0,0.45 -0.03,0.9 -0.08,1.35 -6.68,2.13 -13.76,2.25 -21.32,0 -0.05,-0.45 -0.08,-0.9 -0.08,-1.35 0,-5.93 4.81,-10.74 10.74,-10.74z"/>
  <path class="fil3" d="M9.28 65.13c1.13,-8.74 5.93,-12.52 14.07,-11.54 -1.07,-0.36 -2.22,-0.55 -3.42,-0.55 -2.96,0 -5.65,1.2 -7.59,3.14 -0.62,0.62 -1.17,1.32 -1.62,2.08 -0.17,0.28 -0.33,0.58 -0.48,0.88 -0.67,1.4 -1.05,2.98 -1.05,4.64 0,0.45 0.03,0.9 0.09,1.35z"/>
  <line class="fil4 str0" x1="8.77" y1="25.84" x2="21.09" y2= "28.38" />
  <line class="fil4 str0" x1="38.98" y1="25.84" x2="26.66" y2= "28.38" />
  <path class="fil5 str0" d="M18.54 27.85l-3.88 -0.8c-0.28,0.33 -0.44,0.74 -0.44,1.19 0,1.08 0.97,1.96 2.18,1.96 1.2,0 2.18,-0.88 2.18,-1.96 0,-0.13 -0.01,-0.26 -0.04,-0.39z"/>
  <path class="fil5 str0" d="M29.21 27.85l3.88 -0.8c0.28,0.33 0.44,0.74 0.44,1.19 0,1.08 -0.97,1.96 -2.18,1.96 -1.2,0 -2.18,-0.88 -2.18,-1.96 0,-0.13 0.01,-0.26 0.04,-0.39z"/>
  <path class="fil5" d="M32.35 36.6c-4.35,1.22 -8.8,1.43 -13.32,0.79 4.44,-0.27 8.88,-0.53 13.32,-0.79z"/>
  <path class="fil6" d="M13.8 39.86c-0.7,-0.35 -0.22,0.5 -0.08,0.71 3.14,2.06 6.82,3.25 10.74,3.25 10.76,0 19.64,-8.9 20.94,-20.4l-1.1 0c-1.28,5.14 -3.32,9.93 -6.53,13.59 -1.72,1.96 -4.18,3.2 -6.7,4.14 -1.93,0.72 -4.79,-0.46 -6.8,-0.41 -2.01,0.04 -3.78,0.14 -5.16,1.25 -1.85,-0.52 -3.64,-1.29 -5.31,-2.13z"/>
  <path class="fil3" d="M20.78 65.13c1.13,-8.74 5.94,-12.52 14.08,-11.54 -1.07,-0.36 -2.22,-0.55 -3.42,-0.55 -2.97,0 -5.65,1.2 -7.6,3.14 -0.62,0.62 -1.16,1.32 -1.62,2.08 -0.17,0.28 -0.33,0.58 -0.47,0.88 -0.67,1.4 -1.05,2.98 -1.05,4.64 0,0.45 0.03,0.9 0.08,1.35z"/>
  <path class="fil2" d="M41.62 64.72c-4.58,1.43 -9.36,1.88 -14.26,1.79 5.13,0.62 10.03,0.12 14.74,-1.38 0.05,-0.45 0.08,-0.9 0.08,-1.35 0,-2.25 -0.69,-4.34 -1.87,-6.06 0.99,2.32 1.54,4.65 1.31,7z"/>
  <path class="fil7" d="M3.53 23.31l0.13 -2.26 4.32 -3.97 28.44 -0.31 8.92 4.35 0.06 2.3c-0.09,0.81 -0.22,1.6 -0.39,2.39l-0.71 -0.73 -0.49 0.51 -1.27 -0.97 -0.48 0.66 -0.83 -1.49 -0.53 1.62 -4.86 -2.65 0 0.72 -1.58 -1.27 -0.05 2.77 -2.63 -3.6 -2.89 2.72 -0.96 -2.15 -2.59 2.59 -0.22 -2.46 -3.72 2.54 0.04 -2.32 -2.54 1.49 0.17 -1.75 -3.2 2.41 0.05 -2.72 -4.25 2.54 0.44 -2.28 -3.38 2.33 0.22 -2.59 -3.16 2.5 0.27 -2.04 -1.34 1.25 0.09 -1.36 -1.08 1.23z"/>
  <polygon class="fil8" points="47.43,25.26 46.09,22.26 45.92,25.9 44.3,24.25 43.81,24.76 42.54,23.8 42.06,24.45 41.23,22.96 40.7,24.59 35.84,21.94 35.84,22.66 34.26,21.39 34.21,24.15 31.58,20.55 28.69,23.27 27.73,21.12 25.14,23.71 24.92,21.25 21.2,23.8 21.24,21.47 18.7,22.96 18.87,21.21 15.67,23.62 15.72,20.9 11.47,23.45 11.91,21.17 8.53,23.49 8.75,20.9 5.59,23.4 5.86,21.36 4.52,22.61 4.61,21.25 1.89,24.34 3.34,20.4 0.95,21.36 4.04,16.54 0.14,16.43 4.48,13.5 2.46,13.26 8.6,8.96 6.49,8.79 15.78,3.7 11.75,3.18 20.87,1.86 20.43,0.46 28.58,2.65 28.67,0.98 34.45,4.32 37.96,4.67 37.61,5.89 43.13,8.61 41.12,8.87 43.74,12.55 42.61,12.29 47.43,17.55 45.41,17.29 47.95,21.85 46.29,21.06 "/>
  <path class="fil9" style="mask:url(#id0)" d="M22.27 14.42c-5.65,-0.26 -11.86,1.01 -16.74,2.89 1.28,8.98 4.27,17.43 9.29,25.25 5.47,0.01 10.94,0.02 16.42,0.03 2.52,-8.44 5.83,-16.25 9.64,-23.64 -5.37,-2.48 -12.23,-4.23 -18.61,-4.53z"/>
  <path class="fil10" d="M12.45 45.19c-2.19,-2.92 -3.97,-4.53 -6.17,-8.86 -2.21,-4.33 -6.49,-12.26 -6.27,-17.88 0.22,-5.62 2.98,-9.59 6.92,-13.06 3.94,-3.47 9.6,-5.33 15.74,-5.39 6.13,-0.06 13.12,2.11 18.14,6.01 5.02,3.89 7.4,8.6 7.71,14.06 0.32,5.47 -2.18,10.54 -4.95,15.04 -2.76,4.49 -6.56,8.24 -9.54,11.3 -2.98,3.07 -4.9,4.51 -7.33,5.44 -2.43,0.93 -4.77,1.11 -7.16,-0.35 -2.39,-1.45 -4.89,-3.39 -7.09,-6.31zm9.82 -30.77c-5.65,-0.26 -11.86,1.01 -16.74,2.89 1.08,7.6 3.25,14.89 7.11,21.58 0.96,1.67 4.12,3.67 5.42,3.67 4.39,0.01 8.78,0.02 13.18,0.03 2.52,-8.44 5.83,-16.25 9.64,-23.64 -5.37,-2.48 -12.23,-4.23 -18.61,-4.53z"/>
  <polygon class="fil11" points="16.35,38.65 19.57,33.03 23.15,33.26 27.95,39.31 23.99,47.81 21.23,47.7 "/>
  <ellipse class="fil8" transform="matrix(-0.698672 0.358003 -0.329167 -0.929571 15.6656 41.6129)" rx="4.78" ry="7.67"/>
  <ellipse class="fil2" transform="matrix(-0.698672 0.358003 -0.329167 -0.929571 14.8398 41.6756)" rx="4.78" ry="7.67"/>
  <path class="fil1 str1" d="M13.15 55.9c-2.46,0.86 -6.15,2.08 -7.8,0.07 -2.87,-3.48 -4.46,-8.93 -3.01,-13.2 0.98,-2.86 5.77,-4.27 8.56,-3.07 2.02,0.87 1.99,5.24 -0.53,5.81 3.41,-0.8 5.44,3.99 1.69,5.29 2.21,-0.85 4.3,3.97 1.09,5.1z"/>
  <path class="fil2" d="M13.13 54.88c-1.93,1.48 -4.08,1.87 -6.41,2 1.62,0.5 3.82,-0.1 5.63,-0.71 0.27,-0.09 0.54,-0.18 0.8,-0.27 0.85,-0.3 1.32,-0.85 1.53,-1.49 0.56,-1.76 -0.94,-4.16 -2.55,-3.64 1.44,0.27 1.72,1.09 1.82,2.07 0.1,0.88 -0.23,1.58 -0.82,2.04zm-2.74 -9.38c2.25,-0.53 2.49,-4.1 1.05,-5.44 0.82,2.23 0.57,4.09 -1.07,5.45 4.04,0.1 3.98,4.29 1.77,5.26 3.63,-1.33 1.63,-6.04 -1.75,-5.27z"/>
  <path class="fil1 str1" d="M37.7 40.51c2.46,-0.86 6.15,-2.08 7.8,-0.08 2.87,3.49 4.46,8.93 3,13.21 -0.97,2.86 -5.77,4.27 -8.55,3.07 -2.02,-0.87 -1.99,-5.24 0.53,-5.81 -3.41,0.8 -5.44,-3.99 -1.69,-5.29 -2.21,0.85 -4.31,-3.97 -1.09,-5.1z"/>
  <path class="fil2" d="M46.97 54.14c-0.95,1.44 -2.97,2.03 -4.65,2.28 -0.97,0.15 -1.94,0.17 -2.93,-0.09 0.16,0.16 0.35,0.29 0.56,0.38 2.78,1.2 7.58,-0.21 8.55,-3.07 1.46,-4.28 -0.13,-9.72 -3,-13.21 2.79,5.78 2.85,11.62 1.47,13.71z"/>
  <polygon class="fil12" points="23.91,38.74 23.02,34.67 23.28,39.38 25.97,39.25 "/>
  <polygon class="fil12" points="19.51,38.79 19.73,34.71 19.97,39.11 18.69,39.42 "/>
  <polygon class="fil12" points="20.54,42.86 19.33,42.93 20.78,42.07 21.72,46.83 "/>
  <polygon class="fil12" points="25.29,42.09 22.86,41.79 23.02,47.07 23.48,42.57 "/>
  <ellipse class="fil2" transform="matrix(0.939688 0.342032 -0.342032 0.939688 29.3899 41.4787)" rx="4.78" ry="7.67"/>
  <ellipse class="fil8" transform="matrix(0.939688 0.342032 -0.342032 0.939688 30.2181 41.4787)" rx="4.78" ry="7.67"/>
 </g>
</svg>
