<?xml version="1.0" encoding="UTF-8"?>
<!DOCTYPE svg PUBLIC "-//W3C//DTD SVG 1.1//EN" "http://www.w3.org/Graphics/SVG/1.1/DTD/svg11.dtd">
<!-- Creator: CorelDRAW 2018 (64-Bit) -->
<svg xmlns="http://www.w3.org/2000/svg" xml:space="preserve" width="165px" height="200px" version="1.1" style="shape-rendering:geometricPrecision; text-rendering:geometricPrecision; image-rendering:optimizeQuality; fill-rule:evenodd; clip-rule:evenodd"
viewBox="0 0 735.25 890.08"
 xmlns:xlink="http://www.w3.org/1999/xlink">
 <defs>
  <style type="text/css">
   <![CDATA[
    .str0 {stroke:black;stroke-width:4.36;stroke-miterlimit:22.9256}
    .str1 {stroke:#9A1900;stroke-width:4.36;stroke-miterlimit:22.9256}
    .fil4 {fill:none}
    .fil5 {fill:black}
    .fil11 {fill:#333333}
    .fil2 {fill:#913A00}
    .fil10 {fill:#9A0019}
    .fil8 {fill:#9A1900}
    .fil9 {fill:#9A1900}
    .fil1 {fill:#BA4A00}
    .fil3 {fill:#D66D27}
    .fil0 {fill:#FE2A00}
    .fil7 {fill:#FE2A00}
    .fil6 {fill:white}
   ]]>
  </style>
 </defs>
 <g id="Слой_x0020_1">
  <metadata id="CorelCorpID_0Corel-Layer"/>
  <path class="fil0" d="M149.85 372.92l1.87 -31.17 56.93 -52.4 374.67 -4.01 117.58 57.34 0.73 30.24c-17.17,151.52 -134.14,268.74 -275.89,268.74 -141.74,0 -258.71,-117.22 -275.89,-268.74z"/>
  <path class="fil1" d="M370.13 709.14c78.15,0 141.5,63.36 141.5,141.51 0,6.02 -0.38,11.95 -1.1,17.77 -87.96,28.09 -181.28,29.65 -280.8,0 -0.73,-5.82 -1.11,-11.75 -1.11,-17.77 0,-78.15 63.35,-141.51 141.51,-141.51z"/>
  <path class="fil2" d="M504.21 863.05c-60.27,18.89 -123.29,24.74 -187.79,23.61 67.55,8.17 132.16,1.54 194.11,-18.24 0.72,-5.82 1.1,-11.75 1.1,-17.77 0,-29.63 -9.1,-57.13 -24.67,-79.86 13.09,30.58 20.34,61.3 17.25,92.26z"/>
  <path class="fil1" d="M521.73 709.14c78.16,0 141.51,63.36 141.51,141.51 0,6.02 -0.38,11.95 -1.11,17.77 -87.96,28.09 -181.28,29.65 -280.8,0 -0.73,-5.82 -1.11,-11.75 -1.11,-17.77 0,-78.15 63.36,-141.51 141.51,-141.51z"/>
  <path class="fil3" d="M229.73 868.42c14.88,-115.05 78.22,-164.89 185.46,-151.95 -14.15,-4.75 -29.31,-7.33 -45.07,-7.33 -39.07,0 -74.45,15.84 -100.05,41.45 -8.19,8.19 -15.38,17.37 -21.37,27.35 -2.25,3.76 -4.33,7.62 -6.24,11.59 -8.87,18.5 -13.84,39.23 -13.84,61.12 0,6.02 0.38,11.95 1.11,17.77z"/>
  <line class="fil4 str0" x1="219.05" y1="404.78" x2="381.31" y2= "438.27" />
  <line class="fil4 str0" x1="617" y1="404.78" x2="454.75" y2= "438.27" />
  <path class="fil5 str0" d="M355.54 432.95l-100.02 -20.64c-7.13,8.49 -11.36,19.08 -11.36,30.55 0,27.99 25.17,50.68 56.23,50.68 31.05,0 56.22,-22.69 56.22,-50.68 0,-3.39 -0.37,-6.71 -1.07,-9.91z"/>
  <path class="fil5 str0" d="M481.71 432.7l96.89 -20c6.9,8.23 11.01,18.48 11.01,29.6 0,27.11 -24.39,49.09 -54.47,49.09 -30.09,0 -54.47,-21.98 -54.47,-49.09 0,-3.29 0.36,-6.49 1.04,-9.6z"/>
  <path class="fil6 str0" d="M515.56 552.02c-52.67,42.35 -125.37,61.63 -161.39,4.91 7.32,-21.74 25.61,-33.66 46.5,-34.89 37.62,-2.22 78.71,11.71 114.89,29.98z"/>
  <path class="fil5" d="M515.56 552.02c-11.21,9.01 -23.33,16.98 -35.8,23.39l-109.67 0c-5.85,-4.94 -11.2,-11.05 -15.92,-18.48 2.36,-6.99 5.85,-12.97 10.19,-17.9l122.56 0c9.78,3.91 19.37,8.31 28.64,12.99z"/>
  <path class="fil7" d="M149.55 219.11c-32.33,11.33 -81.01,27.45 -102.78,0.99 -37.78,-45.91 -58.72,-117.66 -39.53,-173.93 12.88,-37.77 76.02,-56.32 112.66,-40.52 26.66,11.49 26.22,69.07 -6.92,76.59 44.92,-10.58 71.66,52.54 22.24,69.67 29.16,-11.22 56.72,52.34 14.33,67.2z"/>
  <path class="fil8" d="M285.25 589.53c-9.17,-4.59 -2.87,6.55 -1.06,9.39 41.47,27.15 89.86,42.74 141.55,42.74 141.75,0 258.72,-117.22 275.89,-268.74l-14.5 0c-16.84,67.78 -43.78,130.86 -86.03,179.08 -22.62,25.81 -55.13,42.21 -88.24,54.54 -25.51,9.5 -63.17,-6.03 -89.61,-5.46 -26.53,0.57 -49.82,1.85 -68.06,16.45 -24.26,-6.84 -47.91,-16.96 -69.94,-28z"/>
  <path class="fil3" d="M381.33 868.42c14.89,-115.05 78.22,-164.89 185.47,-151.95 -14.16,-4.75 -29.31,-7.33 -45.07,-7.33 -39.07,0 -74.45,15.84 -100.06,41.45 -8.18,8.19 -15.37,17.37 -21.36,27.35 -2.25,3.76 -4.34,7.62 -6.24,11.59 -8.88,18.5 -13.85,39.23 -13.85,61.12 0,6.02 0.38,11.95 1.11,17.77z"/>
  <path class="fil2" d="M655.82 863.05c-60.27,18.89 -123.29,24.74 -187.8,23.61 67.56,8.17 132.17,1.54 194.11,-18.24 0.73,-5.82 1.11,-11.75 1.11,-17.77 0,-29.63 -9.11,-57.13 -24.67,-79.86 13.08,30.58 20.33,61.3 17.25,92.26z"/>
  <path class="fil9" d="M149.27 205.64c-25.43,19.53 -53.71,24.72 -84.39,26.34 21.28,6.61 50.39,-1.29 74.12,-9.24 3.66,-1.23 7.19,-2.45 10.55,-3.63 11.18,-3.92 17.49,-11.23 20.2,-19.66 7.42,-23.17 -12.44,-54.82 -33.55,-47.89 18.89,3.56 22.6,14.32 23.99,27.26 1.24,11.52 -3.05,20.78 -10.92,26.82zm-35.99 -123.47c29.56,-7.02 32.8,-54.1 13.78,-71.8 10.76,29.47 7.5,53.94 -14.08,71.87 53.21,1.25 52.45,56.55 23.25,69.31 47.93,-17.6 21.48,-79.54 -22.95,-69.38z"/>
  <path class="fil10" d="M149.94 371.53l1.78 -29.78 56.93 -52.4 374.67 -4.01 117.58 57.34 0.73 30.24c-1.21,10.67 -2.93,21.15 -5.1,31.44l-9.4 -9.61 -6.43 6.76 -16.75 -12.71 -6.35 8.67 -10.97 -19.64 -6.93 21.37 -64.08 -34.91 -0.01 9.5 -20.79 -16.74 -0.58 36.37 -34.64 -47.34 -38.11 35.79 -12.7 -28.29 -34.07 34.07 -2.89 -32.34 -49.08 33.49 0.58 -30.6 -33.49 19.63 2.31 -23.09 -42.16 31.75 0.58 -35.79 -56.01 33.49 5.78 -30.03 -44.46 30.6 2.88 -34.06 -41.57 32.91 3.46 -26.85 -17.61 16.46 1.15 -17.91 -14.25 16.22z"/>
  <polygon class="fil11" points="728.32,397.23 710.72,357.68 708.41,405.61 687.13,383.84 680.7,390.6 663.95,377.89 657.6,386.55 646.63,366.92 639.7,388.29 575.62,353.38 575.61,362.88 554.82,346.13 554.24,382.51 519.6,335.16 481.49,370.96 468.79,342.67 434.72,376.74 431.83,344.4 382.75,377.89 383.33,347.29 349.84,366.92 352.15,343.83 309.99,375.58 310.57,339.78 254.56,373.27 260.34,343.25 215.88,373.85 218.76,339.78 177.19,372.7 180.65,345.85 163.04,362.3 164.19,344.4 128.4,385.11 147.45,333.14 115.98,345.85 156.69,282.33 105.3,280.89 162.46,242.2 135.9,239.02 216.73,182.43 189.01,180.13 311.43,113.14 258.3,106.22 378.41,88.89 372.63,70.42 480.03,99.29 481.19,77.35 557.4,121.23 603.6,125.85 598.98,142.02 671.73,177.81 645.17,181.28 679.82,229.78 664.81,226.32 728.32,295.61 701.76,292.14 735.25,352.2 713.31,341.8 "/>
  <path class="fil7 str1" d="M570.01 500.05c32.32,-11.33 81.01,-27.45 102.77,-0.99 37.78,45.91 58.72,117.66 39.54,173.93 -12.88,37.77 -76.02,56.32 -112.67,40.52 -26.65,-11.49 -26.22,-69.07 6.92,-76.59 -44.92,10.58 -71.65,-52.54 -22.23,-69.67 -29.16,11.22 -56.73,-52.34 -14.33,-67.2z"/>
  <path class="fil9" d="M692.08 679.68c-12.49,18.99 -39.09,26.76 -61.21,30.03 -12.75,1.89 -25.64,2.23 -38.67,-1.19 2.18,2.09 4.67,3.79 7.45,4.99 36.65,15.8 99.79,-2.75 112.67,-40.52 19.18,-56.27 -1.76,-128.02 -39.54,-173.93 36.75,76.09 37.46,153 19.3,180.62z"/>
 </g>
</svg>
