<svg width="112" height="15" viewBox="0 0 112 15" fill="none" xmlns="http://www.w3.org/2000/svg">
<g clip-path="url(#clip0)">
<path d="M3.41116 1.82919L3.41116 9.96943C3.41116 12.4389 5.47949 12.4389 5.47949 9.96943L5.47949 1.82919C5.42778 -0.640328 3.41116 -0.640328 3.41116 1.82919Z" fill="#D3E8F3"/>
<path d="M10.1851 4.20736L10.1851 11.1586C10.1851 13.6281 12.2534 13.6281 12.2534 11.1586L12.2534 4.20736C12.2534 1.73785 10.1851 1.73785 10.1851 4.20736Z" fill="#D3E8F3"/>
<path d="M18.9239 5.94526L18.3034 10.6099C17.9931 12.988 19.9581 14.0855 20.2683 11.616C20.4751 10.0611 20.682 8.50624 20.8888 6.95136C21.2508 4.57331 19.2341 3.47575 18.9239 5.94526Z" fill="#D3E8F3"/>
<path d="M26.9388 4.84757C25.8529 6.40245 25.1806 8.59758 25.1806 11.1586C25.1806 13.6281 27.249 13.6281 27.249 11.1586C27.249 10.061 27.5076 8.87197 27.9729 8.23172C28.4383 7.59148 28.6452 6.58538 28.3349 5.57928C28.1281 4.75611 27.4041 4.20733 26.9388 4.84757Z" fill="#D3E8F3"/>
<path d="M33.8679 3.10965C33.0923 6.21941 32.8855 9.42063 33.2991 12.8048C33.6094 15.2743 35.5744 14.1767 35.2641 11.7987C35.0056 9.51209 35.109 7.22551 35.6261 5.12185C36.2466 2.83526 34.4367 0.914526 33.8679 3.10965Z" fill="#D3E8F3"/>
<path d="M41.2108 4.75601C41.0039 7.0426 40.7971 9.42065 40.5902 11.7072C40.3834 14.1768 42.3483 15.1829 42.5552 12.7133C42.762 10.4268 42.9689 8.0487 43.1757 5.76211C43.3825 3.38406 41.4176 2.37796 41.2108 4.75601Z" fill="#D3E8F3"/>
<path d="M50.208 4.93905L50.208 13.1708C50.208 15.6403 52.2764 15.6403 52.2764 13.1708L52.2764 4.93905C52.2764 2.46954 50.208 2.46954 50.208 4.93905Z" fill="#D3E8F3"/>
<path d="M57.6023 4.939C57.5506 7.04266 57.7574 9.14632 58.1711 11.1585C58.3779 12.1646 58.8433 12.8049 59.4121 12.5305C59.8775 12.2561 60.3428 11.1585 60.136 10.1524C59.774 8.50608 59.5672 6.76827 59.6189 5.03047C59.7223 2.46949 57.654 2.46949 57.6023 4.939Z" fill="#D3E8F3"/>
<path d="M66.7029 4.39029C66.3926 6.76834 66.2892 9.14639 66.3926 11.6159C66.4961 14.0854 68.5644 14.0854 68.461 11.6159C68.3576 9.51225 68.4093 7.50005 68.6678 5.39639C68.9781 3.01834 66.9614 2.01224 66.7029 4.39029Z" fill="#D3E8F3"/>
<path d="M74.3558 6.9513C73.9938 8.78057 73.9938 10.7013 74.1489 12.622C74.2524 13.6281 74.9246 14.2684 75.3899 13.994C75.9587 13.7196 76.1656 12.622 76.1139 11.6159C76.0104 10.3355 76.1139 9.14643 76.3207 7.9574C76.4758 6.9513 76.1139 5.85374 75.5968 5.57935C75.028 5.30496 74.5109 5.94521 74.3558 6.9513Z" fill="#D3E8F3"/>
<path d="M82.3194 2.37804C82.0608 4.93902 81.9057 7.49999 82.0091 10.061C82.1125 12.5305 84.1292 12.5305 84.0775 10.061C84.0257 7.77438 84.0775 5.57926 84.336 3.38414C84.5945 0.914623 82.6296 -0.0914754 82.3194 2.37804Z" fill="#D3E8F3"/>
<path d="M89.8688 2.92671C89.4035 5.12183 89.2483 7.31696 89.662 9.60354C90.0757 11.9816 92.0923 10.9755 91.6269 8.59744C91.4201 7.40842 91.3684 6.12793 91.6269 4.84744C91.8338 3.93281 91.7821 2.74378 91.265 2.195C90.8513 1.73768 90.0757 1.92061 89.8688 2.92671Z" fill="#D3E8F3"/>
<path d="M97.6768 4.39029C97.47 5.76224 97.2631 7.1342 97.108 8.50615C96.746 10.8842 98.7627 11.9818 99.0729 9.51225C99.2798 8.14029 99.4866 6.76834 99.6417 5.39639C100.004 3.01834 97.9871 2.01224 97.6768 4.39029Z" fill="#D3E8F3"/>
<path d="M103.985 4.93905L103.985 9.60369C103.985 12.0732 106.053 12.0732 106.053 9.60369L106.053 4.93905C106.053 2.46954 103.985 2.46954 103.985 4.93905Z" fill="#D3E8F3"/>
<path d="M109.621 4.39022C109.465 6.49388 109.569 8.59754 109.827 10.6097C110.189 12.9878 112.258 11.9817 111.947 9.60363C111.741 7.86583 111.689 6.12802 111.792 4.39022C111.896 3.38412 111.275 2.46948 110.706 2.46948C110.086 2.46948 109.724 3.38412 109.621 4.39022Z" fill="#D3E8F3"/>
</g>
<defs>
<clipPath id="clip0">
<rect width="15" height="112" fill="white" transform="translate(112) rotate(90)"/>
</clipPath>
</defs>
</svg>
