<svg width="736" height="18" viewBox="0 0 736 18" fill="none" xmlns="http://www.w3.org/2000/svg">
<g clip-path="url(#clip0)">
<path d="M7.28865 2.19522L7.28865 11.9635C7.28865 14.9269 11.7079 14.9269 11.7079 11.9635L11.7079 2.19522C11.5974 -0.768198 7.28865 -0.768198 7.28865 2.19522Z" fill="#D3E8F3"/>
<path d="M21.7619 5.04873L21.7619 13.3902C21.7619 16.3536 26.1812 16.3536 26.1812 13.3902L26.1812 5.04873C26.1812 2.08532 21.7619 2.08532 21.7619 5.04873Z" fill="#D3E8F3"/>
<path d="M40.4331 7.13422L39.1073 12.7318C38.4444 15.5854 42.6427 16.9025 43.3056 13.9391C43.7475 12.0732 44.1895 10.2074 44.6314 8.34154C45.4048 5.48788 41.096 4.1708 40.4331 7.13422Z" fill="#D3E8F3"/>
<path d="M57.5578 5.81714C55.2377 7.68299 53.8014 10.3171 53.8014 13.3903C53.8014 16.3537 58.2207 16.3537 58.2207 13.3903C58.2207 12.0732 58.7731 10.6464 59.7674 9.87812C60.7618 9.10982 61.2037 7.9025 60.5408 6.69519C60.0989 5.70738 58.5521 5.04884 57.5578 5.81714Z" fill="#D3E8F3"/>
<path d="M72.3623 3.73168C70.7051 7.46339 70.2632 11.3049 71.147 15.3658C71.8099 18.3292 76.0083 17.0122 75.3454 14.1585C74.793 11.4146 75.0139 8.67071 76.1188 6.14631C77.4446 3.40241 73.5776 1.09753 72.3623 3.73168Z" fill="#D3E8F3"/>
<path d="M88.0509 5.70731C87.6089 8.45122 87.167 11.3049 86.7251 14.0488C86.2831 17.0122 90.4814 18.2195 90.9234 15.2561C91.3653 12.5122 91.8072 9.65854 92.2491 6.91463C92.6911 4.06097 88.4928 2.85365 88.0509 5.70731Z" fill="#D3E8F3"/>
<path d="M107.275 5.92691L107.275 15.805C107.275 18.7684 111.694 18.7684 111.694 15.805L111.694 5.92691C111.694 2.96349 107.275 2.96349 107.275 5.92691Z" fill="#D3E8F3"/>
<path d="M123.074 5.9268C122.963 8.4512 123.405 10.9756 124.289 13.3902C124.731 14.5975 125.725 15.3658 126.94 15.0366C127.935 14.7073 128.929 13.3902 128.487 12.1829C127.714 10.2073 127.272 8.12193 127.382 6.03656C127.603 2.96339 123.184 2.96339 123.074 5.9268Z" fill="#D3E8F3"/>
<path d="M142.518 5.26835C141.855 8.12201 141.634 10.9757 141.855 13.9391C142.076 16.9025 146.496 16.9025 146.275 13.9391C146.054 11.4147 146.164 9.00006 146.717 6.47567C147.38 3.62201 143.071 2.41469 142.518 5.26835Z" fill="#D3E8F3"/>
<path d="M158.87 8.34147C158.096 10.5366 158.096 12.8415 158.428 15.1464C158.649 16.3537 160.085 17.122 161.079 16.7927C162.295 16.4634 162.737 15.1464 162.626 13.939C162.405 12.4024 162.626 10.9756 163.068 9.54879C163.4 8.34147 162.626 7.02439 161.521 6.69513C160.306 6.36586 159.201 7.13415 158.87 8.34147Z" fill="#D3E8F3"/>
<path d="M175.884 2.85374C175.332 5.92692 175 9.00009 175.221 12.0733C175.442 15.0367 179.751 15.0367 179.641 12.0733C179.53 9.32936 179.641 6.69521 180.193 4.06106C180.745 1.09765 176.547 -0.109673 175.884 2.85374Z" fill="#D3E8F3"/>
<path d="M192.014 3.5121C191.02 6.14625 190.689 8.7804 191.572 11.5243C192.456 14.378 196.765 13.1706 195.771 10.317C195.329 8.89015 195.218 7.35357 195.771 5.81698C196.213 4.71942 196.102 3.29259 194.997 2.63405C194.114 2.08527 192.456 2.30478 192.014 3.5121Z" fill="#D3E8F3"/>
<path d="M208.697 5.26835C208.255 6.91469 207.813 8.56103 207.482 10.2074C206.708 13.061 211.017 14.3781 211.68 11.4147C212.122 9.76835 212.564 8.12201 212.895 6.47567C213.669 3.62201 209.36 2.41469 208.697 5.26835Z" fill="#D3E8F3"/>
<path d="M222.176 5.92691L222.176 11.5245C222.176 14.4879 226.595 14.4879 226.595 11.5245L226.595 5.92691C226.595 2.96349 222.176 2.96349 222.176 5.92691Z" fill="#D3E8F3"/>
<path d="M234.217 5.26826C233.885 7.79265 234.106 10.317 234.659 12.7317C235.432 15.5853 239.851 14.378 239.189 11.5244C238.747 9.43899 238.636 7.35363 238.857 5.26826C239.078 4.06094 237.752 2.96338 236.537 2.96338C235.211 2.96338 234.438 4.06094 234.217 5.26826Z" fill="#D3E8F3"/>
</g>
<g clip-path="url(#clip1)">
<path d="M256.644 2.19522L256.644 11.9635C256.644 14.9269 261.063 14.9269 261.063 11.9635L261.063 2.19522C260.953 -0.768198 256.644 -0.768198 256.644 2.19522Z" fill="#D3E8F3"/>
<path d="M271.117 5.04873L271.117 13.3902C271.117 16.3536 275.536 16.3536 275.536 13.3902L275.536 5.04873C275.536 2.08532 271.117 2.08532 271.117 5.04873Z" fill="#D3E8F3"/>
<path d="M289.788 7.13422L288.463 12.7318C287.8 15.5854 291.998 16.9025 292.661 13.9391C293.103 12.0732 293.545 10.2074 293.987 8.34154C294.76 5.48788 290.451 4.1708 289.788 7.13422Z" fill="#D3E8F3"/>
<path d="M306.913 5.81714C304.593 7.68299 303.157 10.3171 303.157 13.3903C303.157 16.3537 307.576 16.3537 307.576 13.3903C307.576 12.0732 308.128 10.6464 309.123 9.87812C310.117 9.10982 310.559 7.9025 309.896 6.69519C309.454 5.70738 307.907 5.04884 306.913 5.81714Z" fill="#D3E8F3"/>
<path d="M321.718 3.73168C320.06 7.46339 319.618 11.3049 320.502 15.3658C321.165 18.3292 325.364 17.0122 324.701 14.1585C324.148 11.4146 324.369 8.67071 325.474 6.14631C326.8 3.40241 322.933 1.09753 321.718 3.73168Z" fill="#D3E8F3"/>
<path d="M337.406 5.70731C336.964 8.45122 336.522 11.3049 336.08 14.0488C335.638 17.0122 339.837 18.2195 340.279 15.2561C340.721 12.5122 341.162 9.65854 341.604 6.91463C342.046 4.06097 337.848 2.85365 337.406 5.70731Z" fill="#D3E8F3"/>
<path d="M356.63 5.92691L356.63 15.805C356.63 18.7684 361.049 18.7684 361.049 15.805L361.049 5.92691C361.049 2.96349 356.63 2.96349 356.63 5.92691Z" fill="#D3E8F3"/>
<path d="M372.429 5.9268C372.318 8.4512 372.76 10.9756 373.644 13.3902C374.086 14.5975 375.08 15.3658 376.296 15.0366C377.29 14.7073 378.284 13.3902 377.842 12.1829C377.069 10.2073 376.627 8.12193 376.738 6.03656C376.959 2.96339 372.539 2.96339 372.429 5.9268Z" fill="#D3E8F3"/>
<path d="M391.874 5.26835C391.211 8.12201 390.99 10.9757 391.211 13.9391C391.432 16.9025 395.851 16.9025 395.63 13.9391C395.409 11.4147 395.519 9.00006 396.072 6.47567C396.735 3.62201 392.426 2.41469 391.874 5.26835Z" fill="#D3E8F3"/>
<path d="M408.225 8.34147C407.452 10.5366 407.452 12.8415 407.783 15.1464C408.004 16.3537 409.44 17.122 410.435 16.7927C411.65 16.4634 412.092 15.1464 411.981 13.939C411.76 12.4024 411.981 10.9756 412.423 9.54879C412.755 8.34147 411.981 7.02439 410.877 6.69513C409.661 6.36586 408.556 7.13415 408.225 8.34147Z" fill="#D3E8F3"/>
<path d="M425.239 2.85374C424.687 5.92692 424.355 9.00009 424.576 12.0733C424.797 15.0367 429.106 15.0367 428.996 12.0733C428.885 9.32936 428.996 6.69521 429.548 4.06106C430.101 1.09765 425.902 -0.109673 425.239 2.85374Z" fill="#D3E8F3"/>
<path d="M441.37 3.5121C440.375 6.14625 440.044 8.7804 440.928 11.5243C441.812 14.378 446.12 13.1706 445.126 10.317C444.684 8.89015 444.574 7.35357 445.126 5.81698C445.568 4.71942 445.457 3.29259 444.353 2.63405C443.469 2.08527 441.812 2.30478 441.37 3.5121Z" fill="#D3E8F3"/>
<path d="M458.052 5.26835C457.61 6.91469 457.168 8.56103 456.837 10.2074C456.064 13.061 460.372 14.3781 461.035 11.4147C461.477 9.76835 461.919 8.12201 462.251 6.47567C463.024 3.62201 458.715 2.41469 458.052 5.26835Z" fill="#D3E8F3"/>
<path d="M471.531 5.92691L471.531 11.5245C471.531 14.4879 475.95 14.4879 475.95 11.5245L475.95 5.92691C475.95 2.96349 471.531 2.96349 471.531 5.92691Z" fill="#D3E8F3"/>
<path d="M483.572 5.26826C483.241 7.79265 483.462 10.317 484.014 12.7317C484.787 15.5853 489.207 14.378 488.544 11.5244C488.102 9.43899 487.991 7.35363 488.212 5.26826C488.433 4.06094 487.108 2.96338 485.892 2.96338C484.566 2.96338 483.793 4.06094 483.572 5.26826Z" fill="#D3E8F3"/>
</g>
<g clip-path="url(#clip2)">
<path d="M503.988 2.19522L503.988 11.9635C503.988 14.9269 508.407 14.9269 508.407 11.9635L508.407 2.19522C508.297 -0.768198 503.988 -0.768198 503.988 2.19522Z" fill="#D3E8F3"/>
<path d="M518.461 5.04873L518.461 13.3902C518.461 16.3536 522.881 16.3536 522.881 13.3902L522.881 5.04873C522.881 2.08532 518.461 2.08532 518.461 5.04873Z" fill="#D3E8F3"/>
<path d="M537.133 7.13422L535.807 12.7318C535.144 15.5854 539.342 16.9025 540.005 13.9391C540.447 12.0732 540.889 10.2074 541.331 8.34154C542.104 5.48788 537.795 4.1708 537.133 7.13422Z" fill="#D3E8F3"/>
<path d="M554.257 5.81714C551.937 7.68299 550.501 10.3171 550.501 13.3903C550.501 16.3537 554.92 16.3537 554.92 13.3903C554.92 12.0732 555.473 10.6464 556.467 9.87812C557.461 9.10982 557.903 7.9025 557.24 6.69519C556.798 5.70738 555.252 5.04884 554.257 5.81714Z" fill="#D3E8F3"/>
<path d="M569.062 3.73168C567.405 7.46339 566.963 11.3049 567.847 15.3658C568.509 18.3292 572.708 17.0122 572.045 14.1585C571.492 11.4146 571.713 8.67071 572.818 6.14631C574.144 3.40241 570.277 1.09753 569.062 3.73168Z" fill="#D3E8F3"/>
<path d="M584.75 5.70731C584.308 8.45122 583.866 11.3049 583.425 14.0488C582.983 17.0122 587.181 18.2195 587.623 15.2561C588.065 12.5122 588.507 9.65854 588.949 6.91463C589.391 4.06097 585.192 2.85365 584.75 5.70731Z" fill="#D3E8F3"/>
<path d="M603.974 5.92691L603.974 15.805C603.974 18.7684 608.393 18.7684 608.393 15.805L608.393 5.92691C608.393 2.96349 603.974 2.96349 603.974 5.92691Z" fill="#D3E8F3"/>
<path d="M619.773 5.9268C619.663 8.4512 620.104 10.9756 620.988 13.3902C621.43 14.5975 622.425 15.3658 623.64 15.0366C624.634 14.7073 625.629 13.3902 625.187 12.1829C624.413 10.2073 623.971 8.12193 624.082 6.03656C624.303 2.96339 619.883 2.96339 619.773 5.9268Z" fill="#D3E8F3"/>
<path d="M639.218 5.26835C638.555 8.12201 638.334 10.9757 638.555 13.9391C638.776 16.9025 643.195 16.9025 642.974 13.9391C642.753 11.4147 642.864 9.00006 643.416 6.47567C644.079 3.62201 639.77 2.41469 639.218 5.26835Z" fill="#D3E8F3"/>
<path d="M655.569 8.34147C654.796 10.5366 654.796 12.8415 655.127 15.1464C655.348 16.3537 656.785 17.122 657.779 16.7927C658.994 16.4634 659.436 15.1464 659.326 13.939C659.105 12.4024 659.326 10.9756 659.768 9.54879C660.099 8.34147 659.326 7.02439 658.221 6.69513C657.005 6.36586 655.901 7.13415 655.569 8.34147Z" fill="#D3E8F3"/>
<path d="M672.584 2.85374C672.031 5.92692 671.7 9.00009 671.921 12.0733C672.142 15.0367 676.45 15.0367 676.34 12.0733C676.229 9.32936 676.34 6.69521 676.892 4.06106C677.445 1.09765 673.246 -0.109673 672.584 2.85374Z" fill="#D3E8F3"/>
<path d="M688.714 3.5121C687.72 6.14625 687.388 8.7804 688.272 11.5243C689.156 14.378 693.465 13.1706 692.47 10.317C692.028 8.89015 691.918 7.35357 692.47 5.81698C692.912 4.71942 692.802 3.29259 691.697 2.63405C690.813 2.08527 689.156 2.30478 688.714 3.5121Z" fill="#D3E8F3"/>
<path d="M705.397 5.26835C704.955 6.91469 704.513 8.56103 704.181 10.2074C703.408 13.061 707.717 14.3781 708.38 11.4147C708.821 9.76835 709.263 8.12201 709.595 6.47567C710.368 3.62201 706.059 2.41469 705.397 5.26835Z" fill="#D3E8F3"/>
<path d="M718.875 5.92691L718.875 11.5245C718.875 14.4879 723.295 14.4879 723.295 11.5245L723.295 5.92691C723.295 2.96349 718.875 2.96349 718.875 5.92691Z" fill="#D3E8F3"/>
<path d="M730.916 5.26826C730.585 7.79265 730.806 10.317 731.358 12.7317C732.132 15.5853 736.551 14.378 735.888 11.5244C735.446 9.43899 735.336 7.35363 735.557 5.26826C735.778 4.06094 734.452 2.96338 733.236 2.96338C731.911 2.96338 731.137 4.06094 730.916 5.26826Z" fill="#D3E8F3"/>
</g>
<defs>
<clipPath id="clip0">
<rect width="18" height="239.301" fill="white" transform="translate(239.301) rotate(90)"/>
</clipPath>
<clipPath id="clip1">
<rect width="18" height="239.301" fill="white" transform="translate(488.656) rotate(90)"/>
</clipPath>
<clipPath id="clip2">
<rect width="18" height="239.301" fill="white" transform="translate(736) rotate(90)"/>
</clipPath>
</defs>
</svg>
