<svg width="1312" height="515" viewBox="0 0 1312 515" fill="none" xmlns="http://www.w3.org/2000/svg">
<path d="M-351.749 73.0152C-186.593 51.9811 -74.6771 -5.4172 116.557 5.27813C304.531 15.9735 453.39 70.1631 650.057 70.1631C792.396 70.1631 922.783 27.7383 1065.12 36.2946C1133.57 58.3983 1206.37 61.9634 1283.52 46.2769C1323.72 16.33 1394.35 1.35651 1495.4 1" stroke="#F4F7FB" stroke-width="1.5" stroke-miterlimit="10"/>
<path d="M-345.229 80.8583C-181.158 60.1807 -68.1564 5.27796 120.905 15.6168C306.706 25.9556 458.824 75.8672 651.145 76.2237C793.484 76.5802 922.784 40.2161 1065.12 47.7028C1137.92 67.6674 1210.72 69.0935 1284.61 51.9809C1323.72 22.3905 1394.35 6.70401 1494.31 4.56494" stroke="#F4F7FB" stroke-width="1.5" stroke-miterlimit="10"/>
<path d="M-286.555 100.11C-125.744 85.1365 -14.9156 47.7029 158.934 53.0505C330.61 58.0417 492.507 81.5714 665.269 84.78C804.349 87.2756 940.169 79.7889 1079.25 89.0581C1297.65 103.319 1292.21 66.9545 1486.71 43.7812" stroke="#F4F7FB" stroke-width="1.5" stroke-miterlimit="10"/>
<path d="M-162.689 132.909C-51.8601 131.127 62.2284 129.344 171.971 125.066C341.474 118.649 527.275 89.4147 697.865 96.5449C861.935 102.962 952.119 148.596 1105.32 163.213C1277 179.256 1311.77 143.961 1471.49 140.752" stroke="#F4F7FB" stroke-width="1.5" stroke-miterlimit="10"/>
<path d="M-309.374 94.4057C-146.39 76.9367 -35.5613 33.0858 144.807 40.5726C321.916 47.7028 479.467 80.8583 660.922 82.9974C800.002 84.7799 934.735 67.3109 1074.9 75.1541C1149.87 91.9102 1222.67 91.5537 1291.13 74.0846C1330.24 46.6332 1396.52 31.3033 1489.97 28.4512" stroke="#F4F7FB" stroke-width="1.5" stroke-miterlimit="10"/>
<path d="M-226.795 112.588C-60.5514 102.962 65.4893 82.2847 238.252 82.9977C386.024 83.3542 537.055 82.6412 683.74 86.2063C818.474 89.4149 935.822 104.745 1061.86 118.292C1275.91 141.109 1293.3 106.527 1480.19 85.4933" stroke="#F4F7FB" stroke-width="1.5" stroke-miterlimit="10"/>
<path d="M-206.151 117.223C88.3059 104.388 384.936 78.3629 689.172 86.2061C826.078 89.7712 941.253 114.014 1067.29 129.344C1299.82 157.865 1275.91 105.101 1478.01 100.467" stroke="#F4F7FB" stroke-width="1.5" stroke-miterlimit="10"/>
<path d="M-187.678 122.214C93.7404 113.658 408.842 79.4326 693.52 87.6324C834.773 91.554 945.602 123.64 1071.64 140.753C1293.3 170.699 1282.43 118.649 1475.84 115.797" stroke="#F4F7FB" stroke-width="1.5" stroke-miterlimit="10"/>
<path d="M-157.256 144.674C-46.4273 143.248 67.6613 142.535 177.404 138.613C346.907 132.553 529.448 99.7537 698.951 106.884C866.281 113.658 948.859 163.569 1106.41 177.473C1268.31 191.734 1318.29 158.578 1471.49 155.726" stroke="#F4F7FB" stroke-width="1.5" stroke-miterlimit="10"/>
<path d="M-168.121 153.23C-49.6863 151.091 70.9216 148.595 189.356 143.961C353.427 137.9 534.882 109.736 698.952 116.509C864.109 123.283 949.947 171.769 1106.41 185.316C1268.31 199.22 1323.72 166.421 1476.93 162.856" stroke="#F4F7FB" stroke-width="1.5" stroke-miterlimit="10"/>
<path d="M-240.923 176.76C61.1403 163.213 390.367 128.988 701.123 145.031C853.241 152.874 930.386 189.594 1069.47 206.35C1236.8 226.672 1358.49 191.733 1514.95 179.969" stroke="#F4F7FB" stroke-width="1.5" stroke-miterlimit="10"/>
<path d="M-377.826 219.898C-219.188 211.342 -63.8106 197.794 87.2209 179.256C206.742 162.856 330.61 154.3 457.737 152.874C547.921 161.074 610.942 191.377 700.039 203.855C807.609 218.828 1003.19 248.775 1120.54 251.627C1280.26 255.549 1432.38 220.967 1585.58 210.629" stroke="#F4F7FB" stroke-width="1.5" stroke-miterlimit="10"/>
<path d="M-213.758 169.63C65.487 159.647 416.445 121.144 701.123 134.692C855.414 142.178 933.646 182.107 1071.64 199.577C1255.27 223.106 1330.24 178.542 1500.83 174.977" stroke="#F4F7FB" stroke-width="1.5" stroke-miterlimit="10"/>
<path d="M-309.374 194.229C-83.3698 180.682 175.231 137.9 407.754 147.17C503.371 150.735 609.854 163.569 703.298 170.699C845.637 181.751 957.552 215.976 1097.72 226.315C1254.18 238.08 1401.95 201.716 1550.81 191.02" stroke="#F4F7FB" stroke-width="1.5" stroke-miterlimit="10"/>
<path d="M-332.192 200.646C-102.929 186.029 196.961 133.266 431.658 147.883C521.842 153.587 614.199 171.412 704.384 179.612C839.117 191.734 960.811 222.75 1095.54 232.376C1256.35 243.784 1410.65 206.351 1562.76 195.655" stroke="#F4F7FB" stroke-width="1.5" stroke-miterlimit="10"/>
<path d="M-351.749 207.063C-125.745 192.09 199.135 133.266 429.486 147.17C520.756 152.874 613.114 177.473 701.125 187.812C823.906 202.429 995.582 235.941 1124.88 239.506C1280.26 244.141 1424.77 209.916 1574.72 199.933" stroke="#F4F7FB" stroke-width="1.5" stroke-miterlimit="10"/>
<path d="M-380 232.733C-221.363 223.82 -64.8983 210.272 87.2197 192.447C206.741 176.76 330.609 167.847 458.822 166.065C550.093 173.908 613.114 204.925 702.211 217.403C809.78 232.376 1004.27 260.897 1121.62 263.749C1282.43 267.671 1434.55 233.446 1589.93 223.107" stroke="#F4F7FB" stroke-width="1.5" stroke-miterlimit="10"/>
<path d="M-373.48 240.575C-146.39 225.602 213.261 163.925 442.524 180.325C535.968 187.099 615.287 215.976 706.558 227.384C818.473 241.645 1001.01 268.74 1121.62 271.592C1282.43 275.513 1434.55 242.001 1589.93 232.019" stroke="#F4F7FB" stroke-width="1.5" stroke-miterlimit="10"/>
<path d="M-339.795 261.61C-112.705 254.123 129.597 230.237 358.861 235.228C479.469 237.723 612.029 251.627 730.464 259.471C856.504 267.67 993.411 289.061 1120.54 291.557C1280.26 294.409 1433.47 265.175 1589.93 256.262" stroke="#F4F7FB" stroke-width="1.5" stroke-miterlimit="10"/>
<path d="M-285.468 300.469C-102.927 309.025 70.9226 329.703 256.724 328.277C426.227 326.851 593.557 315.799 763.06 316.512C873.889 316.869 981.458 326.851 1091.2 327.921C1262.88 329.703 1420.43 308.312 1588.84 300.826" stroke="#F4F7FB" stroke-width="1.5" stroke-miterlimit="10"/>
<path d="M-351.749 255.192C-119.226 244.853 152.413 208.846 388.196 217.045C496.852 220.611 615.287 240.575 721.769 249.131C845.637 259.47 993.409 282.643 1120.54 285.496C1280.26 288.704 1433.46 258.044 1588.84 248.775" stroke="#F4F7FB" stroke-width="1.5" stroke-miterlimit="10"/>
<path d="M-311.548 276.583C40.4965 279.079 395.801 275.514 746.759 284.07C864.107 286.922 974.936 301.896 1092.28 304.748C1263.96 308.669 1422.6 282.644 1589.93 274.088" stroke="#F4F7FB" stroke-width="1.5" stroke-miterlimit="10"/>
<path d="M-301.766 282.287C50.2783 290.131 401.236 286.922 752.194 292.626C868.456 294.409 977.112 307.956 1092.29 310.095C1263.96 313.304 1421.51 288.705 1589.93 280.505" stroke="#F4F7FB" stroke-width="1.5" stroke-miterlimit="10"/>
<path d="M-294.162 287.992C64.4016 300.47 399.061 297.617 757.625 301.183C871.714 302.252 979.283 314.017 1093.37 315.799C1265.05 318.295 1422.6 295.122 1591.01 287.279" stroke="#F4F7FB" stroke-width="1.5" stroke-miterlimit="10"/>
<path d="M-284.385 312.234C-101.843 322.217 66.5733 340.755 253.461 338.973C424.051 337.547 595.727 331.843 766.316 332.556C873.885 332.912 982.541 340.042 1090.11 339.329C1267.22 338.616 1416.08 314.73 1593.19 312.234" stroke="#F4F7FB" stroke-width="1.5" stroke-miterlimit="10"/>
<path d="M-281.123 319.008C75.268 340.755 408.841 347.528 772.838 348.241C883.667 348.598 1003.19 352.52 1114.02 348.954C1292.21 342.894 1417.17 317.582 1601.88 320.077" stroke="#F4F7FB" stroke-width="1.5" stroke-miterlimit="10"/>
<path d="M-261.566 334.694C-101.842 347.172 41.5834 347.172 198.048 355.015C396.888 365.354 585.949 415.266 789.135 413.84C894.531 412.77 1003.19 389.241 1098.8 376.406C1304.16 348.955 1414.99 326.138 1646.43 340.399" stroke="#F4F7FB" stroke-width="1.5" stroke-miterlimit="10"/>
<path d="M-184.42 354.303C-50.7733 372.485 25.2857 372.841 152.413 378.902C380.59 389.954 576.17 521.506 807.607 513.663C951.033 508.672 953.206 453.769 1057.52 426.674C1105.32 414.196 1172.69 411.701 1227.02 396.371C1429.12 338.973 1423.69 341.468 1710.54 378.545" stroke="#F4F7FB" stroke-width="1.5" stroke-miterlimit="10"/>
<path d="M-270.257 330.416C-107.273 342.181 40.4986 346.103 203.482 352.52C397.976 360.006 585.95 393.162 782.617 392.092C888.013 391.379 1003.19 377.476 1103.15 367.85C1304.16 348.242 1410.65 323.286 1630.13 334.338" stroke="#F4F7FB" stroke-width="1.5" stroke-miterlimit="10"/>
<path d="M-237.661 343.251C-94.2351 356.798 15.5072 353.233 154.587 359.65C378.417 370.345 570.738 466.603 796.742 460.899C920.609 457.691 967.331 419.901 1069.47 400.649C1132.49 388.528 1202.03 380.684 1265.05 368.563C1450.85 333.625 1428.03 331.842 1682.29 354.302" stroke="#F4F7FB" stroke-width="1.5" stroke-miterlimit="10"/>
<path d="M-225.707 346.103C-81.1949 360.72 48.1055 356.798 186.098 368.206C389.285 384.962 594.644 484.786 806.523 481.22C923.871 479.081 964.074 430.239 1044.48 410.275C1105.33 395.301 1207.46 384.249 1275.92 370.346C1454.11 333.268 1451.94 336.477 1693.15 360.72" stroke="#F4F7FB" stroke-width="1.5" stroke-miterlimit="10"/>
<path d="M-213.758 348.955C-71.4193 364.998 48.1021 360.363 181.749 372.128C381.675 389.597 598.987 501.542 808.692 496.194C930.387 492.986 960.81 440.222 1041.22 418.118C1097.72 402.432 1204.2 389.597 1270.48 375.337C1453.02 335.051 1449.76 339.686 1700.76 366.781" stroke="#F4F7FB" stroke-width="1.5" stroke-miterlimit="10"/>
</svg>
