<svg width="37" height="37" viewBox="0 0 37 37" fill="none" xmlns="http://www.w3.org/2000/svg">
<rect y="0.285645" width="36.4286" height="36.4286" rx="18.2143" fill="#C1E3F0"/>
<path d="M35.046 19.3203C35.046 22.6843 34.1579 26.0724 32.4537 28.8598C31.8536 29.8449 31.2775 30.5898 30.6535 31.1665C27.8932 33.8097 24.2688 35.5398 20.4284 36.0684C16.3959 36.6211 12.5075 35.732 9.4832 33.5694C8.35508 32.7765 7.32297 31.7913 6.41087 30.686C4.15462 27.8986 2.71447 24.3423 2.33043 20.4016C2.0664 17.9026 1.89838 14.6587 2.93049 11.8233C3.89059 9.13206 5.04272 6.34472 7.58699 4.8309C9.5312 3.65348 12.4355 2.06758 15.0998 1.82729C18.1721 1.53894 21.3165 1.97147 24.1728 3.05276C26.501 3.94183 28.3972 4.90298 30.0534 6.68112C31.7096 8.45926 33.0057 10.5257 33.8938 12.8325C34.6619 14.875 35.046 17.0856 35.046 19.3203ZM2.54645 17.0376C2.54645 18.215 2.64246 19.3443 2.73847 20.3535C3.12251 24.2222 4.51466 27.7064 6.7469 30.4216C7.635 31.5029 8.64311 32.4641 9.74723 33.233C12.6755 35.3235 16.468 36.1886 20.3804 35.6599C24.1488 35.1553 27.6772 33.4493 30.3895 30.8542C30.9655 30.3015 31.5176 29.5806 32.1176 28.6195C34.8779 24.102 35.43 17.9747 33.5098 13.0007C32.6457 10.742 31.3736 8.72357 29.7414 6.9935C28.1332 5.28745 26.285 4.35032 24.0048 3.46125C21.1965 2.37995 18.1241 1.97147 15.1238 2.25981C12.5315 2.5001 9.69922 4.06198 7.77901 5.21536C5.35475 6.65709 4.25063 9.34833 3.31453 11.9915C2.71447 13.6014 2.54645 15.3555 2.54645 17.0376Z" fill="#2D2F33"/>
<path fill-rule="evenodd" clip-rule="evenodd" d="M19.7036 15.0506C19.8699 14.8914 20.1347 14.8913 20.3011 15.0505L20.3011 15.0506L23.5953 18.2026L23.5953 18.2026L23.5965 18.2037C23.6767 18.2813 23.7256 18.3896 23.7256 18.5067C23.7256 18.6238 23.6767 18.7321 23.5965 18.8097L23.5954 18.8108L20.3014 21.9644L20.3014 21.9644L20.3003 21.9654C20.2163 22.0451 20.1081 22.0838 20.0025 22.0838C19.8967 22.0838 19.788 22.0449 19.7036 21.9641C19.5299 21.7978 19.5299 21.5224 19.7036 21.3562L22.4779 18.7003L12.9229 18.7003L12.9229 18.3146L22.4793 18.3146L19.7036 15.6586L19.7036 15.6586C19.5299 15.4923 19.5299 15.2169 19.7036 15.0506Z" fill="black"/>
</svg>
