<?xml version="1.0" encoding="UTF-8"?>
<!DOCTYPE svg PUBLIC "-//W3C//DTD SVG 1.1//EN" "http://www.w3.org/Graphics/SVG/1.1/DTD/svg11.dtd">
<!-- Creator: CorelDRAW 2018 (64-Bit) -->
<svg xmlns="http://www.w3.org/2000/svg" xml:space="preserve" width="200px" height="200px" version="1.1" style="shape-rendering:geometricPrecision; text-rendering:geometricPrecision; image-rendering:optimizeQuality; fill-rule:evenodd; clip-rule:evenodd"
viewBox="0 0 242.45 242.45"
 xmlns:xlink="http://www.w3.org/1999/xlink">
 <defs>
  <style type="text/css">
   <![CDATA[
    .fil2 {fill:#00C2FE}
    .fil0 {fill:#333333}
    .fil1 {fill:gray}
   ]]>
  </style>
 </defs>
 <g id="Слой_x0020_1">
  <metadata id="CorelCorpID_0Corel-Layer"/>
  <rect class="fil0" width="242.45" height="242.45"/>
  <polygon class="fil1" points="49.8,86.68 47.33,104.93 51.98,94.18 55.5,95.94 63.87,69.93 66.76,71.4 70.69,61.26 74.33,64.52 77.82,62.04 80.97,64.14 86.11,59.22 92.05,79.47 100.55,74.63 120.26,104.93 102.01,62.58 96.9,69.52 85.21,37.02 80.1,53.45 76.45,49.8 73.53,53.09 70.24,48.71 65.86,63.68 62.58,61.12 54.18,88.5 "/>
  <polygon class="fil1" points="197.04,100.27 198.64,112.07 195.63,105.12 193.36,106.25 187.95,89.44 186.08,90.39 183.54,83.84 181.19,85.94 178.93,84.34 176.89,85.7 173.57,82.52 169.73,95.61 164.24,92.48 151.5,112.07 163.3,84.69 166.6,89.17 174.15,68.17 177.45,78.79 179.81,76.43 181.7,78.56 183.83,75.72 186.66,85.4 188.78,83.75 194.21,101.45 "/>
  <polygon class="fil1" points="203.28,174.6 204.88,186.4 201.87,179.45 199.6,180.59 194.18,163.77 192.32,164.72 189.77,158.17 187.42,160.28 185.17,158.67 183.13,160.03 179.81,156.85 175.97,169.94 170.48,166.81 157.73,186.4 169.53,159.02 172.84,163.51 180.39,142.5 183.69,153.12 186.05,150.76 187.94,152.89 190.06,150.06 192.9,159.73 195.02,158.08 200.45,175.78 "/>
  <polygon class="fil1" points="89.82,152.55 92.97,175.81 87.04,162.11 82.55,164.35 71.88,131.19 68.2,133.07 63.18,120.14 58.55,124.3 54.1,121.14 50.08,123.81 43.54,117.55 35.97,143.36 25.13,137.19 0,175.81 23.27,121.83 29.78,130.67 44.68,89.25 51.19,110.2 55.85,105.54 59.57,109.73 63.76,104.14 69.34,123.23 73.53,119.97 84.24,154.87 "/>
  <polygon class="fil1" points="90.68,134.23 87.54,157.5 93.47,143.8 97.95,146.04 108.62,112.88 112.3,114.75 117.32,101.83 121.96,105.99 126.4,102.82 130.43,105.5 136.97,99.23 144.54,125.04 155.37,118.87 180.5,157.5 157.24,103.52 150.72,112.36 135.83,70.94 129.31,91.88 124.66,87.23 120.93,91.42 116.75,85.83 111.16,104.91 106.97,101.65 96.27,136.56 "/>
  <polygon class="fil1" points="240.09,126.33 242.45,143.82 237.99,133.52 234.62,135.21 226.6,110.27 223.83,111.68 220.06,101.97 216.58,105.09 213.23,102.71 210.21,104.73 205.29,100.02 199.6,119.42 191.45,114.78 172.56,143.82 190.05,103.24 194.95,109.88 206.15,78.74 211.05,94.49 214.54,90.99 217.34,94.14 220.49,89.94 224.69,104.28 227.84,101.84 235.89,128.08 "/>
  <polygon class="fil2" points="65.86,63.68 70.24,48.71 73.53,53.09 76.45,49.8 80.1,53.45 85.21,37.02 96.9,69.52 102.01,62.58 114.84,92.35 116.75,85.83 120.93,91.42 124.66,87.23 129.31,91.88 135.83,70.94 150.72,112.36 152.29,110.23 163.3,84.69 166.6,89.17 174.15,68.17 177.46,78.79 179.81,76.43 181.7,78.56 183.83,75.72 186.66,85.4 188.78,83.75 194.21,101.45 197.04,100.27 197.42,103.03 206.15,78.74 211.05,94.49 214.54,90.99 217.34,94.14 220.49,89.94 224.69,104.28 227.84,101.84 235.89,128.08 240.09,126.33 242.45,143.82 242.45,0 0,0 0,175.81 23.27,121.83 29.78,130.67 44.68,89.25 48,99.94 49.8,86.68 54.18,88.5 62.58,61.12 "/>
 </g>
</svg>
