<?xml version="1.0" encoding="UTF-8"?>
<!DOCTYPE svg PUBLIC "-//W3C//DTD SVG 1.1//EN" "http://www.w3.org/Graphics/SVG/1.1/DTD/svg11.dtd">
<!-- Creator: CorelDRAW 2018 (64-Bit) -->
<svg xmlns="http://www.w3.org/2000/svg" xml:space="preserve" width="200px" height="200px" version="1.1" style="shape-rendering:geometricPrecision; text-rendering:geometricPrecision; image-rendering:optimizeQuality; fill-rule:evenodd; clip-rule:evenodd"
viewBox="0 0 224.88 224.88"
 xmlns:xlink="http://www.w3.org/1999/xlink">
 <defs>
  <style type="text/css">
   <![CDATA[
    .fil1 {fill:#666666}
    .fil0 {fill:#B3B3B3}
   ]]>
  </style>
 </defs>
 <g id="Слой_x0020_1">
  <metadata id="CorelCorpID_0Corel-Layer"/>
  <rect class="fil0" width="224.88" height="224.88"/>
  <path class="fil1" d="M78.11 125.89c36.46,0 64.25,-6.24 64.25,38.95 0,45.18 -44.95,51.48 -81.41,51.48 -36.45,0 -50.6,-15.1 -50.6,-51.48 0,-36.39 31.31,-38.95 67.76,-38.95zm0.22 2.86c36.46,0 61.95,-9.1 61.95,36.09 0,45.18 -51.24,40.84 -79.33,41.5 -28.09,0.66 -43.34,-10.62 -43.78,-41.5 -0.44,-30.89 24.71,-36.09 61.16,-36.09z"/>
  <path class="fil1" d="M166.03 56.29c27.25,0 48.02,-4.67 48.02,29.1 0,33.78 -33.6,38.48 -60.84,38.48 -27.25,0 -37.83,-11.28 -37.83,-38.48 0,-27.19 23.41,-29.1 50.65,-29.1zm0.17 2.13c27.24,0 46.3,-6.8 46.3,26.97 0,33.78 -38.3,30.53 -59.29,31.03 -21,0.49 -32.4,-7.94 -32.73,-31.03 -0.33,-23.08 18.47,-26.97 45.72,-26.97z"/>
  <path class="fil1" d="M69.92 26.67c18.26,0 32.18,-3.13 32.18,19.5 0,22.64 -22.52,25.79 -40.77,25.79 -18.26,0 -25.35,-7.56 -25.35,-25.79 0,-18.22 15.68,-19.5 33.94,-19.5zm0.11 1.43c18.26,0 31.03,-4.56 31.03,18.07 0,22.64 -25.66,20.46 -39.73,20.79 -14.07,0.33 -21.71,-5.32 -21.93,-20.79 -0.22,-15.47 12.37,-18.07 30.63,-18.07z"/>
  <path class="fil1" d="M135.88 9.4c11.55,0 20.35,-1.98 20.35,12.33 0,14.31 -14.24,16.31 -25.79,16.31 -11.54,0 -16.03,-4.78 -16.03,-16.31 0,-11.53 9.92,-12.33 21.47,-12.33zm0.07 0.9c11.55,0 19.62,-2.88 19.62,11.43 0,14.31 -16.23,12.94 -25.13,13.15 -8.9,0.21 -13.73,-3.37 -13.86,-13.15 -0.14,-9.78 7.82,-11.43 19.37,-11.43z"/>
  <path class="fil1" d="M85.59 80.01c8.87,0 15.62,-1.52 15.62,9.47 0,10.99 -10.93,12.52 -19.79,12.52 -8.87,0 -12.31,-3.67 -12.31,-12.52 0,-8.85 7.61,-9.47 16.48,-9.47zm0.05 0.69c8.87,0 15.07,-2.21 15.07,8.78 0,10.99 -12.46,9.93 -19.29,10.09 -6.84,0.16 -10.55,-2.58 -10.65,-10.09 -0.11,-7.51 6.01,-8.78 14.87,-8.78z"/>
  <path class="fil1" d="M165.08 136.31c8.87,0 15.63,-1.52 15.63,9.47 0,10.99 -10.94,12.52 -19.8,12.52 -8.87,0 -12.31,-3.67 -12.31,-12.52 0,-8.85 7.62,-9.47 16.48,-9.47zm0.05 0.7c8.87,0 15.07,-2.22 15.07,8.77 0,10.99 -12.46,9.94 -19.29,10.1 -6.84,0.16 -10.54,-2.59 -10.65,-10.1 -0.11,-7.51 6.01,-8.77 14.87,-8.77z"/>
  <path class="fil1" d="M181.32 175.69c8.86,0 15.62,-1.52 15.62,9.47 0,10.99 -10.93,12.52 -19.8,12.52 -8.86,0 -12.31,-3.67 -12.31,-12.52 0,-8.85 7.62,-9.47 16.49,-9.47zm0.05 0.7c8.87,0 15.06,-2.22 15.06,8.77 0,10.99 -12.46,9.94 -19.29,10.1 -6.83,0.16 -10.54,-2.58 -10.65,-10.1 -0.1,-7.51 6.01,-8.77 14.88,-8.77z"/>
  <path class="fil1" d="M203.27 137.34c4.79,0 8.44,-0.82 8.44,5.11 0,5.94 -5.91,6.77 -10.7,6.77 -4.79,0 -6.65,-1.98 -6.65,-6.77 0,-4.78 4.12,-5.11 8.91,-5.11zm0.03 0.37c4.79,0 8.14,-1.19 8.14,4.74 0,5.94 -6.73,5.37 -10.43,5.46 -3.69,0.09 -5.69,-1.4 -5.75,-5.46 -0.06,-4.05 3.25,-4.74 8.04,-4.74z"/>
  <path class="fil1" d="M191.74 38.63c4.79,0 8.44,-0.83 8.44,5.11 0,5.94 -5.9,6.77 -10.69,6.77 -4.79,0 -6.65,-1.99 -6.65,-6.77 0,-4.78 4.11,-5.11 8.9,-5.11zm0.03 0.37c4.79,0 8.14,-1.2 8.14,4.74 0,5.94 -6.73,5.37 -10.42,5.46 -3.69,0.08 -5.7,-1.4 -5.76,-5.46 -0.06,-4.06 3.25,-4.74 8.04,-4.74z"/>
  <path class="fil1" d="M36.35 105.53c4.79,0 8.44,-0.82 8.44,5.12 0,5.94 -5.91,6.76 -10.7,6.76 -4.79,0 -6.65,-1.98 -6.65,-6.76 0,-4.78 4.12,-5.12 8.91,-5.12zm0.03 0.38c4.79,0 8.14,-1.2 8.14,4.74 0,5.94 -6.74,5.37 -10.43,5.45 -3.69,0.09 -5.69,-1.39 -5.75,-5.45 -0.06,-4.06 3.25,-4.74 8.04,-4.74z"/>
 </g>
</svg>
