<?xml version="1.0" encoding="UTF-8"?>
<!DOCTYPE svg PUBLIC "-//W3C//DTD SVG 1.1//EN" "http://www.w3.org/Graphics/SVG/1.1/DTD/svg11.dtd">
<!-- Creator: CorelDRAW 2018 (64-Bit) -->
<svg xmlns="http://www.w3.org/2000/svg" xml:space="preserve" width="200mm" height="200mm" version="1.1" style="shape-rendering:geometricPrecision; text-rendering:geometricPrecision; image-rendering:optimizeQuality; fill-rule:evenodd; clip-rule:evenodd"
viewBox="0 0 14620.49 14620.49"
 xmlns:xlink="http://www.w3.org/1999/xlink">
 <defs>
  <style type="text/css">
   <![CDATA[
    .fil0 {fill:#E6E6E6}
   ]]>
  </style>
 </defs>
 <g id="Layer_x0020_1">
  <metadata id="CorelCorpID_0Corel-Layer"/>
  <path class="fil0" d="M7310.25 0c4037.33,0 7310.25,3272.92 7310.25,7310.25 0,4037.33 -3272.92,7310.25 -7310.25,7310.25 -4037.33,0 -7310.25,-3272.92 -7310.25,-7310.25 0,-4037.33 3272.92,-7310.25 7310.25,-7310.25zm2519.09 3441.87c44.54,77.25 65.81,161.49 65.93,244.75l0.56 7245.13 0 10.03 0 4.03 -0.04 0c-3.17,166.81 -90.97,327.83 -245.95,417.34 -149.66,86.38 -325.77,85.23 -469.13,12.48l-0.04 0 -0.56 -0.34c-15.26,-7.76 -30.22,-16.38 -44.71,-25.72l-6238.02 -3601.39c-80,-41.8 -149.4,-106.02 -197.89,-189.96 -135.04,-233.9 -56.16,-532.62 176.07,-669.59l4.07 -2.44 3.04 -1.71 6272.83 -3621.62 1.76 -1.03c235.36,-135.9 536.22,-55.17 672.07,180.05z"/>
 </g>
</svg>
