<?xml version="1.0" encoding="UTF-8"?>
<!DOCTYPE svg PUBLIC "-//W3C//DTD SVG 1.1//EN" "http://www.w3.org/Graphics/SVG/1.1/DTD/svg11.dtd">
<!-- Creator: CorelDRAW 2018 (64-Bit) -->
<svg xmlns="http://www.w3.org/2000/svg" xml:space="preserve" width="200px" height="200px" version="1.1" style="shape-rendering:geometricPrecision; text-rendering:geometricPrecision; image-rendering:optimizeQuality; fill-rule:evenodd; clip-rule:evenodd"
viewBox="0 0 114.29 114.29"
 xmlns:xlink="http://www.w3.org/1999/xlink">
 <defs>
  <style type="text/css">
   <![CDATA[
    .fil1 {fill:#006633}
    .fil3 {fill:#006633}
    .fil2 {fill:#009933}
    .fil0 {fill:#33CC33}
   ]]>
  </style>
 </defs>
 <g id="Слой_x0020_1">
  <metadata id="CorelCorpID_0Corel-Layer"/>
  <g id="_1905267929552">
   <rect class="fil0" width="114.29" height="114.29"/>
   <path class="fil1" d="M25.42 94.12c-2.1,0 -4.82,0 -6.92,0 -1.68,-6 -5.62,-9.36 -10.79,-9.57 3.17,-0.93 8.91,-0.42 10.65,3.99 0.53,-4.16 -2.83,-9.12 -7.29,-11.6 5.3,2.03 9.14,5.92 10.54,9.81 0.21,-5.89 2.88,-11 5.56,-16.1 -1.79,6 -3.62,12 -1.75,18 1.31,-2.69 4.31,-3.06 6.26,-0.37 -3.67,-2.3 -5.16,0.5 -6.26,5.84z"/>
   <path class="fil2" d="M41.54 51.49c-1.04,0 -2.4,0 -3.44,0 -0.84,-2.98 -2.79,-4.65 -5.36,-4.75 1.58,-0.47 4.43,-0.21 5.29,1.98 0.27,-2.07 -1.41,-4.53 -3.62,-5.76 2.63,1 4.54,2.94 5.24,4.87 0.1,-2.93 1.43,-5.47 2.76,-8 -0.89,2.98 -1.8,5.96 -0.87,8.94 0.65,-1.33 2.14,-1.51 3.11,-0.18 -1.83,-1.14 -2.56,0.25 -3.11,2.9z"/>
   <path class="fil2" d="M24.53 59.13c-1.04,0 -2.4,0 -3.44,0 -0.83,-2.98 -2.79,-4.65 -5.36,-4.75 1.58,-0.47 4.43,-0.21 5.29,1.98 0.27,-2.07 -1.41,-4.53 -3.62,-5.76 2.63,1 4.54,2.94 5.24,4.87 0.1,-2.93 1.43,-5.46 2.76,-8 -0.89,2.98 -1.8,5.96 -0.87,8.95 0.65,-1.34 2.14,-1.52 3.11,-0.19 -1.82,-1.14 -2.56,0.25 -3.11,2.9z"/>
   <path class="fil2" d="M103.58 21.49c-1.05,0 -2.4,0 -3.44,0 -0.84,-2.99 -2.79,-4.65 -5.36,-4.76 1.57,-0.46 4.43,-0.21 5.29,1.98 0.26,-2.06 -1.41,-4.53 -3.62,-5.76 2.63,1.01 4.54,2.94 5.24,4.87 0.1,-2.92 1.43,-5.46 2.76,-8 -0.89,2.98 -1.8,5.97 -0.87,8.95 0.65,-1.34 2.14,-1.52 3.11,-0.18 -1.83,-1.15 -2.56,0.24 -3.11,2.9z"/>
   <path class="fil2" d="M102.38 75.32c-1.47,0 -3.38,0 -4.84,0 -1.18,-4.2 -3.94,-6.54 -7.56,-6.69 2.23,-0.66 6.24,-0.3 7.45,2.79 0.38,-2.91 -1.98,-6.38 -5.09,-8.12 3.7,1.42 6.39,4.14 7.37,6.86 0.15,-4.12 2.02,-7.69 3.89,-11.26 -1.25,4.2 -2.53,8.4 -1.22,12.6 0.91,-1.89 3.02,-2.14 4.37,-0.26 -2.56,-1.62 -3.6,0.34 -4.37,4.08z"/>
   <path class="fil3" d="M55.17 63.19c-0.68,0 -1.57,0 -2.25,0 -0.55,-1.96 -1.84,-3.06 -3.53,-3.12 1.04,-0.31 2.91,-0.14 3.48,1.3 0.17,-1.36 -0.93,-2.98 -2.38,-3.79 1.73,0.66 2.98,1.93 3.44,3.2 0.07,-1.92 0.94,-3.59 1.82,-5.26 -0.59,1.96 -1.19,3.92 -0.58,5.88 0.43,-0.87 1.41,-0.99 2.05,-0.12 -1.2,-0.75 -1.68,0.17 -2.05,1.91z"/>
   <path class="fil3" d="M99.08 45.16c-0.68,0 -1.57,0 -2.26,0 -0.55,-1.96 -1.83,-3.06 -3.52,-3.12 1.04,-0.31 2.91,-0.14 3.48,1.3 0.17,-1.36 -0.93,-2.98 -2.38,-3.79 1.73,0.66 2.98,1.93 3.44,3.2 0.07,-1.92 0.94,-3.59 1.82,-5.26 -0.59,1.96 -1.19,3.92 -0.58,5.88 0.43,-0.87 1.41,-0.99 2.05,-0.12 -1.2,-0.75 -1.69,0.17 -2.05,1.91z"/>
   <path class="fil3" d="M80.46 34.56c-1.57,0 -3.61,0 -5.18,0 -1.26,-4.49 -4.22,-7.01 -8.09,-7.16 2.38,-0.71 6.68,-0.32 7.98,2.98 0.4,-3.11 -2.12,-6.83 -5.46,-8.69 3.97,1.52 6.85,4.44 7.9,7.35 0.16,-4.41 2.16,-8.24 4.17,-12.06 -1.35,4.49 -2.72,8.99 -1.32,13.49 0.98,-2.02 3.23,-2.29 4.69,-0.28 -2.75,-1.73 -3.86,0.37 -4.69,4.37z"/>
   <path class="fil2" d="M77.28 63.2c-1.57,0 -3.61,0 -5.18,0 -1.26,-4.5 -4.21,-7.01 -8.09,-7.17 2.38,-0.7 6.68,-0.31 7.98,2.99 0.4,-3.12 -2.12,-6.83 -5.46,-8.69 3.97,1.52 6.85,4.44 7.9,7.35 0.16,-4.42 2.16,-8.24 4.17,-12.07 -1.34,4.5 -2.72,9 -1.32,13.49 0.99,-2.01 3.24,-2.29 4.69,-0.27 -2.75,-1.73 -3.86,0.37 -4.69,4.37z"/>
   <path class="fil3" d="M80.13 92.05c-1.57,0 -3.61,0 -5.18,0 -1.26,-4.5 -4.22,-7.01 -8.09,-7.17 2.38,-0.7 6.68,-0.31 7.98,2.99 0.4,-3.12 -2.12,-6.83 -5.46,-8.69 3.97,1.52 6.85,4.44 7.9,7.35 0.16,-4.42 2.16,-8.24 4.17,-12.07 -1.34,4.5 -2.72,9 -1.32,13.49 0.98,-2.01 3.24,-2.29 4.69,-0.27 -2.75,-1.73 -3.86,0.37 -4.69,4.37z"/>
   <path class="fil2" d="M100.75 107.85c-1.57,0 -3.61,0 -5.18,0 -1.26,-4.5 -4.22,-7.01 -8.09,-7.17 2.38,-0.7 6.68,-0.32 7.98,2.99 0.4,-3.12 -2.12,-6.84 -5.46,-8.7 3.97,1.52 6.85,4.44 7.9,7.35 0.16,-4.41 2.16,-8.24 4.17,-12.06 -1.34,4.49 -2.72,8.99 -1.32,13.49 0.98,-2.02 3.24,-2.29 4.69,-0.28 -2.75,-1.73 -3.86,0.37 -4.69,4.38z"/>
   <path class="fil2" d="M48.36 105.09c-1.57,0 -3.61,0 -5.18,0 -1.26,-4.5 -4.22,-7.01 -8.09,-7.17 2.38,-0.7 6.68,-0.31 7.98,2.99 0.4,-3.12 -2.12,-6.83 -5.46,-8.69 3.97,1.52 6.85,4.43 7.9,7.35 0.16,-4.42 2.16,-8.25 4.17,-12.07 -1.35,4.5 -2.72,9 -1.32,13.49 0.98,-2.01 3.24,-2.29 4.69,-0.27 -2.75,-1.73 -3.86,0.37 -4.69,4.37z"/>
   <path class="fil2" d="M22.07 38.51c-1.97,0 -4.51,0 -6.48,0 -1.57,-5.62 -5.26,-8.76 -10.11,-8.96 2.98,-0.87 8.35,-0.39 9.98,3.74 0.5,-3.9 -2.65,-8.54 -6.82,-10.86 4.96,1.89 8.55,5.54 9.87,9.18 0.19,-5.52 2.69,-10.3 5.2,-15.08 -1.67,5.62 -3.39,11.24 -1.64,16.86 1.23,-2.52 4.04,-2.86 5.86,-0.34 -3.44,-2.16 -4.83,0.46 -5.86,5.46z"/>
   <path class="fil3" d="M46.61 24.36c-1.58,0 -3.62,0 -5.19,0 -1.26,-4.5 -4.21,-7.01 -8.09,-7.17 2.38,-0.7 6.68,-0.31 7.98,2.99 0.41,-3.12 -2.12,-6.83 -5.45,-8.69 3.97,1.52 6.84,4.44 7.89,7.35 0.16,-4.42 2.16,-8.24 4.17,-12.07 -1.34,4.5 -2.72,9 -1.31,13.49 0.98,-2.01 3.23,-2.29 4.68,-0.27 -2.74,-1.73 -3.86,0.37 -4.68,4.37z"/>
  </g>
 </g>
</svg>
