<?xml version="1.0" encoding="UTF-8"?>
<!DOCTYPE svg PUBLIC "-//W3C//DTD SVG 1.1//EN" "http://www.w3.org/Graphics/SVG/1.1/DTD/svg11.dtd">
<!-- Creator: CorelDRAW 2018 (64-Bit) -->
<svg xmlns="http://www.w3.org/2000/svg" xml:space="preserve" width="148px" height="200px" version="1.1" style="shape-rendering:geometricPrecision; text-rendering:geometricPrecision; image-rendering:optimizeQuality; fill-rule:evenodd; clip-rule:evenodd"
viewBox="0 0 37.4 50.7"
 xmlns:xlink="http://www.w3.org/1999/xlink">
 <defs>
  <style type="text/css">
   <![CDATA[
    .str0 {stroke:black;stroke-width:0.25;stroke-miterlimit:22.9256}
    .fil4 {fill:none}
    .fil5 {fill:black}
    .fil9 {fill:#333333}
    .fil8 {fill:#8C794D}
    .fil2 {fill:#913A00}
    .fil7 {fill:#B09658}
    .fil1 {fill:#BA4A00}
    .fil3 {fill:#D66D27}
    .fil0 {fill:#FFBB61}
    .fil6 {fill:#FFD461}
   ]]>
  </style>
 </defs>
 <g id="Слой_x0020_1">
  <metadata id="CorelCorpID_0Corel-Layer"/>
  <path class="fil0" d="M2.59 17.56l0.1 -1.81 3.31 -3.04 21.74 -0.24 6.83 3.33 0.04 1.76c-1,8.79 -7.79,15.59 -16.01,15.59 -8.23,0 -15.02,-6.8 -16.01,-15.59z"/>
  <path class="fil1" d="M15.14 40.2c4.53,0 8.21,3.68 8.21,8.22 0,0.34 -0.02,0.69 -0.07,1.03 -5.1,1.63 -10.52,1.72 -16.29,0 -0.05,-0.34 -0.07,-0.69 -0.07,-1.03 0,-4.54 3.68,-8.22 8.22,-8.22z"/>
  <path class="fil2" d="M22.92 49.13c-3.5,1.1 -7.16,1.44 -10.9,1.37 3.92,0.48 7.67,0.09 11.26,-1.05 0.05,-0.34 0.07,-0.69 0.07,-1.03 0,-1.72 -0.53,-3.32 -1.43,-4.64 0.76,1.77 1.18,3.56 1,5.35z"/>
  <path class="fil1" d="M23.93 40.2c4.54,0 8.22,3.68 8.22,8.22 0,0.34 -0.03,0.69 -0.07,1.03 -5.1,1.63 -10.52,1.72 -16.29,0 -0.05,-0.34 -0.07,-0.69 -0.07,-1.03 0,-4.54 3.68,-8.22 8.21,-8.22z"/>
  <path class="fil3" d="M6.99 49.45c0.86,-6.68 4.54,-9.57 10.76,-8.82 -0.82,-0.28 -1.7,-0.43 -2.61,-0.43 -2.27,0 -4.33,0.92 -5.81,2.41 -0.48,0.47 -0.89,1.01 -1.24,1.59 -0.13,0.21 -0.25,0.44 -0.36,0.67 -0.52,1.07 -0.81,2.27 -0.81,3.55 0,0.34 0.02,0.69 0.07,1.03z"/>
  <line class="fil4 str0" x1="6.6" y1="19.4" x2="16.02" y2= "21.35" />
  <line class="fil4 str0" x1="29.7" y1="19.4" x2="20.28" y2= "21.35" />
  <path class="fil5 str0" d="M14.07 20.95l-2.97 -0.62c-0.21,0.26 -0.33,0.57 -0.33,0.91 0,0.83 0.74,1.5 1.66,1.5 0.92,0 1.67,-0.67 1.67,-1.5 0,-0.1 -0.01,-0.2 -0.03,-0.29z"/>
  <path class="fil5 str0" d="M22.23 20.95l2.97 -0.62c0.21,0.26 0.33,0.57 0.33,0.91 0,0.83 -0.74,1.5 -1.66,1.5 -0.93,0 -1.67,-0.67 -1.67,-1.5 0,-0.1 0.01,-0.2 0.03,-0.29z"/>
  <path class="fil5" d="M24.63 27.63c-3.33,0.94 -6.73,1.1 -10.19,0.6 3.4,-0.2 6.8,-0.4 10.19,-0.6z"/>
  <path class="fil6" d="M9.95 42.39c-1.88,0.66 -4.71,1.59 -5.97,0.06 -2.19,-2.67 -3.41,-6.83 -2.29,-10.1 0.74,-2.19 4.41,-3.26 6.54,-2.35 1.54,0.67 1.52,4.01 -0.41,4.45 2.61,-0.62 4.16,3.05 1.29,4.04 1.7,-0.65 3.3,3.04 0.84,3.9z"/>
  <path class="fil6" d="M28.72 30.62c1.88,-0.65 4.7,-1.59 5.97,-0.05 2.19,2.66 3.4,6.82 2.29,10.09 -0.75,2.19 -4.41,3.27 -6.54,2.35 -1.54,-0.67 -1.52,-4.01 0.4,-4.44 -2.6,0.61 -4.15,-3.05 -1.29,-4.05 -1.69,0.65 -3.29,-3.03 -0.83,-3.9z"/>
  <path class="fil7" d="M10.44 30.13c-0.53,-0.27 -0.16,0.38 -0.06,0.54 2.41,1.58 5.22,2.48 8.22,2.48 8.22,0 15.01,-6.8 16.01,-15.59l-0.84 0c-0.98,3.93 -2.54,7.59 -5,10.39 -1.31,1.5 -3.2,2.45 -5.12,3.16 -1.48,0.56 -3.66,-0.35 -5.2,-0.31 -1.54,0.03 -2.89,0.1 -3.95,0.95 -1.41,-0.39 -2.78,-0.98 -4.06,-1.62z"/>
  <path class="fil3" d="M15.79 49.45c0.86,-6.68 4.54,-9.57 10.76,-8.82 -0.82,-0.28 -1.7,-0.43 -2.62,-0.43 -2.26,0 -4.32,0.92 -5.8,2.41 -0.48,0.47 -0.9,1.01 -1.24,1.59 -0.13,0.21 -0.25,0.44 -0.37,0.67 -0.51,1.07 -0.8,2.27 -0.8,3.55 0,0.34 0.02,0.69 0.07,1.03z"/>
  <path class="fil2" d="M31.72 49.13c-3.5,1.1 -7.16,1.44 -10.9,1.37 3.92,0.48 7.67,0.09 11.26,-1.05 0.04,-0.34 0.07,-0.69 0.07,-1.03 0,-1.72 -0.53,-3.32 -1.44,-4.64 0.76,1.77 1.18,3.56 1.01,5.35z"/>
  <path class="fil7" d="M9.93 41.61c-1.48,1.13 -3.12,1.43 -4.9,1.53 1.24,0.38 2.93,-0.08 4.3,-0.54 0.22,-0.07 0.42,-0.14 0.62,-0.21 0.65,-0.23 1.01,-0.65 1.17,-1.14 0.43,-1.34 -0.72,-3.18 -1.95,-2.78 1.1,0.21 1.31,0.83 1.39,1.58 0.08,0.67 -0.17,1.21 -0.63,1.56zm-2.09 -7.17c1.72,-0.4 1.91,-3.14 0.8,-4.16 0.63,1.71 0.44,3.13 -0.82,4.17 3.09,0.07 3.05,3.28 1.35,4.02 2.79,-1.02 1.25,-4.62 -1.33,-4.03z"/>
  <path class="fil7" d="M35.81 41.05c-0.73,1.1 -2.27,1.55 -3.56,1.74 -0.74,0.11 -1.48,0.13 -2.24,-0.07 0.13,0.12 0.27,0.22 0.43,0.29 2.13,0.92 5.79,-0.16 6.54,-2.35 1.11,-3.27 -0.1,-7.43 -2.29,-10.09 2.13,4.41 2.17,8.88 1.12,10.48z"/>
  <path class="fil8" d="M2.59 17.48l0.1 -1.73 3.31 -3.04 21.74 -0.24 6.83 3.33 0.04 1.76c-0.07,0.61 -0.17,1.22 -0.3,1.82l-0.54 -0.56 -0.38 0.4 -0.97 -0.74 -0.37 0.5 -0.63 -1.14 -0.41 1.24 -3.71 -2.02 -0.01 0.55 -1.2 -0.98 -0.04 2.12 -2.01 -2.75 -2.21 2.08 -0.73 -1.65 -1.98 1.98 -0.17 -1.88 -2.85 1.95 0.04 -1.78 -1.95 1.14 0.14 -1.34 -2.45 1.84 0.03 -2.07 -3.25 1.94 0.34 -1.74 -2.58 1.77 0.17 -1.97 -2.42 1.91 0.2 -1.56 -1.02 0.95 0.07 -1.04 -0.83 0.95z"/>
  <polygon class="fil9" points="36.16,18.97 35.14,16.67 35,19.45 33.77,18.19 33.39,18.58 32.42,17.84 32.05,18.35 31.42,17.21 31.01,18.45 27.3,16.42 27.29,16.97 26.09,16 26.05,18.11 24.04,15.36 21.83,17.44 21.1,15.8 19.12,17.78 18.95,15.9 16.1,17.84 16.14,16.07 14.19,17.21 14.33,15.87 11.88,17.71 11.91,15.63 8.66,17.58 9,15.83 6.42,17.61 6.59,15.63 4.17,17.54 4.37,15.98 3.35,16.94 3.42,15.9 1.34,18.26 2.45,15.25 0.62,15.98 2.98,12.3 0,12.21 3.32,9.97 1.78,9.79 6.47,6.5 4.86,6.37 11.96,2.48 8.88,2.08 15.85,1.07 15.51,0 21.75,1.68 21.81,0.4 26.24,2.95 28.92,3.22 28.65,4.16 32.87,6.23 31.33,6.43 33.34,9.25 32.47,9.05 36.16,13.07 34.62,12.87 36.56,16.35 35.29,15.75 "/>
 </g>
</svg>
