<?xml version="1.0" encoding="UTF-8"?>
<!DOCTYPE svg PUBLIC "-//W3C//DTD SVG 1.1//EN" "http://www.w3.org/Graphics/SVG/1.1/DTD/svg11.dtd">
<!-- Creator: CorelDRAW 2018 (64-Bit) -->
<svg xmlns="http://www.w3.org/2000/svg" xml:space="preserve" width="200px" height="200px" version="1.1" style="shape-rendering:geometricPrecision; text-rendering:geometricPrecision; image-rendering:optimizeQuality; fill-rule:evenodd; clip-rule:evenodd"
viewBox="0 0 47.06 47.06"
 xmlns:xlink="http://www.w3.org/1999/xlink">
 <defs>
  <style type="text/css">
   <![CDATA[
    .fil1 {fill:#FF6600}
    .fil0 {fill:#FFD461}
   ]]>
  </style>
 </defs>
 <g id="Слой_x0020_1">
  <metadata id="CorelCorpID_0Corel-Layer"/>
  <rect class="fil0" width="47.06" height="47.06"/>
  <path class="fil1" d="M4.14 9.15c0.9,0 1.63,0.7 1.63,1.58 0,0.87 -0.73,1.58 -1.63,1.58 -0.9,0 -1.63,-0.71 -1.63,-1.58 0,-0.07 0,-0.13 0.01,-0.19 0.08,0.61 0.62,1.08 1.27,1.08 0.7,0 1.27,-0.55 1.27,-1.24 0,-0.63 -0.48,-1.15 -1.11,-1.22 0.06,-0.01 0.13,-0.01 0.19,-0.01z"/>
  <path class="fil1" d="M8.2 13.66c0.6,0 1.09,0.47 1.09,1.05 0,0.58 -0.49,1.06 -1.09,1.06 -0.6,0 -1.09,-0.48 -1.09,-1.06 0,-0.04 0.01,-0.08 0.01,-0.12 0.06,0.41 0.41,0.72 0.85,0.72 0.46,0 0.85,-0.37 0.85,-0.83 0,-0.41 -0.33,-0.76 -0.74,-0.81 0.04,-0.01 0.08,-0.01 0.12,-0.01z"/>
  <path class="fil1" d="M19.75 17.38c0.9,0 1.63,0.71 1.63,1.59 0,0.87 -0.73,1.58 -1.63,1.58 -0.9,0 -1.63,-0.71 -1.63,-1.58 0,-0.07 0,-0.13 0.01,-0.19 0.08,0.61 0.61,1.08 1.26,1.08 0.71,0 1.28,-0.55 1.28,-1.24 0,-0.63 -0.48,-1.15 -1.11,-1.22 0.06,-0.01 0.13,-0.02 0.19,-0.02z"/>
  <path class="fil1" d="M20.33 25.39c0.66,0 1.2,0.52 1.2,1.16 0,0.63 -0.54,1.15 -1.2,1.15 -0.65,0 -1.19,-0.52 -1.19,-1.15 0,-0.05 0,-0.09 0.01,-0.14 0.06,0.45 0.45,0.79 0.92,0.79 0.52,0 0.94,-0.41 0.94,-0.9 0,-0.46 -0.36,-0.84 -0.81,-0.9 0.04,-0.01 0.09,-0.01 0.13,-0.01z"/>
  <path class="fil1" d="M29.83 11.17c0.9,0 1.63,0.71 1.63,1.58 0,0.87 -0.73,1.58 -1.63,1.58 -0.9,0 -1.64,-0.71 -1.64,-1.58 0,-0.06 0.01,-0.12 0.02,-0.18 0.08,0.6 0.61,1.07 1.26,1.07 0.71,0 1.28,-0.55 1.28,-1.23 0,-0.63 -0.48,-1.15 -1.11,-1.23 0.06,-0.01 0.12,-0.01 0.19,-0.01z"/>
  <path class="fil1" d="M35.97 23.36c0.9,0 1.63,0.71 1.63,1.58 0,0.88 -0.73,1.59 -1.63,1.59 -0.9,0 -1.63,-0.71 -1.63,-1.59 0,-0.06 0,-0.12 0.01,-0.18 0.08,0.61 0.62,1.08 1.27,1.08 0.7,0 1.27,-0.56 1.27,-1.24 0,-0.63 -0.48,-1.15 -1.11,-1.23 0.06,0 0.13,-0.01 0.19,-0.01z"/>
  <path class="fil1" d="M30.15 26c0.66,0 1.18,0.52 1.18,1.15 0,0.63 -0.52,1.14 -1.18,1.14 -0.65,0 -1.18,-0.51 -1.18,-1.14 0,-0.05 0,-0.09 0.01,-0.13 0.06,0.43 0.45,0.77 0.92,0.77 0.51,0 0.92,-0.4 0.92,-0.89 0,-0.46 -0.35,-0.83 -0.8,-0.89 0.04,0 0.09,-0.01 0.13,-0.01z"/>
  <path class="fil1" d="M43.8 31c0.9,0 1.64,0.71 1.64,1.58 0,0.87 -0.74,1.58 -1.64,1.58 -0.9,0 -1.63,-0.71 -1.63,-1.58 0,-0.06 0,-0.12 0.01,-0.18 0.08,0.6 0.62,1.07 1.27,1.07 0.7,0 1.28,-0.55 1.28,-1.23 0,-0.63 -0.49,-1.15 -1.12,-1.23 0.07,-0.01 0.13,-0.01 0.19,-0.01z"/>
  <path class="fil1" d="M18.81 2.63c0.76,0 1.39,0.6 1.39,1.35 0,0.74 -0.63,1.34 -1.39,1.34 -0.77,0 -1.39,-0.6 -1.39,-1.34 0,-0.06 0,-0.11 0.01,-0.16 0.07,0.52 0.52,0.92 1.07,0.92 0.61,0 1.09,-0.48 1.09,-1.06 0,-0.53 -0.41,-0.97 -0.94,-1.04 0.05,-0.01 0.1,-0.01 0.16,-0.01z"/>
  <path class="fil1" d="M28.86 42.87c0.9,0 1.63,0.71 1.63,1.58 0,0.88 -0.73,1.58 -1.63,1.58 -0.9,0 -1.63,-0.7 -1.63,-1.58 0,-0.06 0,-0.12 0.01,-0.18 0.08,0.61 0.62,1.08 1.27,1.08 0.7,0 1.27,-0.56 1.27,-1.24 0,-0.63 -0.48,-1.15 -1.11,-1.23 0.06,0 0.13,-0.01 0.19,-0.01z"/>
  <path class="fil1" d="M44.19 15.58c0.71,0 1.28,0.56 1.28,1.25 0,0.69 -0.57,1.25 -1.28,1.25 -0.72,0 -1.29,-0.56 -1.29,-1.25 0,-0.05 0,-0.1 0.01,-0.14 0.06,0.47 0.48,0.84 1,0.84 0.55,0 1,-0.43 1,-0.97 0,-0.5 -0.38,-0.91 -0.87,-0.97 0.05,0 0.1,-0.01 0.15,-0.01z"/>
  <path class="fil1" d="M33.13 39.67c0.91,0 1.64,0.7 1.64,1.58 0,0.87 -0.73,1.58 -1.64,1.58 -0.9,0 -1.63,-0.71 -1.63,-1.58 0,-0.06 0,-0.13 0.01,-0.19 0.08,0.61 0.62,1.08 1.27,1.08 0.71,0 1.28,-0.55 1.28,-1.24 0,-0.63 -0.49,-1.14 -1.11,-1.22 0.06,-0.01 0.12,-0.01 0.18,-0.01z"/>
  <path class="fil1" d="M16.22 34.42c0.55,0 1,0.43 1,0.96 0,0.53 -0.45,0.97 -1,0.97 -0.55,0 -0.99,-0.44 -0.99,-0.97 0,-0.03 0,-0.07 0.01,-0.11 0.05,0.37 0.37,0.66 0.77,0.66 0.43,0 0.78,-0.34 0.78,-0.76 0,-0.38 -0.3,-0.69 -0.68,-0.74 0.04,-0.01 0.08,-0.01 0.11,-0.01z"/>
  <path class="fil1" d="M10.02 41.12c0.9,0 1.63,0.7 1.63,1.58 0,0.87 -0.73,1.58 -1.63,1.58 -0.9,0 -1.64,-0.71 -1.64,-1.58 0,-0.07 0.01,-0.13 0.02,-0.19 0.08,0.61 0.61,1.08 1.26,1.08 0.71,0 1.28,-0.55 1.28,-1.24 0,-0.63 -0.48,-1.14 -1.11,-1.22 0.06,-0.01 0.12,-0.01 0.19,-0.01z"/>
  <path class="fil1" d="M42.72 1.91c0.9,0 1.63,0.71 1.63,1.58 0,0.88 -0.73,1.58 -1.63,1.58 -0.9,0 -1.64,-0.7 -1.64,-1.58 0,-0.06 0.01,-0.12 0.02,-0.18 0.08,0.61 0.61,1.08 1.26,1.08 0.71,0 1.28,-0.56 1.28,-1.24 0,-0.63 -0.48,-1.15 -1.11,-1.23 0.06,0 0.12,-0.01 0.19,-0.01z"/>
  <path class="fil1" d="M2.88 28.93c0.9,0 1.63,0.7 1.63,1.58 0,0.87 -0.73,1.58 -1.63,1.58 -0.91,0 -1.64,-0.71 -1.64,-1.58 0,-0.06 0.01,-0.12 0.01,-0.18 0.09,0.6 0.62,1.07 1.27,1.07 0.71,0 1.28,-0.55 1.28,-1.24 0,-0.62 -0.48,-1.14 -1.11,-1.22 0.06,-0.01 0.12,-0.01 0.19,-0.01z"/>
 </g>
</svg>
