<svg width="26" height="26" viewBox="0 0 26 26" fill="none" xmlns="http://www.w3.org/2000/svg">
<path fill-rule="evenodd" clip-rule="evenodd" d="M13 25C19.6274 25 25 19.6274 25 13C25 6.37258 19.6274 1 13 1C6.37258 1 1 6.37258 1 13C1 19.6274 6.37258 25 13 25Z" stroke="#DDE0E6" stroke-width="0.5"/>
<path fill-rule="evenodd" clip-rule="evenodd" d="M10 13C10 11.3433 11.3433 10 13 10C14.6567 10 16 11.3433 16 13C16 14.6567 14.6567 16 13 16C11.3433 16 10 14.6567 10 13ZM11.125 13C11.125 14.0335 11.9665 14.875 13 14.875C14.0335 14.875 14.875 14.0335 14.875 13C14.875 11.9657 14.0335 11.125 13 11.125C11.9665 11.125 11.125 11.9657 11.125 13Z" fill="#C0C4CB"/>
<path d="M17 9.75C17 10.1642 16.6642 10.5 16.25 10.5C15.8358 10.5 15.5 10.1642 15.5 9.75C15.5 9.33579 15.8358 9 16.25 9C16.6642 9 17 9.33579 17 9.75Z" fill="#C0C4CB"/>
<path fill-rule="evenodd" clip-rule="evenodd" d="M10.75 7H15.25C17.3208 7 19 8.67925 19 10.75V15.25C19 17.3208 17.3208 19 15.25 19H10.75C8.67925 19 7 17.3208 7 15.25V10.75C7 8.67925 8.67925 7 10.75 7ZM15.25 17.875C16.6975 17.875 17.875 16.6975 17.875 15.25V10.75C17.875 9.3025 16.6975 8.125 15.25 8.125H10.75C9.3025 8.125 8.125 9.3025 8.125 10.75V15.25C8.125 16.6975 9.3025 17.875 10.75 17.875H15.25Z" fill="#C0C4CB"/>
</svg>
