<svg width="24" height="24" viewBox="0 0 24 24" fill="none" xmlns="http://www.w3.org/2000/svg">
<path d="M11.9146 23.8292C18.4949 23.8292 23.8292 18.4949 23.8292 11.9146C23.8292 5.33436 18.4949 0 11.9146 0C5.33436 0 0 5.33436 0 11.9146C0 18.4949 5.33436 23.8292 11.9146 23.8292Z" fill="#FF6A22"/>
<path d="M11.5122 14.4526C10.5819 14.3555 9.7431 14.1264 9.02497 13.5648C8.93586 13.4949 8.84386 13.4275 8.76255 13.3495C8.44822 13.0476 8.41655 12.7018 8.66527 12.3455C8.87805 12.0406 9.23523 11.9591 9.60649 12.1342C9.67838 12.1681 9.74687 12.2104 9.81247 12.2559C11.1508 13.1755 12.9894 13.2009 14.3328 12.2973C14.4659 12.1952 14.6082 12.112 14.773 12.0696C15.0937 11.9872 15.3926 12.105 15.5647 12.3855C15.7613 12.7059 15.7587 13.0186 15.5166 13.2673C15.1451 13.6486 14.6983 13.9245 14.2018 14.117C13.7324 14.299 13.2183 14.3906 12.7094 14.4514C12.7862 14.535 12.8224 14.5761 12.8704 14.6244C13.5614 15.3186 14.2554 16.01 14.9441 16.7064C15.1787 16.9437 15.2278 17.2379 15.0986 17.5139C14.9573 17.8155 14.6411 18.0139 14.331 17.9927C14.1346 17.9791 13.9814 17.8813 13.8453 17.7442C13.3238 17.2195 12.7926 16.7045 12.2817 16.1698C12.133 16.0144 12.0615 16.0438 11.9303 16.1788C11.4057 16.7188 10.8726 17.2506 10.3363 17.7793C10.0955 18.0167 9.80896 18.0594 9.5297 17.9238C9.23284 17.7799 9.04394 17.4769 9.05852 17.1724C9.06858 16.9664 9.16988 16.8091 9.31127 16.6679C9.99509 15.9851 10.677 15.3005 11.3592 14.6166C11.4043 14.5711 11.4464 14.5228 11.5122 14.4526Z" fill="white"/>
<path d="M12.0789 12.074C10.4193 12.0683 9.05849 10.6925 9.06817 9.03027C9.07772 7.34968 10.4395 5.99536 12.1154 6.00001C13.7947 6.00454 15.1426 7.37834 15.1342 9.07639C15.1257 10.7352 13.7554 12.0798 12.0789 12.074ZM13.5872 9.03429C13.5843 8.20895 12.927 7.5519 12.1033 7.55115C11.2727 7.55027 10.6095 8.21926 10.6159 9.05214C10.6221 9.87433 11.285 10.5267 12.111 10.5237C12.9344 10.5208 13.59 9.8595 13.5872 9.03429Z" fill="white"/>
</svg>
