<svg width="26" height="26" viewBox="0 0 26 26" fill="none" xmlns="http://www.w3.org/2000/svg">
<path d="M12.9146 24.8292C19.4949 24.8292 24.8292 19.4949 24.8292 12.9146C24.8292 6.33436 19.4949 1 12.9146 1C6.33436 1 1 6.33436 1 12.9146C1 19.4949 6.33436 24.8292 12.9146 24.8292Z" stroke="#DDE0E6" stroke-width="0.5"/>
<path d="M12.5122 15.4526C11.5819 15.3555 10.7431 15.1264 10.025 14.5648C9.93586 14.4949 9.84386 14.4275 9.76255 14.3495C9.44822 14.0476 9.41655 13.7018 9.66527 13.3455C9.87805 13.0406 10.2352 12.9591 10.6065 13.1342C10.6784 13.1681 10.7469 13.2104 10.8125 13.2559C12.1508 14.1755 13.9894 14.2009 15.3328 13.2973C15.4659 13.1952 15.6082 13.112 15.773 13.0696C16.0937 12.9872 16.3926 13.105 16.5647 13.3855C16.7613 13.7059 16.7587 14.0186 16.5166 14.2673C16.1451 14.6486 15.6983 14.9245 15.2018 15.117C14.7324 15.299 14.2183 15.3906 13.7094 15.4514C13.7862 15.535 13.8224 15.5761 13.8704 15.6244C14.5614 16.3186 15.2554 17.01 15.9441 17.7064C16.1787 17.9437 16.2278 18.2379 16.0986 18.5139C15.9573 18.8155 15.6411 19.0139 15.331 18.9927C15.1346 18.9791 14.9814 18.8813 14.8453 18.7442C14.3238 18.2195 13.7926 17.7045 13.2817 17.1698C13.133 17.0144 13.0615 17.0438 12.9303 17.1788C12.4057 17.7188 11.8726 18.2506 11.3363 18.7793C11.0955 19.0167 10.809 19.0594 10.5297 18.9238C10.2328 18.7799 10.0439 18.4769 10.0585 18.1724C10.0686 17.9664 10.1699 17.8091 10.3113 17.6679C10.9951 16.9851 11.677 16.3005 12.3592 15.6166C12.4043 15.5711 12.4464 15.5228 12.5122 15.4526Z" fill="#C0C4CB"/>
<path d="M13.0789 13.074C11.4193 13.0683 10.0584 11.6925 10.0681 10.0303C10.0776 8.34968 11.4394 6.99536 13.1153 7.00001C14.7946 7.00454 16.1425 8.37834 16.1341 10.0764C16.1256 11.7352 14.7553 13.0798 13.0789 13.074ZM14.5871 10.0343C14.5842 9.20895 13.9269 8.5519 13.1032 8.55115C12.2726 8.55027 11.6094 9.21926 11.6158 10.0521C11.622 10.8743 12.2849 11.5267 13.1109 11.5237C13.9344 11.5208 14.5899 10.8595 14.5871 10.0343Z" fill="#C0C4CB"/>
</svg>
