<svg width="24" height="24" viewBox="0 0 24 24" fill="none" xmlns="http://www.w3.org/2000/svg">
<path d="M11.9151 23.83C18.4954 23.83 23.8297 18.4956 23.8297 11.9154C23.8297 5.33509 18.4954 0.000732422 11.9151 0.000732422C5.33485 0.000732422 0.000488281 5.33509 0.000488281 11.9154C0.000488281 18.4956 5.33485 23.83 11.9151 23.83Z" fill="#CB2027"/>
<path d="M12.8767 15.955C11.9759 15.8854 11.5974 15.4387 10.891 15.0099C10.5028 17.0469 10.0283 18.9996 8.62292 20.0197C8.18858 16.9409 9.25966 14.6284 9.75708 12.1739C8.90922 10.7466 9.85903 7.87382 11.6473 8.58171C13.8483 9.45209 9.74179 13.8887 12.4986 14.4428C15.3767 15.0214 16.5516 9.4489 14.7667 7.63637C12.1879 5.01952 7.26023 7.5769 7.86618 11.323C8.01379 12.2388 8.96019 12.5169 8.24423 13.7806C6.59375 13.4151 6.10143 12.1133 6.16472 10.3779C6.26688 7.53718 8.71722 5.54816 11.175 5.2729C14.2833 4.92501 17.2007 6.41428 17.6034 9.33803C18.0564 12.6379 16.2001 16.2116 12.8767 15.955Z" fill="#F1F2F2"/>
</svg>
