<svg width="26" height="26" viewBox="0 0 26 26" fill="none" xmlns="http://www.w3.org/2000/svg">
<path d="M12.915 24.83C19.4953 24.83 24.8297 19.4956 24.8297 12.9154C24.8297 6.33509 19.4953 1.00073 12.915 1.00073C6.33478 1.00073 1.00043 6.33509 1.00043 12.9154C1.00043 19.4956 6.33478 24.83 12.915 24.83Z" stroke="#DDE0E6" stroke-width="0.5"/>
<path d="M13.8765 16.955C12.9758 16.8854 12.5973 16.4387 11.8909 16.0099C11.5027 18.0469 11.0282 19.9996 9.6228 21.0197C9.18846 17.9409 10.2595 15.6284 10.757 13.1739C9.9091 11.7466 10.8589 8.87382 12.6472 9.58171C14.8482 10.4521 10.7417 14.8887 13.4985 15.4428C16.3766 16.0214 17.5515 10.4489 15.7666 8.63637C13.1878 6.01952 8.26011 8.5769 8.86605 12.323C9.01366 13.2388 9.96007 13.5169 9.24411 14.7806C7.59363 14.4151 7.10131 13.1133 7.1646 11.3779C7.26676 8.53718 9.7171 6.54816 12.1749 6.2729C15.2832 5.92501 18.2006 7.41428 18.6033 10.338C19.0563 13.6379 17.2 17.2116 13.8765 16.955Z" fill="#C0C4CB"/>
</svg>
