<svg width="26" height="26" viewBox="0 0 26 26" fill="none" xmlns="http://www.w3.org/2000/svg">
<path d="M12.915 24.8292C19.4953 24.8292 24.8297 19.4949 24.8297 12.9146C24.8297 6.33436 19.4953 1 12.915 1C6.33478 1 1.00043 6.33436 1.00043 12.9146C1.00043 19.4949 6.33478 24.8292 12.915 24.8292Z" stroke="#DDE0E6" stroke-width="0.5"/>
<path d="M20.213 9.5628C19.7024 9.78921 19.1531 9.94234 18.5771 10.0107C19.1652 9.65837 19.6166 9.10085 19.8296 8.43544C19.2793 8.76188 18.6695 8.99869 18.0211 9.12634C17.5016 8.57306 16.7614 8.22729 15.9418 8.22729C14.3693 8.22729 13.0939 9.50269 13.0939 11.0752C13.0939 11.2984 13.1192 11.5157 13.168 11.7243C10.8011 11.6056 8.70251 10.4718 7.29777 8.74829C7.05267 9.16882 6.91207 9.65837 6.91207 10.1802C6.91207 11.168 7.41522 12.0401 8.17897 12.5507C7.71236 12.536 7.27292 12.408 6.88913 12.1941C6.88892 12.2062 6.88892 12.2183 6.88892 12.2302C6.88892 13.6101 7.87101 14.761 9.17359 15.0225C8.93487 15.0879 8.68276 15.1225 8.42343 15.1225C8.23951 15.1225 8.06131 15.1049 7.88758 15.0718C8.24991 16.2029 9.30145 17.0264 10.548 17.0495C9.5731 17.8135 8.34528 18.2686 7.01062 18.2686C6.78124 18.2686 6.55398 18.2553 6.33161 18.2287C7.59129 19.0371 9.08864 19.5084 10.6969 19.5084C15.9352 19.5084 18.7999 15.1688 18.7999 11.4051C18.7999 11.2817 18.7972 11.1587 18.7916 11.0368C19.3485 10.6354 19.8313 10.1339 20.213 9.5628Z" fill="#C0C4CB"/>
</svg>
