<svg width="24" height="24" viewBox="0 0 24 24" fill="none" xmlns="http://www.w3.org/2000/svg">
<path d="M11.9151 23.8292C18.4954 23.8292 23.8297 18.4949 23.8297 11.9146C23.8297 5.33436 18.4954 0 11.9151 0C5.33485 0 0.000488281 5.33436 0.000488281 11.9146C0.000488281 18.4949 5.33485 23.8292 11.9151 23.8292Z" fill="#55ACEE"/>
<path d="M19.2131 8.5628C18.7025 8.78921 18.1533 8.94234 17.5773 9.01073C18.1654 8.65837 18.6167 8.10085 18.8298 7.43544C18.2795 7.76188 17.6697 7.99869 17.0213 8.12634C16.5018 7.57306 15.7616 7.22729 14.942 7.22729C13.3695 7.22729 12.0941 8.50269 12.0941 10.0752C12.0941 10.2984 12.1193 10.5157 12.1682 10.7243C9.80131 10.6056 7.70269 9.47183 6.29795 7.74829C6.05285 8.16882 5.91225 8.65837 5.91225 9.18021C5.91225 10.168 6.4154 11.0401 7.17915 11.5507C6.71253 11.536 6.2731 11.408 5.88931 11.1941C5.8891 11.2062 5.8891 11.2183 5.8891 11.2302C5.8891 12.6101 6.87119 13.761 8.17377 14.0225C7.93504 14.0879 7.68294 14.1225 7.42361 14.1225C7.23968 14.1225 7.06149 14.1049 6.88775 14.0718C7.25009 15.2029 8.30163 16.0264 9.54814 16.0495C8.57327 16.8135 7.34545 17.2686 6.0108 17.2686C5.78142 17.2686 5.55416 17.2553 5.33179 17.2287C6.59147 18.0371 8.08881 18.5084 9.69703 18.5084C14.9354 18.5084 17.8001 14.1688 17.8001 10.4051C17.8001 10.2817 17.7973 10.1587 17.7918 10.0368C18.3487 9.63537 18.8315 9.13391 19.2131 8.5628Z" fill="#F1F2F2"/>
</svg>
