<svg width="24" height="24" viewBox="0 0 24 24" fill="none" xmlns="http://www.w3.org/2000/svg">
<path d="M11.972 0C18.5843 0 23.944 5.36047 23.944 11.9721C23.944 18.5844 18.5843 23.944 11.972 23.944C5.35964 23.944 0 18.5843 0 11.9721C0 5.36047 5.35973 0 11.972 0Z" fill="#3185B5"/>
<path d="M17.1866 14.067C16.7925 13.5944 16.3288 13.191 15.89 12.7626C15.4942 12.3765 15.4693 12.1526 15.7875 11.7069C16.1347 11.2206 16.5082 10.7529 16.8587 10.2687C17.1858 9.81623 17.5202 9.36499 17.6923 8.82322C17.8015 8.47854 17.7049 8.3263 17.3515 8.26595C17.2906 8.25539 17.2276 8.25484 17.1656 8.25484L15.0686 8.25237C14.8104 8.24853 14.6676 8.36113 14.5762 8.59005C14.4529 8.89948 14.3258 9.20863 14.1789 9.50722C13.8456 10.1842 13.4733 10.8386 12.9515 11.3927C12.8364 11.5149 12.7091 11.6694 12.5168 11.6057C12.2762 11.5179 12.2053 11.1216 12.2093 10.9876L12.2072 8.56714C12.1606 8.22137 12.0839 8.06721 11.7406 8L9.56231 8.00041C9.27154 8.00041 9.12574 8.11274 8.97048 8.29461C8.88092 8.39968 8.8539 8.46784 9.03796 8.50268C9.39951 8.57126 9.60319 8.80525 9.65723 9.16775C9.74391 9.74697 9.73787 10.3285 9.68795 10.9101C9.67327 11.0799 9.64406 11.2492 9.57671 11.4078C9.47138 11.657 9.3013 11.7078 9.07788 11.5544C8.87557 11.4156 8.73347 11.2198 8.5944 11.0231C8.07197 10.2849 7.65515 9.48884 7.31527 8.65232C7.21707 8.41065 7.04768 8.26416 6.79161 8.26019C6.16247 8.25017 5.53319 8.24853 4.90405 8.26074C4.5255 8.26787 4.41262 8.45166 4.56678 8.79482C5.25202 10.3191 6.01475 11.8009 7.01037 13.1508C7.52156 13.8436 8.10845 14.4552 8.86665 14.8886C9.72594 15.3799 10.6509 15.5277 11.6252 15.4822C12.0813 15.4608 12.2184 15.3422 12.2395 14.8875C12.2537 14.5764 12.289 14.2671 12.4425 13.9876C12.5931 13.7133 12.8212 13.661 13.0841 13.8316C13.2156 13.9171 13.3264 14.0259 13.4311 14.1405C13.6879 14.4214 13.9354 14.7108 14.2019 14.9822C14.5362 15.3224 14.9321 15.5233 15.43 15.4823L17.3574 15.4827C17.6679 15.4624 17.8289 15.0817 17.6506 14.7351C17.5254 14.4923 17.3611 14.2762 17.1866 14.067Z" fill="white"/>
</svg>
