<svg width="26" height="26" viewBox="0 0 26 26" fill="none" xmlns="http://www.w3.org/2000/svg">
<path d="M12.972 1C19.5843 1 24.944 6.36047 24.944 12.9721C24.944 19.5844 19.5843 24.944 12.972 24.944C6.35964 24.944 1 19.5843 1 12.9721C1 6.36047 6.35973 1 12.972 1Z" stroke="#DDE0E6" stroke-width="0.5"/>
<path d="M18.1866 15.067C17.7925 14.5944 17.3288 14.191 16.89 13.7626C16.4942 13.3765 16.4693 13.1526 16.7875 12.7069C17.1347 12.2206 17.5082 11.7529 17.8587 11.2687C18.1858 10.8162 18.5202 10.365 18.6923 9.82322C18.8015 9.47854 18.7049 9.3263 18.3515 9.26595C18.2906 9.25539 18.2276 9.25484 18.1656 9.25484L16.0686 9.25237C15.8104 9.24853 15.6676 9.36113 15.5762 9.59005C15.4529 9.89948 15.3258 10.2086 15.1789 10.5072C14.8456 11.1842 14.4733 11.8386 13.9515 12.3927C13.8364 12.5149 13.7091 12.6694 13.5168 12.6057C13.2762 12.5179 13.2053 12.1216 13.2093 11.9876L13.2072 9.56714C13.1606 9.22137 13.0839 9.06721 12.7406 9L10.5623 9.00041C10.2715 9.00041 10.1257 9.11274 9.97048 9.29461C9.88092 9.39968 9.8539 9.46784 10.038 9.50268C10.3995 9.57126 10.6032 9.80525 10.6572 10.1678C10.7439 10.747 10.7379 11.3285 10.6879 11.9101C10.6733 12.0799 10.6441 12.2492 10.5767 12.4078C10.4714 12.657 10.3013 12.7078 10.0779 12.5544C9.87557 12.4156 9.73347 12.2198 9.5944 12.0231C9.07197 11.2849 8.65515 10.4888 8.31527 9.65232C8.21707 9.41065 8.04768 9.26416 7.79161 9.26019C7.16247 9.25017 6.53319 9.24853 5.90405 9.26074C5.5255 9.26787 5.41262 9.45166 5.56678 9.79482C6.25202 11.3191 7.01475 12.8009 8.01037 14.1508C8.52156 14.8436 9.10845 15.4552 9.86665 15.8886C10.7259 16.3799 11.6509 16.5277 12.6252 16.4822C13.0813 16.4608 13.2184 16.3422 13.2395 15.8875C13.2537 15.5764 13.289 15.2671 13.4425 14.9876C13.5931 14.7133 13.8212 14.661 14.0841 14.8316C14.2156 14.9171 14.3264 15.0259 14.4311 15.1405C14.6879 15.4214 14.9354 15.7108 15.2019 15.9822C15.5362 16.3224 15.9321 16.5233 16.43 16.4823L18.3574 16.4827C18.6679 16.4624 18.8289 16.0817 18.6506 15.7351C18.5254 15.4923 18.3611 15.2762 18.1866 15.067Z" fill="#C0C4CB"/>
</svg>
