<svg width="26" height="26" viewBox="0 0 26 26" fill="none" xmlns="http://www.w3.org/2000/svg">
<path d="M13 25C19.6274 25 25 19.6274 25 13C25 6.37258 19.6274 1 13 1C6.37258 1 1 6.37258 1 13C1 19.6274 6.37258 25 13 25Z" stroke="#DDE0E6" stroke-width="0.5"/>
<path fill-rule="evenodd" clip-rule="evenodd" d="M11.0617 10.9898H10.2024L10.2011 8.02155L9.12126 5.4707H10.0509L10.5983 7.36571L11.1379 5.47562H12.0776L11.0625 8.01983L11.0617 10.9898ZM12.102 7.5395C12.0407 7.7487 12.0096 8.03881 12.0096 8.41056H12.0097V9.43587C12.0097 9.77542 12.026 10.0299 12.0605 10.1995C12.0944 10.3689 12.1507 10.5142 12.2314 10.6336C12.3108 10.7527 12.4226 10.8426 12.567 10.9021C12.7108 10.9621 12.886 10.9907 13.0932 10.9907C13.2793 10.9907 13.4436 10.9566 13.5872 10.8867C13.7297 10.8177 13.8472 10.7096 13.9382 10.5648C14.0303 10.4187 14.0897 10.2628 14.1172 10.0945C14.1451 9.92658 14.1594 9.66244 14.1594 9.3032V8.32377C14.1594 8.04013 14.1447 7.82921 14.114 7.68975C14.0838 7.55201 14.0281 7.41731 13.9451 7.28635C13.8644 7.1558 13.7471 7.05027 13.5961 6.96879C13.4451 6.88786 13.2645 6.84639 13.054 6.84639C12.8039 6.84639 12.5977 6.90984 12.4367 7.037C12.2756 7.16319 12.1638 7.33086 12.102 7.5395ZM14.7688 10.5976C14.8107 10.7003 14.8761 10.7831 14.9653 10.846C15.0526 10.9073 15.1652 10.9386 15.2995 10.9386C15.4172 10.9386 15.5216 10.9068 15.6122 10.8411C15.7029 10.7757 15.7795 10.6783 15.8416 10.548L15.8261 10.8686H16.7365V6.99625H16.0197V10.01C16.0197 10.173 15.885 10.3065 15.7207 10.3065C15.5575 10.3065 15.4224 10.173 15.4224 10.01V6.99625H14.6745V9.60792C14.6745 9.94067 14.6804 10.1625 14.6904 10.2751C14.7011 10.3869 14.7267 10.4939 14.7688 10.5976ZM19.1025 17.7545V13.5969C19.1025 12.5996 18.2377 11.7831 17.1804 11.7831H9.27682C8.21915 11.7831 7.35452 12.5994 7.35452 13.5969V17.7545C7.35452 18.7518 8.2191 19.5679 9.27682 19.5679H17.1802C18.2377 19.5679 19.1025 18.752 19.1025 17.7545ZM14.3895 14.8192C14.1937 14.8192 14.0331 14.9513 14.0331 15.1127V17.2984C14.0331 17.4598 14.1937 17.5912 14.3895 17.5912C14.5867 17.5912 14.7474 17.4598 14.7474 17.2984V15.1125C14.7474 14.9513 14.5867 14.8192 14.3895 14.8192ZM17.2921 15.7824H16.5179L16.5217 15.333C16.5217 15.133 16.6856 14.9699 16.8863 14.9699H16.9359C17.1366 14.9699 17.3012 15.1331 17.3012 15.333L17.2921 15.7824ZM9.80379 18.2059L9.80343 13.8264L10.7831 13.8267V13.1776L8.1714 13.1736V13.8114L8.98676 13.8139V18.2059H9.80379ZM11.9239 14.4789H12.7406V18.2047L12.0848 18.2037L12.0863 17.7209C11.9101 18.0994 11.2056 18.4039 10.8384 18.1388C10.6651 18.015 10.6494 17.8091 10.6348 17.617C10.6327 17.59 10.6307 17.5632 10.6282 17.537C10.6212 17.4583 10.6223 17.3182 10.6239 17.1315V17.1315C10.6248 17.0322 10.6257 16.9197 10.6256 16.7963L10.6225 14.4787H11.4349L11.4387 16.8334C11.4388 16.9557 11.4364 17.0585 11.4344 17.1425C11.4311 17.2793 11.4291 17.3658 11.4413 17.4043C11.5575 17.7585 11.8561 17.566 11.9228 17.3846C11.9357 17.3488 11.9334 17.273 11.9296 17.1444C11.9271 17.0596 11.9239 16.9519 11.9239 16.8175V14.4789ZM15.3539 17.1569L15.3524 15.2103C15.3517 14.4683 14.7969 14.024 14.0431 14.6242L14.0465 13.1769L13.2304 13.1783L13.2264 18.1733L13.8973 18.1634L13.9584 17.852C14.8161 18.6396 15.3554 18.1003 15.3539 17.1569ZM17.298 16.9022L17.9108 16.899C18.1899 18.5585 15.8466 18.8312 15.8461 16.9019V15.7413C15.8461 15.393 15.8806 15.1193 15.9501 14.9186C16.0194 14.7177 16.1379 14.5684 16.2932 14.4568C16.7881 14.0996 17.7674 14.2103 17.8676 14.9081C17.8995 15.1287 17.9095 15.5143 17.9095 15.8999V16.4278H16.5069V16.9129V17.2892V17.3271C16.5069 17.5099 16.6579 17.6589 16.8419 17.6589H16.9619C17.1455 17.6589 17.2965 17.5099 17.2965 17.3271V16.9852L17.2973 16.9473C17.2977 16.9313 17.298 16.9162 17.298 16.9022ZM12.7224 9.94895C12.7224 10.168 12.8859 10.347 13.0847 10.347C13.2834 10.347 13.4458 10.1682 13.4458 9.94895V7.88739C13.4458 7.66837 13.2834 7.4893 13.0847 7.4893C12.8859 7.4893 12.7224 7.66816 12.7224 7.88739V9.94895Z" fill="#C0C4CB"/>
</svg>
