<svg width="24" height="24" viewBox="0 0 24 24" fill="none" xmlns="http://www.w3.org/2000/svg">
<path d="M12 24C18.6274 24 24 18.6274 24 12C24 5.37258 18.6274 0 12 0C5.37258 0 0 5.37258 0 12C0 18.6274 5.37258 24 12 24Z" fill="#FF4347"/>
<path fill-rule="evenodd" clip-rule="evenodd" d="M10.0617 9.98977H9.20239L9.20108 7.02155L8.12122 4.4707H9.05083L9.59825 6.36571L10.1379 4.47562H11.0775L10.0625 7.01983L10.0617 9.98977ZM11.102 6.5395C11.0406 6.7487 11.0095 7.03881 11.0095 7.41056H11.0097V8.43587C11.0097 8.77542 11.026 9.02988 11.0605 9.19948C11.0944 9.36887 11.1507 9.51421 11.2314 9.63357C11.3108 9.75272 11.4226 9.84256 11.567 9.90206C11.7108 9.96212 11.8859 9.99073 12.0932 9.99073C12.2793 9.99073 12.4436 9.95665 12.5872 9.88672C12.7297 9.81774 12.8472 9.70958 12.9381 9.5648C13.0302 9.4187 13.0897 9.26278 13.1172 9.0945C13.145 8.92658 13.1594 8.66244 13.1594 8.3032V7.32377C13.1594 7.04013 13.1446 6.82921 13.1139 6.68975C13.0838 6.55201 13.0281 6.41731 12.9451 6.28635C12.8644 6.1558 12.7471 6.05027 12.5961 5.96879C12.4451 5.88786 12.2645 5.84639 12.054 5.84639C11.8039 5.84639 11.5977 5.90984 11.4366 6.037C11.2756 6.16319 11.1638 6.33086 11.102 6.5395ZM13.7688 9.59758C13.8106 9.70028 13.876 9.78307 13.9653 9.84597C14.0526 9.90734 14.1652 9.93864 14.2995 9.93864C14.4172 9.93864 14.5215 9.90679 14.6121 9.84106C14.7029 9.77568 14.7794 9.6783 14.8416 9.54795L14.826 9.86855H15.7365V5.99625H15.0197V9.01C15.0197 9.17296 14.885 9.30655 14.7207 9.30655C14.5575 9.30655 14.4224 9.17296 14.4224 9.01V5.99625H13.6745V8.60792C13.6745 8.94067 13.6804 9.16253 13.6904 9.2751C13.7011 9.38686 13.7267 9.49392 13.7688 9.59758ZM18.1025 16.7545V12.5969C18.1025 11.5996 17.2376 10.7831 16.1804 10.7831H8.27679C7.21912 10.7831 6.35449 11.5994 6.35449 12.5969V16.7545C6.35449 17.7518 7.21907 18.5679 8.27679 18.5679H16.1802C17.2377 18.5679 18.1025 17.752 18.1025 16.7545ZM13.3894 13.8192C13.1937 13.8192 13.033 13.9513 13.033 14.1127V16.2984C13.033 16.4598 13.1937 16.5912 13.3894 16.5912C13.5867 16.5912 13.7474 16.4598 13.7474 16.2984V14.1125C13.7474 13.9513 13.5867 13.8192 13.3894 13.8192ZM16.2921 14.7824H15.5179L15.5217 14.333C15.5217 14.133 15.6856 13.9699 15.8862 13.9699H15.9359C16.1366 13.9699 16.3012 14.1331 16.3012 14.333L16.2921 14.7824ZM8.80376 17.2059L8.8034 12.8264L9.78304 12.8267V12.1776L7.17137 12.1736V12.8114L7.98673 12.8139V17.2059H8.80376ZM10.9239 13.4789H11.7405V17.2047L11.0847 17.2037L11.0863 16.7209C10.91 17.0994 10.2056 17.4039 9.83833 17.1388C9.66506 17.015 9.64937 16.8091 9.63473 16.617C9.63267 16.59 9.63063 16.5632 9.62818 16.537C9.62114 16.4583 9.62232 16.3182 9.62388 16.1315V16.1315C9.62472 16.0322 9.62567 15.9197 9.62554 15.7963L9.6225 13.4787H10.4348L10.4386 15.8334C10.4388 15.9557 10.4363 16.0585 10.4343 16.1425C10.4311 16.2793 10.429 16.3658 10.4413 16.4043C10.5574 16.7585 10.856 16.566 10.9227 16.3846C10.9356 16.3488 10.9334 16.273 10.9296 16.1444C10.9271 16.0596 10.9239 15.9519 10.9239 15.8175V13.4789ZM14.3539 16.1569L14.3524 14.2103C14.3516 13.4683 13.7968 13.024 13.043 13.6242L13.0464 12.1769L12.2303 12.1783L12.2263 17.1733L12.8973 17.1634L12.9583 16.852C13.8161 17.6396 14.3554 17.1003 14.3539 16.1569ZM16.298 15.9022L16.9108 15.899C17.1899 17.5585 14.8465 17.8312 14.846 15.9019V14.7413C14.846 14.393 14.8805 14.1193 14.9501 13.9186C15.0194 13.7177 15.1378 13.5684 15.2932 13.4568C15.7881 13.0996 16.7674 13.2103 16.8676 13.9081C16.8994 14.1287 16.9095 14.5143 16.9095 14.8999V15.4278H15.5069V15.9129V16.2892V16.3271C15.5069 16.5099 15.6579 16.6589 15.8419 16.6589H15.9618C16.1455 16.6589 16.2965 16.5099 16.2965 16.3271V15.9852L16.2972 15.9473C16.2976 15.9313 16.298 15.9162 16.298 15.9022ZM11.7224 8.94895C11.7224 9.16797 11.8859 9.34703 12.0846 9.34703C12.2834 9.34703 12.4458 9.16817 12.4458 8.94895V6.88739C12.4458 6.66837 12.2834 6.4893 12.0846 6.4893C11.8859 6.4893 11.7224 6.66816 11.7224 6.88739V8.94895Z" fill="white"/>
</svg>
