<?xml version="1.0" encoding="UTF-8"?>
<!DOCTYPE svg PUBLIC "-//W3C//DTD SVG 1.1//EN" "http://www.w3.org/Graphics/SVG/1.1/DTD/svg11.dtd">
<!-- Creator: CorelDRAW 2018 (64-Bit) -->
<svg xmlns="http://www.w3.org/2000/svg" xml:space="preserve" width="200px" height="200px" version="1.1" style="shape-rendering:geometricPrecision; text-rendering:geometricPrecision; image-rendering:optimizeQuality; fill-rule:evenodd; clip-rule:evenodd"
viewBox="0 0 114.29 114.29"
 xmlns:xlink="http://www.w3.org/1999/xlink">
 <defs>
  <style type="text/css">
   <![CDATA[
    .fil1 {fill:gray}
    .fil0 {fill:#CCCCCC}
   ]]>
  </style>
 </defs>
 <g id="Слой_x0020_1">
  <metadata id="CorelCorpID_0Corel-Layer"/>
  <rect class="fil0" width="114.29" height="114.29"/>
  <path class="fil1" d="M97.57 99.94c0,2.99 -2.91,5.42 -6.5,5.42 -2.37,0 -4.44,-1.06 -5.58,-2.63 -0.37,0.04 -0.75,0.06 -1.13,0.06 -3.43,0 -6.36,-1.78 -7.52,-4.3 -0.75,0.31 -1.6,0.49 -2.5,0.49 -0.57,0 -1.12,-0.07 -1.65,-0.21 -0.84,2.96 -4.03,5.15 -7.83,5.15 -1.47,0 -2.85,-0.33 -4.04,-0.9 -0.37,0.11 -0.76,0.18 -1.17,0.21 -0.61,1.51 -2.33,2.61 -4.36,2.61 -1.31,0 -2.5,-0.46 -3.33,-1.2 -1.23,0.62 -2.66,0.98 -4.2,0.98 -2.48,0 -4.7,-0.94 -6.18,-2.41 -0.23,0.03 -0.47,0.04 -0.71,0.04 -1.31,0 -2.51,-0.41 -3.43,-1.08 -0.64,0.31 -1.39,0.48 -2.18,0.48 -0.54,0 -1.05,-0.08 -1.53,-0.22 -0.66,0.14 -1.36,0.22 -2.08,0.22 -3,0 -5.61,-1.37 -7,-3.39 -1.13,0.85 -2.64,1.37 -4.29,1.37 -3.54,0 -6.41,-2.4 -6.41,-5.35 0,-0.86 0.24,-1.67 0.67,-2.39 -4.21,-0.22 -7.55,-3.13 -7.55,-6.7 0,-1.09 0.31,-2.13 0.87,-3.04 -2.26,-0.54 -3.91,-2.27 -3.91,-4.33 0,-2.48 2.42,-4.5 5.41,-4.5 -1.76,0.62 -3.31,1.99 -3.31,4.13 0,2.14 1.55,3.58 3.68,4.09 -0.52,0.86 -0.82,1.83 -0.82,2.86 0,3.37 3.15,6.12 7.13,6.32 -0.41,0.68 -0.64,1.45 -0.64,2.26 0,2.79 2.72,5.05 6.06,5.05 1.56,0 2.98,-0.49 4.05,-1.29 1.31,1.91 3.78,3.2 6.61,3.2 0.67,0 1.33,-0.07 1.96,-0.21 0.45,0.13 0.93,0.21 1.44,0.21 0.75,0 1.45,-0.16 2.06,-0.45 0.87,0.63 2,1.02 3.24,1.02 0.23,0 0.45,-0.02 0.67,-0.04 1.39,1.39 3.49,2.27 5.83,2.27 1.45,0 2.81,-0.34 3.96,-0.93 0.79,0.7 1.91,1.14 3.15,1.14 1.91,0 3.54,-1.04 4.11,-2.47 0.39,-0.02 0.76,-0.09 1.1,-0.19 7.12,2.81 10.43,-0.03 11.28,-4.93 2.72,1.37 5.17,0.7 7.24,-1.47 0.59,4.41 4.19,5.97 7.46,5.59 4.76,6.61 11.87,0.92 11.87,-0.54z"/>
  <path class="fil1" d="M53.22 59.64c0,1.38 -1.33,2.49 -2.99,2.49 -1.09,0 -2.04,-0.48 -2.56,-1.21 -0.17,0.02 -0.35,0.03 -0.52,0.03 -1.58,0 -2.93,-0.82 -3.46,-1.98 -0.35,0.15 -0.74,0.23 -1.15,0.23 -0.26,0 -0.52,-0.03 -0.76,-0.1 -0.39,1.36 -1.85,2.37 -3.6,2.37 -0.68,0 -1.31,-0.15 -1.86,-0.41 -0.17,0.05 -0.35,0.08 -0.54,0.09 -0.28,0.7 -1.07,1.2 -2,1.2 -0.61,0 -1.15,-0.21 -1.54,-0.55 -0.56,0.29 -1.22,0.45 -1.93,0.45 -1.14,0 -2.16,-0.43 -2.84,-1.1 -0.1,0.01 -0.21,0.01 -0.32,0.01 -0.61,0 -1.16,-0.18 -1.58,-0.49 -0.3,0.14 -0.64,0.22 -1.01,0.22 -0.24,0 -0.48,-0.04 -0.7,-0.11 -0.31,0.07 -0.63,0.11 -0.96,0.11 -1.37,0 -2.58,-0.63 -3.22,-1.56 -0.52,0.39 -1.21,0.63 -1.97,0.63 -1.63,0 -2.95,-1.1 -2.95,-2.46 0,-0.4 0.11,-0.77 0.31,-1.1 -1.94,-0.1 -3.47,-1.44 -3.47,-3.08 0,-0.51 0.14,-0.98 0.4,-1.4 -1.04,-0.25 -1.8,-1.05 -1.8,-1.99 0,-1.15 1.11,-2.07 2.48,-2.07 -0.8,0.28 -1.52,0.91 -1.52,1.9 0,0.98 0.72,1.64 1.7,1.88 -0.24,0.39 -0.38,0.84 -0.38,1.31 0,1.55 1.45,2.82 3.28,2.91 -0.19,0.31 -0.29,0.67 -0.29,1.04 0,1.28 1.24,2.32 2.78,2.32 0.72,0 1.37,-0.22 1.86,-0.59 0.61,0.88 1.74,1.47 3.04,1.47 0.32,0 0.62,-0.03 0.91,-0.1 0.2,0.07 0.43,0.1 0.66,0.1 0.34,0 0.67,-0.07 0.95,-0.21 0.4,0.29 0.92,0.47 1.49,0.47 0.1,0 0.2,0 0.31,-0.02 0.64,0.64 1.6,1.05 2.68,1.05 0.66,0 1.29,-0.16 1.82,-0.43 0.36,0.32 0.88,0.52 1.45,0.52 0.88,0 1.62,-0.47 1.89,-1.13 0.18,-0.01 0.35,-0.04 0.51,-0.09 0.51,0.25 0.6,0.39 1.75,0.39 1.15,0 3.07,-1.37 3.43,-2.66 1.25,0.63 2.38,0.32 3.33,-0.67 0.58,1.24 1.93,2.75 3.43,2.57 2.19,3.04 5.46,0.42 5.46,-0.25z"/>
  <path class="fil1" d="M31.93 13.68c0,-2.5 2.43,-4.53 5.43,-4.53 1.97,0 3.71,0.88 4.65,2.2 0.31,-0.03 0.63,-0.05 0.95,-0.05 2.87,0 5.31,1.49 6.28,3.59 0.63,-0.26 1.34,-0.41 2.09,-0.41 0.48,0 0.94,0.06 1.37,0.17 0.71,-2.46 3.37,-4.3 6.55,-4.3 1.23,0 2.38,0.28 3.37,0.76 0.31,-0.09 0.64,-0.15 0.98,-0.18 0.51,-1.26 1.94,-2.18 3.64,-2.18 1.1,0 2.09,0.39 2.79,1.01 1.02,-0.52 2.22,-0.82 3.5,-0.82 2.07,0 3.93,0.78 5.16,2.01 0.19,-0.02 0.39,-0.04 0.59,-0.04 1.1,0 2.1,0.34 2.87,0.9 0.54,-0.25 1.16,-0.4 1.82,-0.4 0.45,0 0.88,0.07 1.28,0.19 0.55,-0.12 1.13,-0.19 1.73,-0.19 2.51,0 4.69,1.15 5.85,2.84 0.95,-0.71 2.21,-1.15 3.58,-1.15 2.96,0 5.36,2 5.36,4.47 0,0.72 -0.2,1.4 -0.56,2 3.52,0.18 6.31,2.62 6.31,5.59 0,0.92 -0.26,1.78 -0.73,2.54 1.89,0.45 3.26,1.9 3.26,3.62 0,2.07 -2.02,3.76 -4.51,3.76 1.47,-0.52 2.76,-1.66 2.76,-3.45 0,-1.79 -1.3,-2.99 -3.08,-3.41 0.44,-0.72 0.69,-1.54 0.69,-2.4 0,-2.81 -2.63,-5.11 -5.95,-5.28 0.34,-0.57 0.53,-1.21 0.53,-1.89 0,-2.32 -2.27,-4.21 -5.06,-4.21 -1.3,0 -2.49,0.41 -3.38,1.08 -1.09,-1.6 -3.16,-2.68 -5.52,-2.68 -0.57,0 -1.12,0.07 -1.64,0.18 -0.37,-0.11 -0.78,-0.18 -1.2,-0.18 -0.63,0 -1.22,0.14 -1.73,0.38 -0.72,-0.53 -1.66,-0.85 -2.7,-0.85 -0.19,0 -0.38,0.01 -0.56,0.03 -1.16,-1.16 -2.91,-1.89 -4.87,-1.89 -1.21,0 -2.34,0.28 -3.31,0.77 -0.66,-0.58 -1.59,-0.95 -2.63,-0.95 -1.6,0 -2.95,0.86 -3.43,2.06 -0.32,0.02 -0.63,0.08 -0.92,0.16 -0.94,-0.45 -1.11,-0.71 -3.19,-0.71 -2.08,0 -5.57,2.5 -6.23,4.83 -2.27,-1.14 -4.32,-0.58 -6.05,1.22 -1.04,-2.25 -3.5,-4.98 -6.23,-4.66 -3.97,-5.52 -9.91,-0.77 -9.91,0.45z"/>
  <path class="fil1" d="M48.65 44.12c0,1.37 1.34,2.49 2.99,2.49 1.09,0 2.04,-0.49 2.56,-1.21 0.17,0.02 0.35,0.03 0.52,0.03 1.58,0 2.93,-0.82 3.46,-1.98 0.35,0.14 0.74,0.22 1.15,0.22 0.27,0 0.52,-0.03 0.76,-0.09 0.39,1.36 1.85,2.37 3.6,2.37 0.68,0 1.32,-0.15 1.86,-0.42 0.17,0.05 0.35,0.08 0.54,0.1 0.28,0.7 1.07,1.2 2,1.2 0.61,0 1.15,-0.21 1.54,-0.55 0.56,0.28 1.22,0.45 1.93,0.45 1.14,0 2.16,-0.43 2.84,-1.11 0.11,0.01 0.22,0.02 0.33,0.02 0.6,0 1.15,-0.19 1.57,-0.5 0.3,0.14 0.64,0.22 1.01,0.22 0.25,0 0.48,-0.03 0.7,-0.1 0.31,0.07 0.63,0.1 0.96,0.1 1.38,0 2.58,-0.63 3.22,-1.56 0.52,0.39 1.21,0.63 1.97,0.63 1.63,0 2.95,-1.1 2.95,-2.46 0,-0.39 -0.11,-0.77 -0.31,-1.1 1.94,-0.1 3.48,-1.44 3.48,-3.08 0,-0.5 -0.15,-0.98 -0.4,-1.4 1.03,-0.25 1.79,-1.04 1.79,-1.99 0,-1.14 -1.11,-2.07 -2.48,-2.07 0.81,0.29 1.52,0.91 1.52,1.9 0,0.99 -0.72,1.65 -1.7,1.88 0.24,0.4 0.38,0.84 0.38,1.32 0,1.55 -1.45,2.81 -3.28,2.91 0.19,0.31 0.29,0.66 0.29,1.04 0,1.28 -1.24,2.32 -2.78,2.32 -0.72,0 -1.37,-0.23 -1.86,-0.6 -0.61,0.88 -1.74,1.47 -3.04,1.47 -0.31,0 -0.62,-0.03 -0.9,-0.09 -0.21,0.06 -0.43,0.09 -0.67,0.09 -0.34,0 -0.67,-0.07 -0.95,-0.2 -0.39,0.29 -0.91,0.47 -1.49,0.47 -0.1,0 -0.2,-0.01 -0.3,-0.02 -0.64,0.64 -1.61,1.04 -2.69,1.04 -0.66,0 -1.29,-0.15 -1.82,-0.42 -0.36,0.32 -0.88,0.52 -1.45,0.52 -0.88,0 -1.62,-0.48 -1.89,-1.14 -0.17,-0.01 -0.34,-0.04 -0.5,-0.09 -0.52,0.25 -0.61,0.4 -1.76,0.4 -1.14,0 -3.07,-1.38 -3.43,-2.66 -1.25,0.63 -2.38,0.32 -3.33,-0.68 -0.57,1.25 -1.93,2.75 -3.43,2.57 -2.19,3.04 -5.46,0.43 -5.46,-0.24z"/>
  <path class="fil1" d="M41.7 78.74c0,2.06 2,3.73 4.47,3.73 1.63,0 3.06,-0.73 3.84,-1.81 0.26,0.03 0.52,0.04 0.78,0.04 2.37,0 4.38,-1.23 5.18,-2.96 0.52,0.22 1.1,0.34 1.72,0.34 0.4,0 0.78,-0.05 1.13,-0.14 0.59,2.03 2.78,3.54 5.4,3.54 1.01,0 1.96,-0.23 2.78,-0.62 0.25,0.07 0.52,0.12 0.8,0.14 0.42,1.05 1.61,1.8 3,1.8 0.91,0 1.72,-0.32 2.3,-0.83 0.84,0.43 1.83,0.68 2.89,0.68 1.71,0 3.23,-0.65 4.25,-1.66 0.16,0.02 0.32,0.03 0.49,0.03 0.9,0 1.73,-0.28 2.36,-0.74 0.44,0.2 0.96,0.32 1.51,0.32 0.37,0 0.72,-0.05 1.05,-0.15 0.45,0.1 0.93,0.15 1.43,0.15 2.06,0 3.86,-0.94 4.82,-2.33 0.78,0.59 1.81,0.94 2.95,0.94 2.44,0 4.42,-1.65 4.42,-3.68 0,-0.59 -0.17,-1.15 -0.47,-1.65 2.9,-0.14 5.2,-2.15 5.2,-4.61 0,-0.75 -0.21,-1.46 -0.6,-2.09 1.56,-0.37 2.69,-1.56 2.69,-2.98 0,-1.71 -1.66,-3.1 -3.72,-3.1 1.21,0.43 2.28,1.37 2.28,2.84 0,1.48 -1.07,2.47 -2.54,2.82 0.36,0.59 0.57,1.26 0.57,1.97 0,2.32 -2.17,4.21 -4.91,4.35 0.28,0.47 0.44,1 0.44,1.56 0,1.92 -1.87,3.47 -4.17,3.47 -1.07,0 -2.05,-0.33 -2.79,-0.89 -0.9,1.32 -2.6,2.21 -4.55,2.21 -0.46,0 -0.92,-0.05 -1.35,-0.15 -0.31,0.09 -0.64,0.15 -0.99,0.15 -0.52,0 -1,-0.12 -1.42,-0.31 -0.59,0.43 -1.37,0.7 -2.23,0.7 -0.15,0 -0.31,-0.01 -0.46,-0.03 -0.96,0.96 -2.4,1.56 -4.01,1.56 -1,0 -1.93,-0.23 -2.73,-0.63 -0.54,0.48 -1.31,0.78 -2.17,0.78 -1.31,0 -2.43,-0.71 -2.83,-1.7 -0.26,-0.02 -0.52,-0.06 -0.76,-0.14 -0.77,0.38 -0.91,0.59 -2.62,0.59 -1.72,0 -4.59,-2.06 -5.14,-3.98 -1.87,0.94 -3.56,0.48 -4.98,-1.01 -0.86,1.87 -2.89,4.11 -5.14,3.85 -3.27,4.55 -8.17,0.64 -8.17,-0.37z"/>
 </g>
</svg>
