<?xml version="1.0" encoding="UTF-8"?>
<!DOCTYPE svg PUBLIC "-//W3C//DTD SVG 1.1//EN" "http://www.w3.org/Graphics/SVG/1.1/DTD/svg11.dtd">
<!-- Creator: CorelDRAW 2018 (64-Bit) -->
<svg xmlns="http://www.w3.org/2000/svg" xml:space="preserve" width="200px" height="200px" version="1.1" style="shape-rendering:geometricPrecision; text-rendering:geometricPrecision; image-rendering:optimizeQuality; fill-rule:evenodd; clip-rule:evenodd"
viewBox="0 0 87.58 87.58"
 xmlns:xlink="http://www.w3.org/1999/xlink">
 <defs>
  <style type="text/css">
   <![CDATA[
    .fil1 {fill:#00459A}
    .fil0 {fill:#007FBA}
    .fil2 {fill:aqua}
   ]]>
  </style>
 </defs>
 <g id="Слой_x0020_1">
  <metadata id="CorelCorpID_0Corel-Layer"/>
  <rect class="fil0" width="87.58" height="87.58"/>
  <path class="fil1" d="M37.7 53.93c-2.66,0 -6.01,-3.73 -7.76,-6.52 -1.74,2.79 -5.09,4.14 -7.75,4.14 -2.66,0 -6.01,-1.35 -7.76,-4.14 -1.75,2.79 -5.1,6.52 -7.76,6.52 2.66,0 6.01,-1.35 7.76,-4.15 1.75,2.8 5.1,4.15 7.76,4.15 2.66,0 6.01,-1.35 7.75,-4.15 1.75,2.8 5.1,4.15 7.76,4.15z"/>
  <path class="fil1" d="M25.85 35.46c-1.78,0 -4.02,-2.49 -5.19,-4.36 -1.17,1.87 -3.41,2.78 -5.19,2.78 -1.78,0 -4.02,-0.91 -5.19,-2.78 -1.17,1.87 -3.41,4.36 -5.19,4.36 1.78,0 4.02,-0.9 5.19,-2.77 1.17,1.87 3.41,2.77 5.19,2.77 1.78,0 4.02,-0.9 5.19,-2.77 1.17,1.87 3.41,2.77 5.19,2.77z"/>
  <path class="fil1" d="M54.93 28.4c-1.78,0 -4.02,-2.49 -5.19,-4.36 -1.17,1.87 -3.41,2.77 -5.19,2.77 -1.78,0 -4.02,-0.9 -5.19,-2.77 -1.17,1.87 -3.41,4.36 -5.19,4.36 1.78,0 4.02,-0.9 5.19,-2.77 1.17,1.87 3.41,2.77 5.19,2.77 1.78,0 4.02,-0.9 5.19,-2.77 1.17,1.87 3.41,2.77 5.19,2.77z"/>
  <path class="fil1" d="M77.78 37.31c-2.52,0 -5.71,-3.54 -7.37,-6.19 -1.66,2.65 -4.85,3.94 -7.37,3.94 -2.53,0 -5.72,-1.29 -7.38,-3.94 -1.66,2.65 -4.84,6.19 -7.37,6.19 2.53,0 5.71,-1.28 7.37,-3.94 1.66,2.66 4.85,3.94 7.38,3.94 2.52,0 5.71,-1.28 7.37,-3.94 1.66,2.66 4.85,3.94 7.37,3.94z"/>
  <path class="fil1" d="M80.15 51.72c-1.21,0 -2.74,-1.7 -3.53,-2.97 -0.8,1.27 -2.32,1.89 -3.53,1.89 -1.21,0 -2.73,-0.62 -3.53,-1.89 -0.79,1.27 -2.31,2.97 -3.52,2.97 1.21,0 2.73,-0.62 3.52,-1.89 0.8,1.27 2.32,1.89 3.53,1.89 1.21,0 2.73,-0.62 3.53,-1.89 0.79,1.27 2.32,1.89 3.53,1.89z"/>
  <path class="fil1" d="M59.13 62.02c-1.78,0 -4.02,-2.49 -5.19,-4.36 -1.17,1.87 -3.41,2.78 -5.19,2.78 -1.78,0 -4.02,-0.91 -5.19,-2.78 -1.17,1.87 -3.41,4.36 -5.19,4.36 1.78,0 4.02,-0.9 5.19,-2.77 1.17,1.87 3.41,2.77 5.19,2.77 1.78,0 4.02,-0.9 5.19,-2.77 1.17,1.87 3.41,2.77 5.19,2.77z"/>
  <path class="fil1" d="M37.45 67.69c-1.14,0 -2.58,-1.6 -3.33,-2.8 -0.75,1.2 -2.19,1.78 -3.33,1.78 -1.14,0 -2.58,-0.58 -3.33,-1.78 -0.75,1.2 -2.19,2.8 -3.33,2.8 1.14,0 2.58,-0.58 3.33,-1.78 0.75,1.2 2.19,1.78 3.33,1.78 1.14,0 2.58,-0.58 3.33,-1.78 0.75,1.2 2.19,1.78 3.33,1.78z"/>
  <path class="fil1" d="M19.53 77.52c-1.11,0 -2.5,-1.55 -3.23,-2.71 -0.73,1.16 -2.13,1.73 -3.23,1.73 -1.11,0 -2.51,-0.57 -3.24,-1.73 -0.72,1.16 -2.12,2.71 -3.23,2.71 1.11,0 2.51,-0.56 3.23,-1.72 0.73,1.16 2.13,1.72 3.24,1.72 1.1,0 2.5,-0.56 3.23,-1.72 0.73,1.16 2.12,1.72 3.23,1.72z"/>
  <path class="fil1" d="M61.32 78c-2.26,0 -5.11,-3.17 -6.6,-5.55 -1.49,2.38 -4.34,3.53 -6.6,3.53 -2.27,0 -5.12,-1.15 -6.6,-3.53 -1.49,2.38 -4.34,5.55 -6.6,5.55 2.26,0 5.11,-1.15 6.6,-3.53 1.48,2.38 4.33,3.53 6.6,3.53 2.26,0 5.11,-1.15 6.6,-3.53 1.49,2.38 4.34,3.53 6.6,3.53z"/>
  <path class="fil1" d="M82.16 82.93c-1.32,0 -2.99,-1.85 -3.87,-3.25 -0.87,1.4 -2.54,2.07 -3.86,2.07 -1.33,0 -3,-0.67 -3.87,-2.07 -0.88,1.4 -2.55,3.25 -3.87,3.25 1.32,0 2.99,-0.67 3.87,-2.06 0.87,1.39 2.54,2.06 3.87,2.06 1.32,0 2.99,-0.67 3.86,-2.06 0.88,1.39 2.55,2.06 3.87,2.06z"/>
  <path class="fil1" d="M83.93 69.76c-1.78,0 -4.02,-2.49 -5.19,-4.36 -1.17,1.87 -3.41,2.77 -5.19,2.77 -1.78,0 -4.02,-0.9 -5.19,-2.77 -1.17,1.87 -3.41,4.36 -5.19,4.36 1.78,0 4.02,-0.91 5.19,-2.78 1.17,1.87 3.41,2.78 5.19,2.78 1.78,0 4.02,-0.91 5.19,-2.78 1.17,1.87 3.41,2.78 5.19,2.78z"/>
  <path class="fil1" d="M82.92 21.34c-1.78,0 -4.02,-2.49 -5.19,-4.36 -1.17,1.87 -3.41,2.78 -5.19,2.78 -1.78,0 -4.02,-0.91 -5.19,-2.78 -1.17,1.87 -3.41,4.36 -5.19,4.36 1.78,0 4.02,-0.9 5.19,-2.77 1.17,1.87 3.41,2.77 5.19,2.77 1.78,0 4.02,-0.9 5.19,-2.77 1.17,1.87 3.41,2.77 5.19,2.77z"/>
  <path class="fil1" d="M57.03 11.69c-1.78,0 -4.02,-2.49 -5.19,-4.36 -1.17,1.87 -3.41,2.77 -5.19,2.77 -1.78,0 -4.02,-0.9 -5.19,-2.77 -1.17,1.87 -3.41,4.36 -5.19,4.36 1.78,0 4.02,-0.91 5.19,-2.78 1.17,1.87 3.41,2.78 5.19,2.78 1.78,0 4.02,-0.91 5.19,-2.78 1.17,1.87 3.41,2.78 5.19,2.78z"/>
  <path class="fil1" d="M34.51 19.76c-0.78,0 -1.75,-1.09 -2.26,-1.9 -0.51,0.81 -1.49,1.2 -2.27,1.2 -0.77,0 -1.75,-0.39 -2.26,-1.2 -0.51,0.81 -1.48,1.9 -2.26,1.9 0.78,0 1.75,-0.4 2.26,-1.21 0.51,0.81 1.49,1.21 2.26,1.21 0.78,0 1.76,-0.4 2.27,-1.21 0.51,0.81 1.48,1.21 2.26,1.21z"/>
  <path class="fil1" d="M25.26 11.86c-1.78,0 -4.02,-2.5 -5.19,-4.37 -1.17,1.87 -3.41,2.78 -5.19,2.78 -1.78,0 -4.02,-0.91 -5.19,-2.78 -1.17,1.87 -3.41,4.37 -5.19,4.37 1.78,0 4.02,-0.91 5.19,-2.78 1.17,1.87 3.41,2.78 5.19,2.78 1.78,0 4.02,-0.91 5.19,-2.78 1.17,1.87 3.41,2.78 5.19,2.78z"/>
  <path class="fil2" d="M14.3 27.44c-1.26,0 -2.86,-0.65 -3.69,-1.98 -0.84,1.33 -2.43,1.98 -3.7,1.98 1.27,0 2.18,-0.11 3.63,-0.92 1.96,0.92 2.5,0.92 3.76,0.92z"/>
  <path class="fil2" d="M38.28 37.17c-1.27,0 -2.87,-0.65 -3.7,-1.98 -0.83,1.33 -2.43,1.98 -3.7,1.98 1.27,0 2.18,-0.11 3.63,-0.92 1.97,0.92 2.5,0.92 3.77,0.92z"/>
  <path class="fil2" d="M56.01 20.36c-1.64,0 -3.71,-0.84 -4.79,-2.56 -1.08,1.72 -3.15,2.56 -4.79,2.56 1.64,0 2.82,-0.15 4.71,-1.2 2.54,1.2 3.23,1.2 4.87,1.2z"/>
  <path class="fil2" d="M59.78 51.44c-1.57,0 -3.55,-0.8 -4.58,-2.45 -1.03,1.65 -3,2.45 -4.57,2.45 1.57,0 2.69,-0.14 4.49,-1.14 2.43,1.14 3.09,1.14 4.66,1.14z"/>
  <path class="fil2" d="M83.44 11.77c-1.56,0 -3.54,-0.8 -4.57,-2.45 -1.03,1.65 -3,2.45 -4.57,2.45 1.57,0 2.69,-0.14 4.49,-1.14 2.43,1.14 3.09,1.14 4.65,1.14z"/>
  <path class="fil2" d="M79.9 41.92c-0.78,0 -1.77,-0.4 -2.29,-1.22 -0.51,0.82 -1.5,1.22 -2.28,1.22 0.78,0 1.34,-0.07 2.24,-0.57 1.22,0.57 1.55,0.57 2.33,0.57z"/>
  <path class="fil2" d="M62.13 68.35c-0.82,0 -1.86,-0.42 -2.4,-1.29 -0.54,0.87 -1.57,1.29 -2.39,1.29 0.82,0 1.41,-0.08 2.35,-0.6 1.27,0.6 1.62,0.6 2.44,0.6z"/>
  <path class="fil2" d="M83.2 77.13c-0.82,0 -1.84,-0.42 -2.38,-1.27 -0.53,0.85 -1.56,1.27 -2.37,1.27 0.81,0 1.4,-0.08 2.33,-0.6 1.26,0.6 1.6,0.6 2.42,0.6z"/>
  <path class="fil2" d="M30.57 78.79c-1.72,0 -3.89,-0.87 -5.02,-2.68 -1.13,1.81 -3.3,2.68 -5.02,2.68 1.72,0 2.95,-0.15 4.93,-1.25 2.67,1.25 3.39,1.25 5.11,1.25z"/>
  <path class="fil2" d="M10.11 62.51c-0.91,0 -2.05,-0.46 -2.65,-1.41 -0.6,0.95 -1.74,1.41 -2.65,1.41 0.91,0 1.56,-0.08 2.6,-0.66 1.41,0.66 1.79,0.66 2.7,0.66z"/>
 </g>
</svg>
