<?xml version="1.0" encoding="UTF-8"?>
<!DOCTYPE svg PUBLIC "-//W3C//DTD SVG 1.1//EN" "http://www.w3.org/Graphics/SVG/1.1/DTD/svg11.dtd">
<!-- Creator: CorelDRAW 2018 (64-Bit) -->
<svg xmlns="http://www.w3.org/2000/svg" xml:space="preserve" width="400px" height="390px" version="1.1" style="shape-rendering:geometricPrecision; text-rendering:geometricPrecision; image-rendering:optimizeQuality; fill-rule:evenodd; clip-rule:evenodd"
viewBox="0 0 148.45 145.04"
 xmlns:xlink="http://www.w3.org/1999/xlink">
 <defs>
  <style type="text/css">
   <![CDATA[
    .fil1 {fill:#9A5700}
    .fil0 {fill:#BA6900}
   ]]>
  </style>
 </defs>
 <g id="Слой_x0020_1">
  <metadata id="CorelCorpID_0Corel-Layer"/>
  <path class="fil0" d="M148.45 107.76c0.03,11.69 -4.47,19.78 -10.57,25.32 -3.43,3.12 0.28,8.89 -4.43,10.57 -5.13,1.84 -18.74,-0.38 -24.94,0.35 -11.09,1.29 -23.6,1.11 -36.32,0.87 -12.29,-0.24 -31.53,-1.35 -47.37,-2.62 -5.83,-0.46 -8.22,3.18 -16.66,-0.16 -6.4,-2.52 -0.24,-6.01 -0.9,-11.52 -0.89,-7.29 -7.65,-17.57 -7.24,-28.19 2.61,-68.12 65.11,-67.15 66.55,-75.59 3.44,-20.06 -3.27,11.55 -17.55,-2.93 -3.49,-3.54 6.91,-5.96 10.63,-9.25 3.06,-2.72 -11.55,-4.55 -9.22,-7.43 3.06,-3.78 6.33,1.63 8.83,0.9 3.13,-0.91 -1.59,-6.67 1.41,-7.93 3.18,-1.34 4.1,6.95 7.55,7.03 4.59,0.11 1.84,-9.17 5.76,-6.78 3.22,1.97 3.23,3.51 6.27,5.76 1.58,1.17 2.65,-2.66 5.01,-4.17 2.68,-1.71 0.66,7.89 2.8,6.22 2.19,-1.7 5.97,-0.11 5.88,2.17 -0.58,13.54 -14.27,-1.12 -14.72,12.41 -0.56,16.88 69.01,1.07 69.23,84.97z"/>
  <path class="fil1" d="M63.91 26.44c0.94,-0.5 1.82,-1.05 2.62,-1.57 0.89,-0.7 1.76,-1.42 2.95,-1.83 1,-0.34 1.76,1.42 3.01,1.42 1.87,0 1.25,-1.79 3.53,-2.83 1,-0.45 2.15,2.46 3.25,2.27 1.14,-0.2 1.61,-2.51 1.99,-2.64 0.54,-0.18 1.24,-1.34 1.79,-1.6 0.02,-0.01 0.04,-0.02 0.06,-0.02 1.01,-0.41 2.11,-0.65 3.22,-0.89 3.65,-0.8 7.32,-1.63 7.61,-8.37 0.09,-2.28 -3.69,-3.87 -5.88,-2.17 -2.14,1.67 -0.12,-7.93 -2.8,-6.22 -2.36,1.51 -3.43,5.34 -5.01,4.17 -3.04,-2.25 -3.05,-3.79 -6.27,-5.76 -3.92,-2.39 -1.17,6.89 -5.76,6.78 -3.45,-0.08 -4.37,-8.37 -7.55,-7.03 -3,1.26 1.72,7.02 -1.41,7.93 -2.5,0.73 -5.77,-4.68 -8.83,-0.9 -2.33,2.88 12.28,4.71 9.22,7.43 -3.72,3.29 -14.12,5.71 -10.63,9.25 5.77,5.85 10.89,4.69 14.89,2.58z"/>
 </g>
</svg>
