<?xml version="1.0" encoding="UTF-8"?>
<!DOCTYPE svg PUBLIC "-//W3C//DTD SVG 1.1//EN" "http://www.w3.org/Graphics/SVG/1.1/DTD/svg11.dtd">
<!-- Creator: CorelDRAW 2018 (64-Bit) -->
<svg xmlns="http://www.w3.org/2000/svg" xml:space="preserve" width="200px" height="200px" version="1.1" style="shape-rendering:geometricPrecision; text-rendering:geometricPrecision; image-rendering:optimizeQuality; fill-rule:evenodd; clip-rule:evenodd"
viewBox="0 0 46.97 46.97"
 xmlns:xlink="http://www.w3.org/1999/xlink">
 <defs>
  <style type="text/css">
   <![CDATA[
    .fil1 {fill:#000066}
    .fil0 {fill:blue}
   ]]>
  </style>
 </defs>
 <g id="Слой_x0020_1">
  <metadata id="CorelCorpID_0Corel-Layer"/>
  <rect class="fil0" width="46.97" height="46.97"/>
  <path class="fil1" d="M16.99 8.77c-2.53,0 -5.06,-3.19 -7.58,-3.19 -2.53,0 -5.05,3.19 -7.58,3.19 2.53,0 5.05,-2.34 7.58,-2.34 2.52,0 5.05,2.34 7.58,2.34z"/>
  <path class="fil1" d="M36.52 18.15c-4.25,0 -8.51,-5.38 -12.77,-5.38 -4.25,0 -8.51,5.38 -12.77,5.38 4.26,0 8.52,-3.94 12.77,-3.94 4.26,0 8.52,3.94 12.77,3.94z"/>
  <path class="fil1" d="M44.19 5.1c-2.45,0 -4.91,-3.1 -7.36,-3.1 -2.45,0 -4.91,3.1 -7.36,3.1 2.45,0 4.91,-2.27 7.36,-2.27 2.45,0 4.91,2.27 7.36,2.27z"/>
  <path class="fil1" d="M25.94 22.72c-2.56,0 -5.12,-3.24 -7.67,-3.24 -2.56,0 -5.11,3.24 -7.67,3.24 2.56,0 5.11,-2.38 7.67,-2.38 2.55,0 5.11,2.38 7.67,2.38z"/>
  <path class="fil1" d="M25.48 45.9c-2.49,0 -4.98,-3.15 -7.47,-3.15 -2.5,0 -4.99,3.15 -7.48,3.15 2.49,0 4.98,-2.31 7.48,-2.31 2.49,0 4.98,2.31 7.47,2.31z"/>
  <path class="fil1" d="M28.85 33.94c-1.88,0 -3.75,-2.37 -5.63,-2.37 -1.87,0 -3.75,2.37 -5.62,2.37 1.87,0 3.75,-1.73 5.62,-1.73 1.88,0 3.75,1.73 5.63,1.73z"/>
  <path class="fil1" d="M16.76 20.16c-2.49,0 -4.98,-3.15 -7.47,-3.15 -2.49,0 -4.98,3.15 -7.47,3.15 2.49,0 4.98,-2.31 7.47,-2.31 2.49,0 4.98,2.31 7.47,2.31z"/>
  <path class="fil1" d="M28.6 39.46c-4.61,0 -9.23,-5.84 -13.85,-5.84 -4.62,0 -9.24,5.84 -13.85,5.84 4.61,0 9.23,-4.28 13.85,-4.28 4.62,0 9.24,4.28 13.85,4.28z"/>
  <path class="fil1" d="M45.57 36.66c-3.97,0 -7.94,-5.01 -11.9,-5.01 -3.97,0 -7.93,5.01 -11.9,5.01 3.97,0 7.93,-3.68 11.9,-3.68 3.96,0 7.93,3.68 11.9,3.68z"/>
  <path class="fil1" d="M46.77 21.55c-3.12,0 -6.23,-3.94 -9.35,-3.94 -3.11,0 -6.23,3.94 -9.35,3.94 3.12,0 6.24,-2.89 9.35,-2.89 3.12,0 6.23,2.89 9.35,2.89z"/>
 </g>
</svg>
