<?xml version="1.0" encoding="UTF-8"?>
<!DOCTYPE svg PUBLIC "-//W3C//DTD SVG 1.1//EN" "http://www.w3.org/Graphics/SVG/1.1/DTD/svg11.dtd">
<!-- Creator: CorelDRAW 2018 (64-Bit) -->
<svg xmlns="http://www.w3.org/2000/svg" xml:space="preserve" width="200px" height="200px" version="1.1" style="shape-rendering:geometricPrecision; text-rendering:geometricPrecision; image-rendering:optimizeQuality; fill-rule:evenodd; clip-rule:evenodd"
viewBox="0 0 181.1 181.1"
 xmlns:xlink="http://www.w3.org/1999/xlink">
 <defs>
  <style type="text/css">
   <![CDATA[
    .fil1 {fill:#003333}
    .fil0 {fill:#006633}
   ]]>
  </style>
 </defs>
 <g id="Слой_x0020_1">
  <metadata id="CorelCorpID_0Corel-Layer"/>
  <rect class="fil0" width="181.1" height="181.1"/>
  <path class="fil1" d="M154.61 158.37c0,4.74 -4.61,8.59 -10.3,8.59 -3.75,0 -7.03,-1.68 -8.83,-4.18 -0.59,0.07 -1.19,0.11 -1.8,0.11 -5.43,0 -10.07,-2.83 -11.92,-6.82 -1.19,0.5 -2.53,0.77 -3.96,0.77 -0.9,0 -1.78,-0.11 -2.61,-0.32 -1.34,4.68 -6.39,8.16 -12.41,8.16 -2.33,0 -4.52,-0.52 -6.4,-1.43 -0.59,0.17 -1.21,0.28 -1.86,0.33 -0.96,2.4 -3.69,4.13 -6.9,4.13 -2.08,0 -3.96,-0.73 -5.29,-1.9 -1.93,0.99 -4.21,1.56 -6.64,1.56 -3.94,0 -7.46,-1.49 -9.8,-3.82 -0.36,0.04 -0.74,0.06 -1.12,0.06 -2.08,0 -3.98,-0.64 -5.43,-1.7 -1.03,0.48 -2.21,0.75 -3.47,0.75 -0.85,0 -1.67,-0.12 -2.42,-0.35 -1.05,0.23 -2.15,0.35 -3.29,0.35 -4.75,0 -8.9,-2.16 -11.1,-5.37 -1.8,1.35 -4.18,2.17 -6.79,2.17 -5.62,0 -10.17,-3.79 -10.17,-8.47 0,-1.37 0.38,-2.66 1.07,-3.8 -6.68,-0.34 -11.97,-4.96 -11.97,-10.61 0,-1.73 0.5,-3.37 1.38,-4.81 -3.58,-0.86 -6.19,-3.61 -6.19,-6.86 0,-3.94 3.83,-7.14 8.56,-7.14 -2.78,0.98 -5.24,3.15 -5.24,6.54 0,3.4 2.47,5.67 5.84,6.48 -0.83,1.36 -1.3,2.91 -1.3,4.54 0,5.34 4.99,9.7 11.3,10.02 -0.65,1.08 -1.02,2.29 -1.02,3.58 0,4.42 4.3,8 9.6,8 2.47,0 4.72,-0.78 6.42,-2.05 2.07,3.03 5.99,5.07 10.47,5.07 1.07,0 2.11,-0.12 3.1,-0.34 0.72,0.22 1.49,0.34 2.29,0.34 1.19,0 2.31,-0.26 3.27,-0.71 1.37,1 3.16,1.61 5.13,1.61 0.36,0 0.71,-0.02 1.06,-0.06 2.21,2.2 5.53,3.6 9.24,3.6 2.3,0 4.45,-0.54 6.28,-1.47 1.25,1.11 3.02,1.8 4.99,1.8 3.03,0 5.6,-1.64 6.51,-3.91 0.61,-0.04 1.2,-0.14 1.75,-0.31 11.27,4.46 16.52,-0.04 17.87,-7.8 4.3,2.16 8.2,1.1 11.47,-2.33 0.93,6.98 6.64,9.46 11.82,8.85 7.54,10.48 18.81,1.47 18.81,-0.85z"/>
  <path class="fil1" d="M84.34 94.51c0,2.18 -2.12,3.95 -4.74,3.95 -1.72,0 -3.23,-0.77 -4.06,-1.92 -0.27,0.03 -0.55,0.05 -0.83,0.05 -2.5,0 -4.63,-1.3 -5.48,-3.14 -0.55,0.23 -1.17,0.36 -1.82,0.36 -0.42,0 -0.82,-0.05 -1.2,-0.15 -0.62,2.15 -2.94,3.75 -5.71,3.75 -1.08,0 -2.08,-0.24 -2.95,-0.66 -0.27,0.08 -0.55,0.13 -0.85,0.15 -0.44,1.11 -1.7,1.91 -3.17,1.91 -0.96,0 -1.83,-0.34 -2.44,-0.88 -0.89,0.46 -1.93,0.72 -3.05,0.72 -1.81,0 -3.43,-0.68 -4.51,-1.76 -0.17,0.02 -0.34,0.03 -0.51,0.03 -0.96,0 -1.84,-0.29 -2.5,-0.78 -0.47,0.22 -1.02,0.34 -1.6,0.34 -0.39,0 -0.76,-0.05 -1.11,-0.16 -0.48,0.11 -0.99,0.16 -1.51,0.16 -2.19,0 -4.1,-0.99 -5.11,-2.47 -0.83,0.62 -1.92,1 -3.12,1 -2.59,0 -4.68,-1.74 -4.68,-3.9 0,-0.62 0.18,-1.22 0.49,-1.74 -3.07,-0.16 -5.5,-2.28 -5.5,-4.88 0,-0.8 0.22,-1.55 0.63,-2.22 -1.65,-0.39 -2.85,-1.65 -2.85,-3.15 0,-1.81 1.77,-3.28 3.94,-3.28 -1.28,0.45 -2.41,1.44 -2.41,3.01 0,1.56 1.13,2.6 2.69,2.97 -0.39,0.63 -0.6,1.34 -0.6,2.09 0,2.46 2.29,4.46 5.19,4.61 -0.29,0.5 -0.46,1.06 -0.46,1.65 0,2.03 1.98,3.68 4.41,3.68 1.14,0 2.17,-0.36 2.95,-0.95 0.96,1.4 2.76,2.34 4.82,2.34 0.5,0 0.97,-0.06 1.43,-0.16 0.33,0.1 0.68,0.16 1.05,0.16 0.55,0 1.06,-0.12 1.5,-0.33 0.63,0.46 1.46,0.74 2.36,0.74 0.17,0 0.33,-0.01 0.49,-0.03 1.02,1.01 2.55,1.66 4.25,1.66 1.06,0 2.05,-0.25 2.89,-0.68 0.57,0.51 1.39,0.83 2.29,0.83 1.4,0 2.58,-0.75 3,-1.8 0.28,-0.02 0.55,-0.06 0.81,-0.14 0.81,0.4 0.96,0.62 2.77,0.62 1.82,0 4.86,-2.18 5.45,-4.21 1.97,1 3.76,0.51 5.27,-1.07 0.91,1.97 3.05,4.35 5.44,4.07 3.47,4.82 8.65,0.68 8.65,-0.39z"/>
  <path class="fil1" d="M50.59 21.67c0,-3.96 3.85,-7.17 8.61,-7.17 3.13,0 5.87,1.4 7.38,3.49 0.49,-0.06 0.99,-0.09 1.5,-0.09 4.54,0 8.41,2.36 9.95,5.69 1,-0.41 2.12,-0.64 3.31,-0.64 0.76,0 1.49,0.1 2.18,0.27 1.12,-3.91 5.33,-6.81 10.37,-6.81 1.95,0 3.77,0.43 5.34,1.19 0.49,-0.14 1.01,-0.24 1.55,-0.27 0.81,-2.01 3.08,-3.46 5.77,-3.46 1.74,0 3.31,0.61 4.42,1.59 1.61,-0.82 3.51,-1.3 5.55,-1.3 3.28,0 6.22,1.24 8.17,3.19 0.31,-0.04 0.62,-0.06 0.94,-0.06 1.74,0 3.33,0.54 4.54,1.43 0.86,-0.4 1.84,-0.63 2.9,-0.63 0.71,0 1.39,0.1 2.02,0.3 0.88,-0.2 1.8,-0.3 2.75,-0.3 3.96,0 7.43,1.81 9.26,4.49 1.51,-1.13 3.5,-1.82 5.68,-1.82 4.69,0 8.49,3.17 8.49,7.08 0,1.14 -0.32,2.22 -0.89,3.17 5.58,0.28 10,4.15 10,8.87 0,1.44 -0.42,2.81 -1.16,4.02 2.99,0.71 5.18,3.01 5.18,5.72 0,3.3 -3.21,5.97 -7.16,5.97 2.33,-0.82 4.38,-2.63 4.38,-5.47 0,-2.84 -2.06,-4.73 -4.88,-5.41 0.7,-1.14 1.09,-2.43 1.09,-3.79 0,-4.46 -4.17,-8.1 -9.44,-8.37 0.54,-0.9 0.85,-1.91 0.85,-2.99 0,-3.69 -3.59,-6.68 -8.02,-6.68 -2.06,0 -3.94,0.65 -5.36,1.71 -1.73,-2.53 -5,-4.24 -8.74,-4.24 -0.9,0 -1.77,0.1 -2.6,0.29 -0.59,-0.19 -1.23,-0.29 -1.91,-0.29 -0.99,0 -1.92,0.22 -2.73,0.6 -1.14,-0.84 -2.64,-1.35 -4.28,-1.35 -0.3,0 -0.6,0.02 -0.89,0.05 -1.84,-1.83 -4.62,-3 -7.72,-3 -1.92,0 -3.71,0.45 -5.23,1.22 -1.05,-0.92 -2.53,-1.5 -4.18,-1.5 -2.53,0 -4.68,1.37 -5.44,3.26 -0.51,0.04 -0.99,0.13 -1.46,0.27 -1.48,-0.72 -1.75,-1.13 -5.04,-1.13 -3.3,0 -8.83,3.95 -9.88,7.64 -3.6,-1.8 -6.85,-0.92 -9.58,1.95 -1.65,-3.58 -5.55,-7.91 -9.87,-7.4 -6.3,-8.74 -15.72,-1.22 -15.72,0.71z"/>
  <path class="fil1" d="M77.09 69.91c0,2.18 2.12,3.95 4.74,3.95 1.72,0 3.23,-0.77 4.06,-1.92 0.27,0.03 0.55,0.05 0.83,0.05 2.5,0 4.63,-1.31 5.48,-3.14 0.55,0.23 1.17,0.35 1.82,0.35 0.42,0 0.82,-0.05 1.2,-0.14 0.62,2.15 2.94,3.75 5.71,3.75 1.07,0 2.08,-0.24 2.95,-0.66 0.27,0.08 0.55,0.13 0.85,0.15 0.44,1.11 1.7,1.91 3.17,1.91 0.96,0 1.83,-0.34 2.44,-0.88 0.89,0.45 1.93,0.71 3.05,0.71 1.81,0 3.43,-0.68 4.51,-1.75 0.17,0.02 0.34,0.03 0.51,0.03 0.96,0 1.84,-0.3 2.5,-0.79 0.47,0.23 1.02,0.35 1.6,0.35 0.39,0 0.76,-0.06 1.11,-0.16 0.48,0.11 0.99,0.16 1.51,0.16 2.19,0 4.1,-0.99 5.11,-2.47 0.83,0.62 1.92,1 3.12,1 2.59,0 4.68,-1.75 4.68,-3.9 0,-0.63 -0.18,-1.22 -0.49,-1.74 3.07,-0.16 5.5,-2.29 5.5,-4.89 0,-0.79 -0.22,-1.54 -0.63,-2.21 1.64,-0.39 2.85,-1.66 2.85,-3.15 0,-1.82 -1.77,-3.29 -3.94,-3.29 1.28,0.45 2.41,1.45 2.41,3.01 0,1.57 -1.14,2.61 -2.69,2.98 0.39,0.63 0.6,1.34 0.6,2.09 0,2.45 -2.3,4.46 -5.2,4.61 0.3,0.49 0.47,1.05 0.47,1.64 0,2.04 -1.98,3.68 -4.41,3.68 -1.14,0 -2.17,-0.35 -2.96,-0.94 -0.95,1.39 -2.75,2.33 -4.81,2.33 -0.5,0 -0.97,-0.05 -1.43,-0.15 -0.33,0.1 -0.68,0.15 -1.05,0.15 -0.55,0 -1.06,-0.11 -1.51,-0.32 -0.63,0.46 -1.45,0.74 -2.36,0.74 -0.16,0 -0.32,-0.01 -0.48,-0.03 -1.02,1.01 -2.55,1.66 -4.25,1.66 -1.06,0 -2.05,-0.25 -2.89,-0.68 -0.57,0.51 -1.39,0.83 -2.3,0.83 -1.39,0 -2.57,-0.76 -2.99,-1.8 -0.28,-0.02 -0.55,-0.07 -0.81,-0.14 -0.81,0.39 -0.96,0.62 -2.78,0.62 -1.81,0 -4.86,-2.18 -5.44,-4.21 -1.97,0.99 -3.76,0.5 -5.27,-1.07 -0.91,1.97 -3.05,4.35 -5.44,4.07 -3.47,4.82 -8.65,0.67 -8.65,-0.39z"/>
  <path class="fil1" d="M66.08 124.77c0,3.27 3.17,5.91 7.09,5.91 2.58,0 4.84,-1.15 6.08,-2.87 0.41,0.05 0.82,0.07 1.24,0.07 3.74,0 6.94,-1.94 8.2,-4.69 0.82,0.34 1.75,0.53 2.73,0.53 0.62,0 1.23,-0.08 1.8,-0.22 0.92,3.22 4.39,5.62 8.54,5.62 1.61,0 3.11,-0.36 4.41,-0.99 0.4,0.12 0.83,0.2 1.27,0.23 0.67,1.65 2.54,2.84 4.76,2.84 1.43,0 2.72,-0.5 3.64,-1.3 1.33,0.67 2.9,1.07 4.57,1.07 2.71,0 5.13,-1.03 6.74,-2.63 0.26,0.03 0.51,0.04 0.78,0.04 1.43,0 2.74,-0.44 3.74,-1.17 0.7,0.33 1.52,0.52 2.38,0.52 0.59,0 1.15,-0.09 1.67,-0.25 0.72,0.16 1.48,0.25 2.26,0.25 3.28,0 6.13,-1.49 7.64,-3.7 1.24,0.93 2.88,1.49 4.68,1.49 3.87,0 7,-2.61 7,-5.83 0,-0.94 -0.26,-1.83 -0.74,-2.61 4.6,-0.24 8.24,-3.42 8.24,-7.31 0,-1.19 -0.34,-2.32 -0.95,-3.31 2.47,-0.59 4.27,-2.48 4.27,-4.72 0,-2.72 -2.64,-4.92 -5.9,-4.92 1.92,0.68 3.61,2.17 3.61,4.51 0,2.34 -1.7,3.9 -4.02,4.46 0.57,0.93 0.89,2 0.89,3.12 0,3.67 -3.43,6.68 -7.77,6.9 0.44,0.74 0.69,1.58 0.69,2.46 0,3.04 -2.95,5.51 -6.6,5.51 -1.7,0 -3.25,-0.53 -4.42,-1.41 -1.43,2.08 -4.12,3.49 -7.21,3.49 -0.74,0 -1.45,-0.08 -2.13,-0.23 -0.5,0.15 -1.03,0.23 -1.58,0.23 -0.82,0 -1.59,-0.18 -2.25,-0.49 -0.94,0.69 -2.18,1.11 -3.53,1.11 -0.25,0 -0.49,-0.02 -0.73,-0.04 -1.52,1.51 -3.81,2.48 -6.36,2.48 -1.59,0 -3.06,-0.37 -4.32,-1.01 -0.86,0.76 -2.08,1.23 -3.44,1.23 -2.09,0 -3.86,-1.12 -4.48,-2.69 -0.42,-0.02 -0.83,-0.1 -1.21,-0.21 -1.22,0.59 -1.44,0.93 -4.16,0.93 -2.71,0 -7.27,-3.26 -8.14,-6.3 -2.96,1.49 -5.64,0.76 -7.89,-1.6 -1.36,2.95 -4.57,6.51 -8.14,6.09 -5.19,7.21 -12.95,1.01 -12.95,-0.59z"/>
 </g>
</svg>
